<svg width="61" height="61" viewBox="0 0 61 61" fill="none" xmlns="http://www.w3.org/2000/svg">
<path d="M20.3563 28.1994C19.1234 28.2036 17.9124 28.525 16.8396 29.1328C18.3499 25.2236 20.8548 21.7766 24.1063 19.1328C24.2924 18.9795 24.4464 18.7912 24.5596 18.5785C24.6729 18.3657 24.7431 18.1327 24.7663 17.8929C24.7896 17.653 24.7653 17.4109 24.6949 17.1804C24.6246 16.9499 24.5095 16.7355 24.3563 16.5494C24.2031 16.3634 24.0148 16.2093 23.802 16.0961C23.5893 15.9828 23.3563 15.9126 23.1164 15.8894C22.8765 15.8662 22.6344 15.8904 22.4039 15.9608C22.1734 16.0311 21.959 16.1462 21.773 16.2994C15.1063 21.7161 12.1396 29.2161 12.1396 33.8661C12.1511 35.5102 12.6411 37.1155 13.5497 38.4858C14.4583 39.8561 15.7463 40.9322 17.2563 41.5828C18.2336 42.0562 19.3038 42.3066 20.3897 42.3161C21.3454 42.3625 22.3007 42.2144 23.1975 41.8807C24.0943 41.5469 24.914 41.0345 25.6068 40.3745C26.2997 39.7145 26.8513 38.9207 27.2282 38.0411C27.6051 37.1616 27.7994 36.2146 27.7994 35.2578C27.7994 34.3009 27.6051 33.3539 27.2282 32.4744C26.8513 31.5948 26.2997 30.801 25.6068 30.141C24.914 29.481 24.0943 28.9686 23.1975 28.6348C22.3007 28.3011 21.3454 28.153 20.3897 28.1994H20.3563Z" fill="#96655F"/>
<path d="M38.9237 28.1997C37.6906 28.2024 36.4792 28.5239 35.407 29.1331C36.9167 25.228 39.4149 21.7821 42.657 19.1331C42.86 18.9868 43.0308 18.8006 43.159 18.5858C43.2873 18.371 43.3702 18.1323 43.4028 17.8843C43.4353 17.6362 43.4167 17.3842 43.3482 17.1436C43.2797 16.903 43.1626 16.679 43.0043 16.4854C42.846 16.2917 42.6497 16.1325 42.4275 16.0175C42.2053 15.9026 41.962 15.8343 41.7124 15.8169C41.4629 15.7995 41.2124 15.8334 40.9765 15.9164C40.7405 15.9995 40.524 16.1299 40.3404 16.2997C33.6737 21.7164 30.707 29.2164 30.707 33.8664C30.7149 35.4919 31.1906 37.0808 32.0772 38.4433C32.9639 39.8058 34.224 40.8842 35.707 41.5497C36.709 42.037 37.8095 42.2879 38.9237 42.2831C39.8795 42.3295 40.8347 42.1814 41.7315 41.8476C42.6283 41.5139 43.448 41.0015 44.1409 40.3415C44.8337 39.6815 45.3853 38.8877 45.7622 38.0081C46.1391 37.1286 46.3334 36.1816 46.3334 35.2247C46.3334 34.2678 46.1391 33.3209 45.7622 32.4414C45.3853 31.5618 44.8337 30.768 44.1409 30.108C43.448 29.448 42.6283 28.9356 41.7315 28.6018C40.8347 28.2681 39.8795 28.12 38.9237 28.1664V28.1997Z" fill="#96655F"/>
</svg>
