<svg width="967" height="528" viewBox="0 0 967 528" fill="none" xmlns="http://www.w3.org/2000/svg">
<path d="M31.2287 0.700766C15.3438 -0.828227 1.13627 10.8128 0.5591 26.7607C-1.50465 83.7811 6.54207 140.796 24.4034 195.147C45.276 258.66 79.0977 317.153 123.731 366.928C168.364 416.702 222.837 456.677 283.708 484.324C344.579 511.971 410.524 526.69 477.373 527.55C544.223 528.409 610.524 515.392 672.086 489.319C733.648 463.247 789.132 424.687 835.03 376.077C880.929 327.466 916.244 269.863 938.743 206.907C957.997 153.034 967.507 96.245 966.911 39.1903C966.744 23.2328 952.84 11.2302 936.921 12.3502C921.002 13.4701 909.108 27.2907 909.146 43.249C909.26 92.3187 900.887 141.114 884.324 187.458C864.515 242.887 833.422 293.603 793.011 336.402C752.601 379.2 703.751 413.15 649.549 436.105C595.348 459.06 536.974 470.521 478.117 469.764C419.26 469.007 361.2 456.048 307.607 431.707C254.014 407.365 206.053 372.17 166.757 328.346C127.46 284.523 97.6821 233.024 79.305 177.104C63.9398 130.349 56.824 81.3543 58.2007 32.3038C58.6484 16.3517 47.1137 2.22976 31.2287 0.700766Z" fill="#D6BAAA" fill-opacity="0.45"/>
</svg>
