<svg width="24" height="25" viewBox="0 0 24 25" fill="none" xmlns="http://www.w3.org/2000/svg">
<path d="M12 9.95898C11.2044 9.95898 10.4413 10.2751 9.87868 10.8377C9.31607 11.4003 9 12.1633 9 12.959C9 13.7546 9.31607 14.5177 9.87868 15.0803C10.4413 15.6429 11.2044 15.959 12 15.959C12.7956 15.959 13.5587 15.6429 14.1213 15.0803C14.6839 14.5177 15 13.7546 15 12.959C15 12.1633 14.6839 11.4003 14.1213 10.8377C13.5587 10.2751 12.7956 9.95898 12 9.95898ZM12 7.95898C13.3261 7.95898 14.5979 8.48577 15.5355 9.42345C16.4732 10.3611 17 11.6329 17 12.959C17 14.2851 16.4732 15.5568 15.5355 16.4945C14.5979 17.4322 13.3261 17.959 12 17.959C10.6739 17.959 9.40215 17.4322 8.46447 16.4945C7.52678 15.5568 7 14.2851 7 12.959C7 11.6329 7.52678 10.3611 8.46447 9.42345C9.40215 8.48577 10.6739 7.95898 12 7.95898ZM18.5 7.70898C18.5 8.0405 18.3683 8.35845 18.1339 8.59287C17.8995 8.82729 17.5815 8.95898 17.25 8.95898C16.9185 8.95898 16.6005 8.82729 16.3661 8.59287C16.1317 8.35845 16 8.0405 16 7.70898C16 7.37746 16.1317 7.05952 16.3661 6.8251C16.6005 6.59068 16.9185 6.45898 17.25 6.45898C17.5815 6.45898 17.8995 6.59068 18.1339 6.8251C18.3683 7.05952 18.5 7.37746 18.5 7.70898ZM12 4.95898C9.526 4.95898 9.122 4.96598 7.971 5.01698C7.187 5.05398 6.661 5.15898 6.173 5.34898C5.739 5.51698 5.426 5.71798 5.093 6.05198C4.78001 6.35438 4.53935 6.72357 4.389 7.13198C4.199 7.62198 4.094 8.14698 4.058 8.92998C4.006 10.034 4 10.42 4 12.959C4 15.433 4.007 15.837 4.058 16.988C4.095 17.771 4.2 18.298 4.389 18.785C4.559 19.22 4.759 19.533 5.091 19.865C5.428 20.201 5.741 20.402 6.171 20.568C6.665 20.759 7.191 20.865 7.971 20.901C9.075 20.953 9.461 20.959 12 20.959C14.474 20.959 14.878 20.952 16.029 20.901C16.811 20.864 17.338 20.759 17.826 20.57C18.259 20.401 18.574 20.2 18.906 19.868C19.243 19.531 19.444 19.218 19.61 18.788C19.8 18.295 19.906 17.768 19.942 16.988C19.994 15.884 20 15.498 20 12.959C20 10.485 19.993 10.081 19.942 8.92998C19.905 8.14798 19.8 7.61998 19.61 7.13198C19.4593 6.72399 19.2191 6.35494 18.907 6.05198C18.6047 5.73883 18.2355 5.49815 17.827 5.34798C17.337 5.15798 16.811 5.05298 16.029 5.01698C14.925 4.96498 14.539 4.95898 12 4.95898ZM12 2.95898C14.717 2.95898 15.056 2.96898 16.122 3.01898C17.187 3.06898 17.912 3.23598 18.55 3.48398C19.21 3.73798 19.766 4.08198 20.322 4.63698C20.8305 5.13688 21.224 5.74157 21.475 6.40898C21.722 7.04598 21.89 7.77198 21.94 8.83698C21.987 9.90298 22 10.242 22 12.959C22 15.676 21.99 16.015 21.94 17.081C21.89 18.146 21.722 18.871 21.475 19.509C21.2247 20.1768 20.8311 20.7816 20.322 21.281C19.822 21.7893 19.2173 22.1827 18.55 22.434C17.913 22.681 17.187 22.849 16.122 22.899C15.056 22.946 14.717 22.959 12 22.959C9.283 22.959 8.944 22.949 7.878 22.899C6.813 22.849 6.088 22.681 5.45 22.434C4.78233 22.1835 4.17753 21.7899 3.678 21.281C3.16941 20.7812 2.77593 20.1765 2.525 19.509C2.277 18.872 2.11 18.146 2.06 17.081C2.013 16.015 2 15.676 2 12.959C2 10.242 2.01 9.90298 2.06 8.83698C2.11 7.77098 2.277 7.04698 2.525 6.40898C2.77524 5.74116 3.1688 5.13631 3.678 4.63698C4.17767 4.12822 4.78243 3.73471 5.45 3.48398C6.088 3.23598 6.812 3.06898 7.878 3.01898C8.944 2.97198 9.283 2.95898 12 2.95898Z" fill="#714C47"/>
</svg>
