<svg width="512" height="512" viewBox="0 0 512 512" fill="none" xmlns="http://www.w3.org/2000/svg">
<path fill-rule="evenodd" clip-rule="evenodd" d="M298.667 202.667C281.003 202.667 266.667 217.003 266.667 234.667C266.667 252.331 281.003 266.667 298.667 266.667C316.331 266.667 330.667 252.331 330.667 234.667C330.667 217.003 316.331 202.667 298.667 202.667ZM298.667 224C304.555 224 309.334 228.779 309.334 234.667C309.334 240.555 304.555 245.333 298.667 245.333C292.779 245.333 288 240.555 288 234.667C288 228.779 292.779 224 298.667 224Z" fill="#714C47"/>
<path fill-rule="evenodd" clip-rule="evenodd" d="M298.667 288C281.003 288 266.667 302.336 266.667 320C266.667 337.664 281.003 352 298.667 352C316.331 352 330.667 337.664 330.667 320C330.667 302.336 316.331 288 298.667 288ZM298.667 309.333C304.555 309.333 309.334 314.112 309.334 320C309.334 325.888 304.555 330.667 298.667 330.667C292.779 330.667 288 325.888 288 320C288 314.112 292.779 309.333 298.667 309.333Z" fill="#714C47"/>
<path fill-rule="evenodd" clip-rule="evenodd" d="M384 202.667C366.336 202.667 352 217.003 352 234.667C352 252.331 366.336 266.667 384 266.667C401.664 266.667 416 252.331 416 234.667C416 217.003 401.664 202.667 384 202.667ZM384 224C389.888 224 394.667 228.779 394.667 234.667C394.667 240.555 389.888 245.333 384 245.333C378.112 245.333 373.333 240.555 373.333 234.667C373.333 228.779 378.112 224 384 224Z" fill="#714C47"/>
<path fill-rule="evenodd" clip-rule="evenodd" d="M384 288C366.336 288 352 302.336 352 320C352 337.664 366.336 352 384 352C401.664 352 416 337.664 416 320C416 302.336 401.664 288 384 288ZM384 309.333C389.888 309.333 394.667 314.112 394.667 320C394.667 325.888 389.888 330.667 384 330.667C378.112 330.667 373.333 325.888 373.333 320C373.333 314.112 378.112 309.333 384 309.333Z" fill="#714C47"/>
<path fill-rule="evenodd" clip-rule="evenodd" d="M309.333 53.3334H245.333V42.6667C245.333 24.9921 231.008 10.6667 213.333 10.6667H170.667C152.992 10.6667 138.667 24.9921 138.667 42.6667V53.3334H117.333C100.363 53.3334 84.0853 60.0748 72.0746 72.0748C60.0746 84.0855 53.3334 100.363 53.3334 117.333V170.667C53.3334 176.555 58.1121 181.333 64.0001 181.333C69.8881 181.333 74.6667 176.555 74.6667 170.667V160H480V448C480 465.675 465.675 480 448 480C430.325 480 416 465.675 416 448C416 448 416 437.333 416 426.667C416 418.176 412.629 410.037 406.624 404.043C400.629 398.037 392.491 394.667 384 394.667H195.445C225.611 373.429 245.333 338.336 245.333 298.667C245.333 233.909 192.757 181.333 128 181.333C63.2427 181.333 10.6667 233.909 10.6667 298.667C10.6667 338.336 30.3894 373.429 60.5548 394.667H42.6667C24.9921 394.667 10.6667 408.992 10.6667 426.667V448C10.6667 477.451 34.5494 501.333 64.0001 501.333H448C477.451 501.333 501.333 477.451 501.333 448C501.333 356.437 501.333 117.333 501.333 117.333C501.333 100.363 494.592 84.0855 482.592 72.0748C470.582 60.0748 454.304 53.3334 437.333 53.3334H416V42.6667C416 24.9921 401.675 10.6667 384 10.6667H341.333C323.659 10.6667 309.333 24.9921 309.333 42.6667V53.3334ZM384 416H42.6667C36.7787 416 32.0001 420.779 32.0001 426.667V448C32.0001 465.675 46.3254 480 64.0001 480H405.333C398.635 471.083 394.667 460.011 394.667 448V426.667C394.667 423.84 393.547 421.12 391.541 419.125C389.547 417.12 386.827 416 384 416ZM128 202.667C180.981 202.667 224 245.685 224 298.667C224 351.648 180.981 394.667 128 394.667C75.0187 394.667 32.0001 351.648 32.0001 298.667C32.0001 245.685 75.0187 202.667 128 202.667ZM330.667 74.6667V85.3334C330.667 91.2214 335.445 96.0001 341.333 96.0001H362.667C368.555 96.0001 373.333 100.779 373.333 106.667C373.333 112.555 368.555 117.333 362.667 117.333H341.333C323.659 117.333 309.333 103.008 309.333 85.3334V74.6667H160V85.3334C160 91.2214 164.779 96.0001 170.667 96.0001H192C197.888 96.0001 202.667 100.779 202.667 106.667C202.667 112.555 197.888 117.333 192 117.333H170.667C152.992 117.333 138.667 103.008 138.667 85.3334V74.6667H117.333C106.016 74.6667 95.1681 79.1574 87.1681 87.1681C79.1574 95.1681 74.6667 106.016 74.6667 117.333V138.667H480V117.333C480 106.016 475.509 95.1681 467.499 87.1681C459.499 79.1574 448.651 74.6667 437.333 74.6667H330.667ZM224 53.3334V42.6667C224 36.7787 219.221 32.0001 213.333 32.0001H170.667C164.779 32.0001 160 36.7787 160 42.6667V53.3334H224ZM394.667 53.3334V42.6667C394.667 36.7787 389.888 32.0001 384 32.0001H341.333C335.445 32.0001 330.667 36.7787 330.667 42.6667V53.3334H394.667Z" fill="#714C47"/>
<path fill-rule="evenodd" clip-rule="evenodd" d="M117.333 245.333H106.667C88.9921 245.333 74.6667 259.659 74.6667 277.333C74.6667 295.008 88.9921 309.333 106.667 309.333H149.333C155.221 309.333 160 314.112 160 320C160 325.888 155.221 330.667 149.333 330.667H106.667C100.779 330.667 96.0001 325.888 96.0001 320C96.0001 314.112 91.2214 309.333 85.3334 309.333C79.4454 309.333 74.6667 314.112 74.6667 320C74.6667 337.675 88.9921 352 106.667 352H117.333V362.667C117.333 368.555 122.112 373.333 128 373.333C133.888 373.333 138.667 368.555 138.667 362.667V352H149.333C167.008 352 181.333 337.675 181.333 320C181.333 302.325 167.008 288 149.333 288H106.667C100.779 288 96.0001 283.221 96.0001 277.333C96.0001 271.445 100.779 266.667 106.667 266.667H149.333C155.221 266.667 160 271.445 160 277.333C160 283.221 164.779 288 170.667 288C176.555 288 181.333 283.221 181.333 277.333C181.333 259.659 167.008 245.333 149.333 245.333H138.667V234.667C138.667 228.779 133.888 224 128 224C122.112 224 117.333 228.779 117.333 234.667V245.333Z" fill="#714C47"/>
</svg>
