<svg width="512" height="512" viewBox="0 0 512 512" fill="none" xmlns="http://www.w3.org/2000/svg">
<g clip-path="url(#clip0_1353_184)">
<path d="M71.5819 214.459C73.3049 218.528 71.4019 223.223 67.334 224.945C66.315 225.376 65.259 225.58 64.219 225.58C61.102 225.58 58.14 223.748 56.848 220.697C39.394 179.468 51.604 131.106 86.5389 103.088C122.166 74.5158 172.664 73.5668 209.339 100.783C212.887 103.416 213.629 108.427 210.995 111.974C208.361 115.521 203.351 116.262 199.804 113.63C168.966 90.7468 126.507 91.5438 96.5489 115.569C67.173 139.129 56.906 179.794 71.5819 214.459V214.459ZM405.234 243.336C401.459 241.041 396.537 242.246 394.245 246.023C375.379 277.096 361.921 310.865 354.245 346.39C352.269 355.53 350.158 367.164 347.923 379.482C343.194 405.548 337.832 435.093 330.846 458.802C320.415 494.199 312.04 495.757 311.12 495.818C309.523 495.95 294.999 494.56 269.537 415.772C263.771 387.104 257.458 364.946 250.771 349.906C242.904 332.212 234.108 323.61 223.882 323.61C213.656 323.61 204.861 332.212 196.994 349.906C190.306 364.946 183.994 387.103 178.229 415.771C152.714 494.716 138.213 496.062 136.624 495.995C135.71 495.934 127.396 494.388 117.002 459.137C110.023 435.468 104.615 405.765 99.8449 379.559C97.0279 364.085 94.5949 350.722 92.2009 340.552C82.7949 300.589 66.172 263.229 42.785 229.492C20.9021 180.848 34.615 123.697 76.2729 90.2898C117.717 57.0529 176.456 55.9499 219.116 87.6058C221.948 89.7078 225.821 89.7078 228.651 87.6058C239.021 79.9108 250.491 74.0248 262.743 70.1138C266.952 68.7698 269.275 64.2688 267.931 60.0599C266.587 55.8509 262.084 53.5289 257.877 54.8719C245.796 58.7279 234.386 64.2708 223.882 71.3788C175.848 38.8919 111.849 41.2479 66.263 77.8078C18.6971 115.954 3.17708 181.328 28.524 236.783C28.723 237.22 28.962 237.637 29.236 238.03C51.684 270.262 67.63 305.989 76.6279 344.218C78.9279 353.989 81.3269 367.166 84.1049 382.424C97.7139 457.18 109.372 510.23 135.571 511.96C136.009 511.989 136.443 512.004 136.879 512.003C155.873 512.002 172.923 484.354 193.598 420.251C193.692 419.961 193.769 419.666 193.828 419.367C209.631 340.522 223.743 339.61 223.884 339.61C224.025 339.61 238.137 340.522 253.941 419.367C254.001 419.666 254.078 419.961 254.171 420.251C275.281 485.707 292.66 513.089 312.18 511.783C338.487 510.038 350.114 457.032 363.667 382.34C365.878 370.156 367.966 358.65 369.885 349.77C377.185 315.988 389.983 283.876 407.922 254.327C410.214 250.549 409.012 245.629 405.234 243.336V243.336ZM264.341 158.264L281.135 103.592C282.167 100.234 285.269 97.9418 288.782 97.9418C292.295 97.9418 295.396 100.234 296.428 103.592L313.223 158.264L367.894 175.058C371.252 176.09 373.544 179.192 373.544 182.705C373.544 186.218 371.252 189.32 367.894 190.352L313.223 207.146L296.428 261.817C295.396 265.174 292.295 267.467 288.782 267.467C285.269 267.467 282.167 265.175 281.135 261.817L264.341 207.146L209.671 190.352C206.312 189.32 204.02 186.218 204.02 182.705C204.02 179.192 206.312 176.09 209.671 175.058L264.341 158.264ZM273.093 172.313L239.264 182.705L273.093 193.097C275.627 193.876 277.612 195.861 278.391 198.395L288.783 232.225L299.175 198.395C299.954 195.861 301.94 193.876 304.475 193.097L338.302 182.705L304.475 172.313C301.94 171.534 299.954 169.549 299.175 167.015L288.783 133.184L278.391 167.015C277.611 169.55 275.627 171.534 273.093 172.313V172.313ZM287.512 58.4009C287.512 54.8869 289.804 51.7859 293.163 50.7539L327.665 40.1549L338.264 5.65197C339.296 2.29297 342.398 0.000976562 345.911 0.000976562C349.424 0.000976562 352.526 2.29297 353.558 5.65197L364.157 40.1549L398.661 50.7539C402.02 51.7859 404.312 54.8879 404.312 58.4009C404.312 61.9139 402.02 65.0158 398.662 66.0478L364.157 76.6478L353.558 111.151C352.526 114.51 349.424 116.802 345.911 116.802C342.398 116.802 339.296 114.51 338.264 111.151L327.665 76.6478L293.162 66.0478C289.804 65.0168 287.512 61.9149 287.512 58.4009V58.4009ZM322.754 58.4009L336.417 62.5978C338.951 63.3768 340.936 65.3618 341.715 67.8968L345.911 81.5578L350.107 67.8968C350.886 65.3618 352.871 63.3768 355.405 62.5978L369.068 58.4009L355.406 54.2049C352.871 53.4259 350.886 51.4409 350.107 48.9059L345.911 35.2449L341.715 48.9059C340.936 51.4409 338.951 53.4259 336.416 54.2049L322.754 58.4009ZM495.514 148.995C495.514 152.509 493.222 155.61 489.863 156.642L444.985 170.427L431.199 215.307C430.167 218.665 427.065 220.957 423.552 220.957C420.039 220.957 416.937 218.665 415.905 215.307L402.119 170.428L357.241 156.643C353.882 155.611 351.59 152.509 351.59 148.996C351.59 145.483 353.882 142.381 357.24 141.349L402.119 127.563L415.905 82.6838C416.937 79.3258 420.039 77.0338 423.552 77.0338C427.065 77.0338 430.167 79.3258 431.199 82.6838L444.985 127.563L489.864 141.349C493.222 142.38 495.514 145.481 495.514 148.995ZM460.27 148.995L436.233 141.611C433.699 140.832 431.714 138.847 430.935 136.313L423.551 112.275L416.167 136.313C415.388 138.847 413.403 140.832 410.869 141.611L386.832 148.995L410.868 156.378C413.403 157.157 415.388 159.142 416.167 161.676L423.551 185.714L430.935 161.676C431.714 159.142 433.699 157.157 436.234 156.378L460.27 148.995Z" fill="#714C47"/>
</g>
<defs>
<clipPath id="clip0_1353_184">
<rect width="512" height="512" fill="white"/>
</clipPath>
</defs>
</svg>
