<svg width="512" height="512" viewBox="0 0 512 512" fill="none" xmlns="http://www.w3.org/2000/svg">
<path d="M296 194C288.28 194 282 200.28 282 208C282 215.72 288.28 222 296 222C303.72 222 310 215.72 310 208C310 200.28 303.72 194 296 194ZM294 208C294 206.896 294.896 206 296 206C297.104 206 298 206.896 298 208C298 210.2 294 210.2 294 208Z" fill="#714C47"/>
<path d="M216 194C208.28 194 202 200.28 202 208C202 215.72 208.28 222 216 222C223.72 222 230 215.72 230 208C230 200.28 223.72 194 216 194ZM214 208C214 206.896 214.896 206 216 206C217.104 206 218 206.896 218 208C218 210.2 214 210.2 214 208Z" fill="#714C47"/>
<path d="M456.616 340.696L428.4 350.104C425.528 351.056 422.48 351.056 419.6 350.104L391.384 340.696C385.464 338.712 379.296 338.712 373.592 340.376C360.4 333.304 345.8 329.352 330.864 328.904L304 309.36V298.56C326.448 285.048 343.136 262.432 349.312 235.792C366.368 256.12 385.696 274.408 407.152 290.008L435.304 310.48C436.704 311.496 438.352 312 440 312C441.896 312 443.8 311.32 445.304 309.992C448.112 307.496 448.808 303.4 446.992 300.12C421.488 254.2 408 202.168 408 149.632V88C408 48.296 375.704 16 336 16C317.304 16 299.448 23.344 286.08 36.224C276.496 33.544 266.432 32 256 32C194.24 32 144 82.24 144 144V178.808C134.576 183.32 128 192.872 128 204C128 219.44 140.56 232 156 232H161.424C164.736 251.848 174.088 270.104 188.752 284.504C194.6 290.248 201.096 295.056 208 299.064V309.352L182.368 328H168C140.448 328 117.528 348.032 112.904 374.28L106.584 357.432C114.496 353.504 120 345.416 120 336V288C133.232 288 144 277.232 144 264C144 250.768 133.232 240 120 240V216C120 211.576 116.424 208 112 208H104V143.192C122.232 139.472 136 123.32 136 104C136 81.944 118.056 64 96.0001 64C73.9441 64 56.0001 81.944 56.0001 104C56.0001 123.312 69.7681 139.472 88.0001 143.192V208H80.0001C75.5761 208 72.0001 211.576 72.0001 216V240H51.4161C42.1921 240 33.4081 243.984 27.3361 250.92C21.2561 257.864 18.4801 267.088 19.6961 276.224L48.0721 489.056C48.6001 493.032 51.9921 496 56.0001 496H392V495.896C394.96 495.896 397.784 494.328 399.16 491.576L424 441.888L448.84 491.576C450.216 494.328 453.016 496 456 496C456.528 496 457.072 495.944 457.608 495.832C461.152 495.104 463.776 492.08 463.984 488.464C465.04 470.616 469.784 438.752 478.04 429.24C487.72 418.088 493.504 390.632 495.536 379.368C495.848 377.616 496 375.888 496 374.104V369.08C496 361.208 492.808 353.496 487.232 347.92C479.168 339.856 467.44 337.08 456.616 340.696ZM72.0001 104C72.0001 90.768 82.7681 80 96.0001 80C109.232 80 120 90.768 120 104C120 117.232 109.232 128 96.0001 128C82.7681 128 72.0001 117.232 72.0001 104ZM352.496 379.448C354.584 390.648 360.448 417.912 369.88 429.144C377.16 437.824 381.624 462.16 383.36 480H360V440H344V480H264V392.376L299.56 416.088C303.248 418.528 308.2 417.544 310.656 413.872C323.824 394.112 331.648 359.936 334.568 345.16C342.768 345.84 350.816 347.664 358.44 350.776C354.384 355.992 352 362.432 352 369.08V374.04C352 375.88 352.16 377.672 352.496 379.448V379.448ZM319.224 340.216C317.08 351.328 311.048 379.248 301.376 398.056L267.848 375.704L302.144 334.544C303.344 333.12 304 331.304 304 329.432V329.144L319.224 340.216ZM176 216V192C221.744 192 262.288 166.704 282.584 127.248C293.512 150.616 312.44 169.712 336 180.968V213.08C336 219.592 335.184 225.904 333.784 232H177.592C176.544 226.792 176 221.44 176 216V216ZM176.304 176C177.72 157.456 184.032 139.8 194.504 124.848C209.776 106.512 232.184 96 256 96C263.488 96 270.736 97.032 277.616 98.968C276.624 99.896 275.864 101.088 275.448 102.456C262.024 146.344 222.2 175.864 176.304 176V176ZM291.192 104.168C313.776 115.288 330.4 136.744 334.824 162.336C313.392 149.464 297.528 128.536 291.192 104.168ZM356 192C362.616 192 368 197.384 368 204C368 210.616 362.616 216 356 216H351.856C351.888 215.024 352 214.064 352 213.08V192H356ZM336 32C366.872 32 392 57.128 392 88V149.632C392 193.952 401.128 237.944 418.592 278.536L416.552 277.056C397.824 263.432 380.784 247.648 365.552 230.208C376.28 226.288 384 216.072 384 204C384 192.872 377.424 183.32 368 178.808V144C368 99.144 341.432 60.472 303.264 42.608C312.72 35.792 324.152 32 336 32V32ZM256 48C308.936 48 352 91.064 352 144V176H351.984C351.984 175.968 351.992 175.944 351.992 175.912C351.952 123.032 308.888 80 256 80C227.424 80 200.528 92.616 181.816 115.136C169.096 133.24 161.76 154.144 160.312 176H160V144C160 91.064 203.064 48 256 48V48ZM156 216C149.384 216 144 210.616 144 204C144 197.384 149.384 192 156 192H160V216H156ZM182.672 248H328.376C315.776 275.784 288.784 295.416 257.496 295.984C235.768 296.28 215.392 288.248 199.952 273.096C192.512 265.784 186.72 257.264 182.672 248ZM255.976 312C256.576 312 257.184 311.992 257.8 311.984C268.376 311.792 278.504 309.72 288 306.216V326.528L256 364.928L224 326.528V306.448C234.152 310.032 244.896 312 255.976 312V312ZM208 329.136V329.424C208 331.296 208.656 333.112 209.848 334.552L244.144 375.712L210.632 398.056C201.016 379.208 195.184 351.064 193.144 339.936L208 329.136ZM88.0001 336V286.528C90.9921 285.464 93.6881 283.848 96.0001 281.76C98.3121 283.84 101.008 285.464 104 286.528V336C104 340.416 100.416 344 96.0001 344C91.5841 344 88.0001 340.416 88.0001 336ZM128 264C128 268.416 124.416 272 120 272H112C107.584 272 104 268.416 104 264C104 259.584 107.584 256 112 256H120C124.416 256 128 259.584 128 264ZM104 224V241.472C101.008 242.536 98.3121 244.16 96.0001 246.24C93.6881 244.152 90.9921 242.536 88.0001 241.472V224H104ZM39.3761 261.464C42.4161 257.992 46.8001 256 51.4161 256H80.0001C84.4161 256 88.0001 259.584 88.0001 264C88.0001 268.416 84.4161 272 80.0001 272H56.0001V288H72.0001V336C72.0001 338.816 72.5761 341.488 73.4721 344H44.8721L35.5521 274.112C34.9441 269.536 36.3361 264.928 39.3761 261.464V261.464ZM47.0081 360H90.4561L112 417.456V432H96.0001V448H120C124.424 448 128 444.424 128 440V384C128 361.944 145.944 344 168 344H177.624C180.304 358.416 187.912 393.728 201.344 413.864C202.88 416.176 205.424 417.424 208.008 417.424C209.528 417.424 211.072 416.984 212.44 416.08L248 392.376V480H63.0081L47.0081 360ZM480 374.104C480 374.912 479.944 375.68 479.792 376.504C476.808 393.04 471.376 412.52 465.96 418.76C458.2 427.688 453.704 445.216 451.136 460.4L438.304 434.744C435.576 429.28 430.096 425.896 423.992 425.896C417.888 425.896 412.408 429.288 409.68 434.736L396.896 460.304C394.376 445.36 389.904 428.136 382.112 418.856C376.768 412.48 371.28 393 368.208 376.48C368.064 375.672 368 374.864 368 374.04V369.08C368 365.416 369.488 361.832 372.08 359.24C375.824 355.488 381.296 354.184 386.32 355.872L414.536 365.28C416.064 365.792 417.624 366.176 419.2 366.432L443.56 382.664L452.432 369.352L442.032 362.424L461.672 355.88C466.704 354.192 472.168 355.496 475.912 359.248C478.504 361.84 479.992 365.424 479.992 369.088V374.104H480Z" fill="#714C47"/>
</svg>
