<svg width="444" height="481" viewBox="0 0 444 481" fill="none" xmlns="http://www.w3.org/2000/svg">
<path d="M120 60.9999C120.012 49.4717 116.703 38.1841 110.469 28.4872C104.234 18.7904 95.3384 11.0949 84.845 6.32124C74.3516 1.54764 62.7052 -0.101943 51.299 1.56984C39.8927 3.24162 29.2095 8.16397 20.5274 15.7481C11.8452 23.3322 5.53178 33.2569 2.34221 44.335C-0.847351 55.4131 -0.777962 67.1756 2.54208 78.2153C5.86212 89.255 12.2922 99.1045 21.0632 106.586C29.8343 114.067 40.5748 118.863 52 120.4V161H44C39.7565 161 35.6868 162.686 32.6863 165.686C29.6857 168.687 28 172.756 28 177V449C28 457.487 31.3714 465.626 37.3725 471.627C43.3737 477.628 51.513 481 60 481C68.4869 481 76.6262 477.628 82.6274 471.627C88.6285 465.626 92 457.487 92 449V177C92 172.756 90.3142 168.687 87.3137 165.686C84.3131 162.686 80.2434 161 76 161H68V120.4C82.3865 118.464 95.5836 111.379 105.145 100.457C114.707 89.5344 119.984 75.516 120 60.9999ZM76 449C76 453.243 74.3142 457.313 71.3137 460.314C68.3131 463.314 64.2434 465 60 465C55.7565 465 51.6868 463.314 48.6863 460.314C45.6857 457.313 44 453.243 44 449V393H76V449ZM76 377H44V265H76V377ZM76 177V249H44V177H76ZM60 105C51.2976 105 42.7906 102.419 35.5549 97.5845C28.3191 92.7497 22.6795 85.8779 19.3493 77.8379C16.019 69.798 15.1477 60.951 16.8454 52.4159C18.5432 43.8807 22.7338 36.0407 28.8873 29.8872C35.0408 23.7336 42.8808 19.5431 51.416 17.8453C59.9512 16.1476 68.7981 17.0189 76.838 20.3492C84.878 23.6794 91.7498 29.319 96.5846 36.5548C101.419 43.7905 104 52.2975 104 60.9999C103.987 72.6655 99.3475 83.8497 91.0986 92.0985C82.8498 100.347 71.6656 104.987 60 105V105Z" fill="#714C47"/>
<path d="M60 32.9999C57.8783 32.9999 55.8434 33.8427 54.3431 35.343C52.8429 36.8433 52 38.8781 52 40.9999C52 43.1216 52.8429 45.1564 54.3431 46.6567C55.8434 48.157 57.8783 48.9999 60 48.9999C63.1826 48.9999 66.2348 50.2642 68.4853 52.5146C70.7357 54.765 72 57.8173 72 60.9999C72 63.1216 72.8429 65.1564 74.3431 66.6567C75.8434 68.157 77.8783 68.9999 80 68.9999C82.1217 68.9999 84.1566 68.157 85.6569 66.6567C87.1571 65.1564 88 63.1216 88 60.9999C88 53.5738 85.05 46.4519 79.799 41.2009C74.548 35.9499 67.4261 32.9999 60 32.9999V32.9999Z" fill="#714C47"/>
<path d="M236.328 385C240.482 384.996 244.464 383.344 247.402 380.408C250.34 377.471 251.994 373.49 252 369.336V112.664C251.994 108.51 250.34 104.528 247.402 101.592C244.464 98.6555 240.482 97.0041 236.328 96.9998H228.56L228 56.8878C227.974 55.3464 227.508 53.8446 226.656 52.5598L215.312 35.5438L248.112 15.8558C249.889 14.7436 251.159 12.978 251.648 10.939C252.137 8.90008 251.805 6.75075 250.725 4.95357C249.645 3.15639 247.903 1.85503 245.873 1.32955C243.843 0.804076 241.688 1.09648 239.872 2.14384L199.872 26.1438C198.949 26.706 198.149 27.4481 197.52 28.326C196.89 29.2039 196.444 30.1996 196.207 31.2537C195.97 32.3078 195.948 33.3988 196.142 34.4616C196.336 35.5244 196.742 36.5373 197.336 37.4398L212 59.4718L212.56 96.9998H203.672C199.518 97.0041 195.536 98.6555 192.598 101.592C189.66 104.528 188.006 108.51 188 112.664V369.336C188.006 373.49 189.66 377.471 192.598 380.408C195.536 383.344 199.518 384.996 203.672 385H212V418.04C212.034 421.62 213.256 425.088 215.474 427.898C217.693 430.709 220.782 432.703 224.256 433.568C227.995 434.592 231.236 436.938 233.375 440.172C235.514 443.405 236.406 447.305 235.886 451.147C235.366 454.989 233.468 458.511 230.547 461.059C227.625 463.607 223.877 465.007 220 465H196C193.878 465 191.843 465.843 190.343 467.343C188.843 468.843 188 470.878 188 473C188 475.122 188.843 477.156 190.343 478.657C191.843 480.157 193.878 481 196 481H220C227.773 480.978 235.271 478.127 241.096 472.981C246.921 467.835 250.674 460.744 251.653 453.034C252.633 445.323 250.773 437.519 246.42 431.08C242.068 424.64 235.52 420.005 228 418.04V385H236.328ZM203.672 113L236 112.664V153H203.72L203.672 113ZM203.744 169H236V313H203.928L203.744 169ZM204 369.336L203.952 329H236V369L204 369.336Z" fill="#714C47"/>
<path d="M443.392 5.93588C442.786 4.47439 441.76 3.22539 440.445 2.3468C439.129 1.46821 437.582 0.999481 436 0.999879H404C402.126 0.998849 400.311 1.65571 398.872 2.85588L350.872 42.8559C349.972 43.6071 349.249 44.5468 348.753 45.6085C348.256 46.6702 347.999 47.8279 348 48.9999V449C348 457.487 351.371 465.626 357.373 471.627C363.374 477.628 371.513 481 380 481C388.487 481 396.626 477.628 402.627 471.627C408.629 465.626 412 457.487 412 449V185C411.999 184.668 411.977 184.337 411.936 184.008L396.424 59.8879L441.656 14.6559C442.775 13.5371 443.538 12.1115 443.847 10.5593C444.156 9.00706 443.998 7.39808 443.392 5.93588V5.93588ZM396 449C396 453.243 394.314 457.313 391.314 460.314C388.313 463.314 384.243 465 380 465C375.757 465 371.687 463.314 368.686 460.314C365.686 457.313 364 453.243 364 449V353H396V449ZM396 337H364V321H396V337ZM396 305H364V289H396V305ZM396 273H364V257H396V273ZM396 241H364V225H396V241ZM396 209H364V193H396V209ZM382.344 51.3439C381.483 52.2053 380.83 53.252 380.435 54.4041C380.04 55.5562 379.913 56.7833 380.064 57.9919L394.936 177H364V52.7439L406.896 16.9999H416.688L382.344 51.3439Z" fill="#714C47"/>
</svg>
