<svg width="512" height="512" viewBox="0 0 512 512" fill="none" xmlns="http://www.w3.org/2000/svg">
<path d="M242.8 296.224C241.579 296.225 240.387 295.854 239.383 295.16C238.379 294.465 237.61 293.481 237.18 292.339C236.75 291.197 236.678 289.95 236.975 288.766C237.271 287.582 237.922 286.517 238.84 285.712L245.392 279.968C248.365 277.365 252.188 275.94 256.139 275.96C260.091 275.981 263.898 277.446 266.844 280.08L273.2 285.752C274.344 286.824 275.022 288.301 275.091 289.866C275.16 291.432 274.613 292.963 273.568 294.131C272.523 295.299 271.062 296.012 269.498 296.116C267.935 296.221 266.392 295.71 265.2 294.692L258.868 289.016C258.108 288.336 257.126 287.958 256.107 287.953C255.088 287.948 254.102 288.316 253.336 288.988L246.784 294.732C245.684 295.701 244.266 296.233 242.8 296.224V296.224Z" fill="#714C47"/>
<path d="M256 334.284C254.409 334.284 252.883 333.652 251.757 332.527C250.632 331.402 250 329.875 250 328.284V302.62C250 301.029 250.632 299.503 251.757 298.377C252.883 297.252 254.409 296.62 256 296.62C257.591 296.62 259.117 297.252 260.243 298.377C261.368 299.503 262 301.029 262 302.62V328.284C262 329.875 261.368 331.402 260.243 332.527C259.117 333.652 257.591 334.284 256 334.284Z" fill="#714C47"/>
<path d="M486.36 23.3961C451.56 -13.3759 344.064 13.9081 284.492 39.7441C275.496 43.6291 265.8 45.6332 256 45.6332C246.201 45.6332 236.505 43.6291 227.508 39.7441C167.936 13.9081 60.4482 -13.3759 25.6402 23.3961C-0.235785 50.7441 -1.93179 99.8201 21.3242 140.74C20.6002 160.032 23.2402 181.212 25.7242 187.14C30.7442 199.228 58.6242 205.116 75.7842 205.116C77.4642 205.116 79.0482 205.06 80.4922 204.948C83.8229 204.76 87.1057 204.067 90.2282 202.892C100.228 213.316 127.312 217.724 145.428 217.724C147.892 217.724 150.188 217.64 152.256 217.484C157.085 217.262 161.841 216.219 166.32 214.4C169.806 219.133 174.985 222.338 180.776 223.344C194.535 225.815 208.49 227.029 222.468 226.972C228.668 226.972 234.772 226.736 240.54 226.26C246.215 225.915 251.631 223.766 256 220.128C260.366 223.771 265.781 225.925 271.456 226.276C277.228 226.752 283.328 226.984 289.532 226.984C303.511 227.042 317.465 225.829 331.224 223.36C337.018 222.35 342.198 219.139 345.68 214.4C350.162 216.22 354.92 217.263 359.752 217.484C361.82 217.64 364.116 217.724 366.58 217.724C384.704 217.724 411.78 213.324 421.78 202.892C424.903 204.067 428.185 204.76 431.516 204.948C432.96 205.06 434.54 205.116 436.224 205.116C453.384 205.116 481.264 199.228 486.284 187.14C488.752 181.196 491.392 160.016 490.684 140.74C513.932 99.8201 512.236 50.7441 486.36 23.3961V23.3961ZM54.7602 190.596C42.5042 187.712 37.3522 183.924 36.7802 182.544C33.2962 174.144 30.5522 129.428 37.5802 117.376C42.3242 109.268 51.8162 110.104 55.6802 110.84C62.5762 112.428 68.9039 115.879 73.9732 120.816C79.0426 125.754 82.659 131.988 84.4282 138.84C84.9005 140.871 85.0129 142.97 84.7602 145.04C83.0708 160.636 83.2817 176.379 85.3882 191.924C81.4682 193.4 69.5202 194.076 54.7722 190.604L54.7602 190.596ZM125.512 204.1C106.94 201.088 99.1122 195.892 98.2362 193.852C94.2002 184.476 94.5402 133.724 103.036 117.596C106.236 111.544 116 109.096 127.368 111.508C142.776 114.776 158.868 126.592 161.188 145.772C161.32 146.992 161.332 148.222 161.224 149.444C160.126 166.46 160.197 183.53 161.436 200.536C161.508 201.504 161.688 202.412 161.836 203.336C158.064 205.388 144.34 207.16 125.524 204.108L125.512 204.1ZM247.912 211.24C245.585 213.261 242.594 214.353 239.512 214.308C220.631 215.777 201.639 214.856 182.988 211.568C180.228 211.054 177.741 209.571 175.977 207.386C174.213 205.202 173.286 202.459 173.364 199.652C172.68 190.452 170.796 158.42 175.208 132.852C176.004 126.604 179.093 120.875 183.876 116.777C188.658 112.678 194.792 110.503 201.088 110.672C211.081 110.569 220.824 113.801 228.773 119.858C236.722 125.915 242.424 134.45 244.976 144.112C251.692 172.704 250.908 204.752 247.94 211.248L247.912 211.24ZM338.568 199.64C338.646 202.447 337.719 205.189 335.955 207.373C334.191 209.556 331.704 211.039 328.944 211.552C310.292 214.844 291.299 215.765 272.416 214.292C269.334 214.336 266.343 213.242 264.016 211.22C261.052 204.728 260.268 172.68 266.944 144.108C269.451 134.626 274.991 126.223 282.718 120.183C290.446 114.142 299.937 110.795 309.744 110.652H310.812C317.108 110.483 323.243 112.658 328.025 116.757C332.807 120.855 335.896 126.584 336.692 132.832C341.164 158.428 339.28 190.452 338.596 199.664L338.568 199.64ZM413.72 193.832C412.844 195.876 405.02 201.072 386.448 204.084C367.648 207.14 353.912 205.36 350.14 203.316C351.427 185.365 351.629 167.352 350.744 149.376C350.643 148.178 350.656 146.972 350.784 145.776C353.092 126.576 369.184 114.756 384.608 111.484C395.992 109.084 405.764 111.52 408.94 117.572C417.448 133.732 417.788 184.484 413.748 193.856L413.72 193.832ZM475.2 182.552C474.628 183.932 469.476 187.72 457.2 190.604C442.44 194.084 430.5 193.404 426.556 191.948C428.663 176.403 428.874 160.66 427.184 145.064C426.932 142.994 427.044 140.895 427.516 138.864C429.285 132.012 432.902 125.778 437.971 120.84C443.041 115.903 449.368 112.452 456.264 110.864C460.12 110.132 469.62 109.288 474.364 117.396C481.436 129.436 478.692 174.164 475.2 182.552V182.552ZM484.74 111.324C478.776 101.124 467.312 96.5241 454.04 99.0601C441.256 101.807 430.052 109.441 422.816 120.332C422.014 117.458 420.937 114.668 419.6 112C413.8 100.972 399.092 96.1601 382.152 99.7641C367.711 102.755 354.98 111.199 346.608 123.34C344.03 116.048 339.231 109.747 332.886 105.324C326.542 100.901 318.97 98.5772 311.236 98.6801C298.907 98.4857 286.849 102.309 276.885 109.572C266.92 116.835 259.589 127.143 256 138.94C252.43 127.135 245.105 116.817 235.137 109.554C225.169 102.29 213.104 98.4781 200.772 98.6961C193.038 98.5932 185.467 100.917 179.122 105.34C172.777 109.763 167.979 116.064 165.4 123.356C157.029 111.215 144.297 102.771 129.856 99.7801C112.912 96.1801 98.2082 100.98 92.4082 112.016C91.0671 114.678 89.9848 117.463 89.1762 120.332C81.9406 109.441 70.7361 101.807 57.9522 99.0601C44.6962 96.5361 33.2162 101.124 27.2482 111.328C25.9462 113.673 24.9411 116.171 24.2562 118.764C12.1562 86.5801 15.6002 51.4881 34.3602 31.6481C60.2922 4.23212 152.336 20.2241 222.736 50.7521C233.239 55.2881 244.559 57.628 256 57.628C267.441 57.628 278.761 55.2881 289.264 50.7521C359.664 20.2241 451.712 4.23612 477.64 31.6481C496.416 51.4881 499.844 86.5801 487.744 118.764C487.059 116.169 486.053 113.67 484.748 111.324H484.74Z" fill="#714C47"/>
<path d="M489.908 380.8C486.95 375.81 482.71 371.705 477.627 368.911C472.544 366.116 466.805 364.735 461.008 364.912C454.171 365.117 447.442 366.668 441.205 369.474C434.968 372.28 429.344 376.288 424.656 381.268C419.108 371.184 407.48 365.404 392.656 365.404C379.384 365.522 366.487 369.819 355.796 377.684C352.912 379.841 350.324 382.368 348.1 385.2C343.993 378.83 338.303 373.634 331.587 370.12C324.872 366.606 317.359 364.894 309.784 365.152C298.936 365.37 288.318 368.324 278.916 373.74C269.514 379.155 261.632 386.858 256 396.132C250.365 386.86 242.482 379.161 233.079 373.747C223.676 368.334 213.059 365.381 202.212 365.164C194.64 364.906 187.131 366.616 180.418 370.128C173.705 373.64 168.018 378.833 163.912 385.2C161.682 382.362 159.091 379.829 156.204 377.664C145.51 369.797 132.611 365.499 119.336 365.38C104.536 365.38 92.9038 371.156 87.3358 381.248C82.6494 376.266 77.027 372.257 70.7902 369.45C64.5533 366.643 57.8243 365.093 50.9879 364.888C45.1869 364.714 39.4453 366.098 34.3611 368.897C29.2768 371.695 25.0359 375.806 22.0799 380.8C10.8519 399.92 15.6559 451.088 20.1559 461.936C27.5479 479.656 63.4399 483.64 75.4319 483.64C79.8981 483.71 84.356 483.228 88.7038 482.204C106.208 496.048 144.624 496.236 145.08 496.236C151.631 496.418 158.175 495.67 164.516 494.016C168.68 498.027 173.936 500.72 179.624 501.756C193.716 504.282 208.007 505.528 222.324 505.48C228.828 505.48 235.124 505.228 241.036 504.736C246.292 504.316 251.396 502.767 256 500.196C260.602 502.767 265.705 504.317 270.96 504.74C276.884 505.232 283.18 505.484 289.684 505.484C303.979 505.533 318.249 504.29 332.32 501.772C338.045 500.735 343.334 498.025 347.52 493.984C348.731 494.344 350.01 494.663 351.36 494.94C356.475 495.878 361.668 496.321 366.868 496.264C379.104 496.264 408.572 493.504 423.192 482.18C427.573 483.225 432.068 483.717 436.572 483.644C448.572 483.644 484.456 479.644 491.84 461.96C496.344 451.092 501.148 399.924 489.908 380.8V380.8ZM480.76 457.356C475.52 469.916 422.8 477.356 420.12 466.196C419.888 467.064 419.607 467.919 419.28 468.756C414.28 480.276 373.16 487.036 353.76 483.196C348.28 482.076 344.52 480.156 343.8 477.276V477.076C343.053 480.348 341.35 483.324 338.907 485.625C336.464 487.926 333.391 489.447 330.08 489.996C310.902 493.371 291.374 494.312 271.96 492.796C267.68 492.436 260.64 490.716 258.6 486.236C257.2 483.196 254.8 483.196 253.4 486.236C251.36 490.716 244.32 492.436 240.04 492.796C220.626 494.312 201.098 493.371 181.92 489.996C178.609 489.447 175.536 487.926 173.093 485.625C170.65 483.324 168.946 480.348 168.2 477.076V477.276C164.8 490.436 99.1198 483.516 92.7198 468.756C92.3923 467.919 92.1119 467.064 91.8798 466.196C89.1998 477.356 36.4799 469.916 31.2399 457.356C27.4399 448.196 23.9599 401.316 32.4398 386.876C43.8798 367.316 78.8398 378.116 88.9598 405.636C89.0857 406.019 89.3366 406.348 89.6721 406.571C90.0077 406.794 90.4084 406.897 90.81 406.865C91.2116 406.833 91.5906 406.666 91.8862 406.393C92.1818 406.119 92.3768 405.754 92.4398 405.356C93.3163 399.118 95.0949 393.042 97.7198 387.316C104.64 374.156 131.16 374.036 149.04 387.316C157.32 393.476 161.52 404.396 165.08 414.836C165.196 415.201 165.436 415.514 165.759 415.72C166.081 415.927 166.466 416.014 166.846 415.966C167.226 415.919 167.578 415.74 167.84 415.46C168.101 415.181 168.257 414.818 168.28 414.436C168.56 410.516 168.92 406.716 169.32 404.356C176.76 361.356 240.92 372.676 250.84 415.276C251.68 418.796 252.4 422.436 253.04 426.076C253.156 426.777 253.517 427.415 254.059 427.875C254.601 428.335 255.289 428.588 256 428.588C256.711 428.588 257.399 428.335 257.941 427.875C258.483 427.415 258.844 426.777 258.96 426.076C259.6 422.436 260.32 418.796 261.16 415.276C271.08 372.676 335.24 361.356 342.68 404.356C342.88 405.476 343.04 406.956 343.24 408.596V409.036C343.44 410.716 343.6 412.556 343.72 414.436C343.743 414.818 343.898 415.181 344.16 415.46C344.422 415.74 344.773 415.919 345.154 415.966C345.534 416.014 345.918 415.927 346.241 415.72C346.564 415.514 346.804 415.201 346.92 414.836C347.84 412.196 348.76 409.516 349.8 406.916C352.305 399.299 356.858 392.518 362.96 387.316C380.84 374.036 407.36 374.156 414.28 387.316C416.905 393.042 418.683 399.118 419.56 405.356C419.623 405.754 419.818 406.119 420.113 406.393C420.409 406.666 420.788 406.833 421.19 406.865C421.591 406.897 421.992 406.794 422.328 406.571C422.663 406.348 422.914 406.019 423.04 405.636C433.16 378.116 468.12 367.316 479.56 386.876C488.04 401.3 484.56 448.18 480.76 457.34V457.356Z" fill="#714C47"/>
</svg>
