<svg width="683" height="683" viewBox="0 0 683 683" fill="none" xmlns="http://www.w3.org/2000/svg">
<g clip-path="url(#clip0_1353_153)">
<path d="M648.531 0H34.1354C15.2813 0 0 15.2813 0 34.1354V512C0 530.849 15.2813 546.135 34.1354 546.135H250.313V591.646C218.906 591.682 193.458 617.13 193.422 648.531V671.286C193.422 677.573 198.516 682.667 204.802 682.667H477.865C484.151 682.667 489.245 677.573 489.245 671.286V648.531C489.208 617.13 463.76 591.682 432.354 591.646V546.135H537.625C541.521 549.109 546.281 550.724 551.188 550.74C552.255 550.677 553.318 550.536 554.37 550.323L621.229 666.125C625.557 673.729 632.76 679.281 641.219 681.531C644.026 682.281 646.922 682.667 649.828 682.667C655.583 682.661 661.234 681.135 666.203 678.24C681.87 669.083 687.26 649.031 678.297 633.255L627.974 546.135H648.531C667.385 546.135 682.667 530.849 682.667 512V34.1354C682.667 15.2813 667.385 0 648.531 0V0ZM22.7552 34.1354C22.7552 27.849 27.849 22.7552 34.1354 22.7552H648.531C654.818 22.7552 659.911 27.849 659.911 34.1354V432.354H615.536C630.526 387.12 617 337.302 581.193 305.854C545.38 274.411 494.229 267.438 451.313 288.151C454.313 277.896 458.385 267.979 463.464 258.573C466.365 253.089 469.552 247.833 472.724 242.573C479.036 232.76 484.495 222.417 489.026 211.661C504.698 171.646 508.813 116.734 473.318 82.7188C439.578 50.2344 380.224 48.4115 341.333 77.0365C302.453 48.4219 243.099 50.224 209.349 82.6354C173.74 116.693 177.833 171.609 193.536 211.625C198.115 222.484 203.62 232.927 210 242.833C213.141 248.026 216.292 253.214 219.182 258.63C227.464 273.276 232.87 289.375 235.109 306.052C236.875 326.115 240.255 346 245.214 365.521C249.047 379.859 257.068 409.599 283.729 409.599C292.271 409.599 315.016 409.599 329.521 305.495C331.891 288.781 337.74 286.458 341.344 285.891C345.135 286.526 350.755 288.964 353.052 305.438C362.688 374.75 375.807 396.276 384.365 403.807C385.01 413.516 386.854 423.104 389.849 432.354H22.7552V34.1354ZM556.724 524.833L553.995 526.417C553.917 526.417 553.839 526.417 553.755 526.495C553.677 526.573 553.641 526.609 553.573 526.656L551.198 528.031L539.615 508.052C555.396 503.156 569.911 494.875 582.156 483.781L593.531 503.568L556.724 524.833ZM375.578 302.328C371.438 272.625 355.385 264.615 342.651 263.135C342.156 263.135 341.661 263.177 341.172 263.25C340.797 263.193 340.417 263.156 340.036 263.146C327.318 264.557 311.26 272.51 307.042 302.354C298.167 366 286.495 385.094 283.771 386.88C275.26 386.88 270.771 372.818 267.198 359.573C262.568 341.172 259.406 322.438 257.75 303.536C255.203 284.01 248.938 265.151 239.297 247.979C236.224 242.198 232.87 236.599 229.51 231.104C223.797 222.297 218.849 213.016 214.724 203.365C202.307 171.714 197.563 125.417 225.031 99.099C252.495 72.7813 304.208 73.2865 333.63 100.146C333.745 100.25 333.891 100.271 334.016 100.375C334.141 100.479 334.188 100.635 334.323 100.74C334.667 101 368.563 127.625 376.901 156.036C378.318 160.88 382.76 164.214 387.813 164.214C388.896 164.214 389.979 164.057 391.021 163.75C393.917 162.901 396.359 160.932 397.807 158.281C399.255 155.63 399.589 152.516 398.734 149.62C390.578 127.583 377.073 107.927 359.422 92.4219C389.484 73.5938 433.161 75.6302 457.594 99.125C484.969 125.396 480.823 170.198 467.833 203.38C463.76 212.927 458.88 222.104 453.245 230.823C449.833 236.443 446.417 242.073 443.349 247.885C433.698 265.125 427.432 284.047 424.891 303.641L424.651 305.609C407.078 320.953 394.417 341.135 388.245 363.635C382.349 343.583 378.115 323.078 375.578 302.328V302.328ZM454.734 311.943C488.417 292.495 530.505 295.25 561.365 318.922C592.224 342.599 605.781 382.536 595.714 420.104C585.651 457.677 553.943 485.484 515.38 490.563C476.818 495.641 438.99 476.984 419.542 443.302C406.63 421.25 403.089 394.953 409.698 370.271C416.313 345.589 432.531 324.583 454.734 311.943V311.943ZM22.7552 512V455.109H400.109C423.682 496.057 469.443 518.953 516.344 513.26L522.24 523.38H34.1354C27.849 523.38 22.7552 518.281 22.7552 512V512ZM466.49 648.531V659.911H216.177V648.531C216.177 629.682 231.458 614.401 250.313 614.401H432.354C451.208 614.401 466.49 629.682 466.49 648.531V648.531ZM409.599 591.646H273.068V546.135H409.599V591.646ZM654.781 658.594C652.474 659.932 649.719 660.292 647.146 659.583C644.531 658.88 642.307 657.151 640.979 654.792L574.99 540.536L592.578 530.365L658.568 644.62C661.38 649.526 659.682 655.776 654.781 658.594V658.594ZM659.911 512C659.911 518.281 654.818 523.38 648.531 523.38H614.833L611.417 517.505C617.094 510.182 617.839 500.172 613.307 492.089L598.245 466.057C600.833 462.542 603.224 458.891 605.411 455.109H659.911V512Z" fill="#714C47"/>
<path d="M318.578 500.62H364.089C370.375 500.62 375.469 495.526 375.469 489.245C375.469 482.958 370.375 477.865 364.089 477.865H318.578C312.292 477.865 307.198 482.958 307.198 489.245C307.198 495.526 312.292 500.62 318.578 500.62V500.62Z" fill="#714C47"/>
<path d="M136.531 682.667C149.099 682.667 159.286 672.479 159.286 659.911V648.531C159.286 604.547 123.63 568.891 79.6458 568.891C35.6563 568.891 0 604.547 0 648.531V659.911C0 672.479 10.1875 682.667 22.7552 682.667H136.531ZM22.7552 648.531C22.7917 621.51 41.7969 598.224 68.2656 592.781V614.401C68.2656 620.682 73.3594 625.776 79.6458 625.776C85.9271 625.776 91.0208 620.682 91.0208 614.401V592.781C117.49 598.224 136.5 621.51 136.531 648.531V659.911H22.7552V648.531Z" fill="#714C47"/>
<path d="M245.761 97.724C222.787 111.031 211.083 137.682 216.839 163.599C217.948 168.854 222.583 172.615 227.953 172.625C228.75 172.625 229.542 172.542 230.323 172.375C233.271 171.75 235.859 169.979 237.505 167.453C239.151 164.922 239.729 161.844 239.104 158.891C235.479 142.787 242.583 126.167 256.729 117.656C262.115 114.573 264.031 107.74 261.042 102.302C258.047 96.8647 251.25 94.8282 245.761 97.724Z" fill="#714C47"/>
<path d="M56.8907 45.5105C50.6042 45.5105 45.5105 50.6042 45.5105 56.8907V68.2657C45.5105 74.5522 50.6042 79.6459 56.8907 79.6459C63.172 79.6459 68.2657 74.5522 68.2657 68.2657V56.8907C68.2657 50.6042 63.172 45.5105 56.8907 45.5105Z" fill="#714C47"/>
<path d="M56.8907 102.401C50.6042 102.401 45.5105 107.495 45.5105 113.776V182.047C45.5105 188.328 50.6042 193.422 56.8907 193.422C63.172 193.422 68.2657 188.328 68.2657 182.047V113.776C68.2657 107.495 63.172 102.401 56.8907 102.401Z" fill="#714C47"/>
<path d="M443.734 420.979C444.364 420.979 445 420.927 445.62 420.818C451.818 419.781 456 413.917 454.963 407.724C445.792 352.688 496.708 342.188 502.547 341.172C508.693 340.078 512.807 334.234 511.765 328.078C510.729 321.922 504.922 317.755 498.755 318.74C485.234 321.438 472.437 326.969 461.208 334.974C437 352.281 425.656 382.516 432.505 411.479C433.422 416.964 438.172 420.979 443.734 420.979V420.979Z" fill="#714C47"/>
</g>
<defs>
<clipPath id="clip0_1353_153">
<rect width="682.667" height="682.667" fill="white"/>
</clipPath>
</defs>
</svg>
