<svg width="683" height="683" viewBox="0 0 683 683" fill="none" xmlns="http://www.w3.org/2000/svg">
<g clip-path="url(#clip0_702_388)">
<path d="M521.302 364.986C501.701 446.338 428.569 506.77 341.346 506.77C254.125 506.77 180.993 446.336 161.39 364.986" stroke="#714C47" stroke-width="20" stroke-miterlimit="10" stroke-linecap="round" stroke-linejoin="round"/>
<path d="M501.531 228.293C510.105 243.078 516.697 259.161 520.943 276.173" stroke="#714C47" stroke-width="20" stroke-miterlimit="10" stroke-linecap="round" stroke-linejoin="round"/>
<path d="M161.75 276.174C181.871 195.563 254.649 135.853 341.346 135.853C393.449 135.853 440.523 157.418 474.163 192.123" stroke="#714C47" stroke-width="20" stroke-miterlimit="10" stroke-linecap="round" stroke-linejoin="round"/>
<path d="M315.516 589.744L312.158 640.789C311.022 658.073 324.71 672.719 341.998 672.719C359.288 672.719 372.976 658.073 371.838 640.789L363.026 506.771" stroke="#714C47" stroke-width="20" stroke-miterlimit="10" stroke-linecap="round" stroke-linejoin="round"/>
<path d="M320.972 506.77L318.654 542.026" stroke="#714C47" stroke-width="20" stroke-miterlimit="10" stroke-linecap="round" stroke-linejoin="round"/>
<path d="M313.324 623.076H370.674" stroke="#714C47" stroke-width="20" stroke-miterlimit="10" stroke-linejoin="round"/>
<path d="M282.772 393.328V256.403H341.347V393.328" stroke="#714C47" stroke-width="20" stroke-miterlimit="10" stroke-linecap="round" stroke-linejoin="round"/>
<path d="M282.772 324.865H341.347" stroke="#714C47" stroke-width="20" stroke-miterlimit="10" stroke-linecap="round" stroke-linejoin="round"/>
<path d="M399.92 393.328V256.403" stroke="#714C47" stroke-width="20" stroke-miterlimit="10" stroke-linecap="round" stroke-linejoin="round"/>
<path d="M216.143 321.311C216.143 332.328 207.195 341.26 196.158 341.26C185.12 341.26 176.172 332.328 176.172 321.311C176.172 310.294 185.12 301.363 196.158 301.363C207.195 301.363 216.143 310.294 216.143 321.311Z" stroke="#714C47" stroke-width="20" stroke-miterlimit="10" stroke-linecap="round" stroke-linejoin="round"/>
<path d="M361.984 30.0007C361.984 41.0181 353.036 49.9487 341.999 49.9487C330.96 49.9487 322.014 41.0181 322.014 30.0007C322.014 18.9834 330.96 10.0527 341.999 10.0527C353.036 10.0527 361.984 18.9834 361.984 30.0007Z" stroke="#714C47" stroke-width="20" stroke-miterlimit="10" stroke-linecap="round" stroke-linejoin="round"/>
<path d="M176.173 321.311H10.0757" stroke="#714C47" stroke-width="20" stroke-miterlimit="10" stroke-linecap="round" stroke-linejoin="round"/>
<path d="M466.634 321.311C466.634 332.328 475.58 341.26 486.618 341.26C497.656 341.26 506.604 332.328 506.604 321.311C506.604 310.294 497.656 301.363 486.618 301.363C475.58 301.363 466.634 310.294 466.634 321.311Z" stroke="#714C47" stroke-width="20" stroke-miterlimit="10" stroke-linecap="round" stroke-linejoin="round"/>
<path d="M506.604 321.311H672.7" stroke="#714C47" stroke-width="20" stroke-miterlimit="10" stroke-linecap="round" stroke-linejoin="round"/>
<path d="M29.988 568.014C40.984 568.014 49.9 559.05 49.9 547.991C49.9 536.934 40.984 527.97 29.988 527.97C18.9907 527.97 10.0747 536.934 10.0747 547.991C10.0747 559.05 18.9907 568.014 29.988 568.014Z" stroke="#714C47" stroke-width="20" stroke-miterlimit="10" stroke-linejoin="round"/>
<path d="M269.263 492.178L203.032 547.992H49.9004" stroke="#714C47" stroke-width="20" stroke-miterlimit="10" stroke-linejoin="round"/>
<path d="M652.789 568.014C641.792 568.014 632.876 559.05 632.876 547.991C632.876 536.934 641.792 527.97 652.789 527.97C663.787 527.97 672.701 536.934 672.701 547.991C672.701 559.05 663.787 568.014 652.789 568.014Z" stroke="#714C47" stroke-width="20" stroke-miterlimit="10" stroke-linejoin="round"/>
<path d="M413.513 492.178L479.745 547.992H632.875" stroke="#714C47" stroke-width="20" stroke-miterlimit="10" stroke-linejoin="round"/>
<path d="M29.9465 74.6086C40.9425 74.6086 49.8585 83.5726 49.8585 94.6313C49.8585 105.689 40.9425 114.653 29.9465 114.653C18.9492 114.653 10.0332 105.689 10.0332 94.6313C10.0332 83.5726 18.9492 74.6086 29.9465 74.6086Z" stroke="#714C47" stroke-width="20" stroke-miterlimit="10" stroke-linejoin="round"/>
<path d="M269.221 150.445L202.99 94.6306H49.8584" stroke="#714C47" stroke-width="20" stroke-miterlimit="10" stroke-linejoin="round"/>
<path d="M652.747 74.6086C641.75 74.6086 632.835 83.5726 632.835 94.6313C632.835 105.689 641.75 114.653 652.747 114.653C663.744 114.653 672.659 105.689 672.659 94.6313C672.659 83.5726 663.744 74.6086 652.747 74.6086Z" stroke="#714C47" stroke-width="20" stroke-miterlimit="10" stroke-linejoin="round"/>
<path d="M413.473 150.445L479.703 94.6306H632.835" stroke="#714C47" stroke-width="20" stroke-miterlimit="10" stroke-linejoin="round"/>
<path d="M341.999 49.9493V135.853" stroke="#714C47" stroke-width="20" stroke-miterlimit="10" stroke-linejoin="round"/>
</g>
<defs>
<clipPath id="clip0_702_388">
<rect width="682.667" height="682.667" fill="white"/>
</clipPath>
</defs>
</svg>
