<svg width="512" height="512" viewBox="0 0 512 512" fill="none" xmlns="http://www.w3.org/2000/svg">
<path d="M500.364 276.79C500.364 238.701 478.642 205.731 446.991 189.44C447.379 188.664 447.69 187.811 447.767 186.88C449.396 169.503 450.327 154.221 450.327 143.903C450.327 75.6363 393.542 20.0145 323.724 20.0145C291.84 20.0145 258.327 31.4957 231.021 51.6654C203.714 31.4957 170.279 20.0145 138.318 20.0145C68.4993 20.0145 11.7139 75.5588 11.7139 143.903C11.7139 187.268 36.8484 492.141 138.318 492.141C172.761 492.141 184.242 450.56 195.336 410.376C203.869 379.423 212.713 347.384 230.167 347.384H230.71C245.838 348.005 252.509 375.311 259.491 404.247C268.955 443.345 280.824 492.063 323.724 492.063C358.322 492.063 387.879 453.43 411.694 377.251C412.005 376.398 412.005 375.467 412.005 374.536C461.576 369.648 500.364 327.758 500.364 276.79V276.79ZM323.646 476.548C295.176 476.548 285.324 445.052 274.541 400.601C266.085 365.77 258.094 332.878 231.253 331.869C201.076 330.628 190.526 369.105 180.286 406.264C170.744 440.863 160.892 476.625 138.24 476.625C61.7502 476.625 27.1514 221.401 27.1514 143.903C27.1514 84.1697 77.0327 35.5297 138.24 35.5297C166.012 35.5297 196.267 45.9248 220.548 63.3794C221.246 64.3879 222.022 65.3188 223.185 65.9394C223.496 66.0945 256.776 84.8679 267.171 122.647C268.102 126.061 271.205 128.388 274.618 128.388C275.316 128.388 276.014 128.31 276.713 128.078C280.824 126.914 283.307 122.647 282.143 118.536C274.463 90.4533 256.465 71.7576 243.898 61.5951C267.714 45.2267 296.882 35.5297 323.646 35.5297C384.931 35.5297 434.735 84.1697 434.735 143.903C434.735 153.367 433.959 167.331 432.485 183.389C422.865 180.286 412.703 178.502 402.075 178.502C347.772 178.502 303.787 222.487 303.787 276.79C303.787 328.533 343.661 370.735 394.395 374.691C394.395 374.846 394.318 374.924 394.318 375.079C394.318 376.242 394.55 377.328 395.016 378.259C374.225 442.57 349.556 476.548 323.646 476.548V476.548ZM438.613 270.817L392.301 301.459C390.439 302.701 388.267 303.321 386.095 303.321C385.241 303.321 384.465 303.244 383.612 303.088C380.587 302.39 378.027 300.606 376.398 297.968L362.046 274.463C358.788 269.188 360.495 262.206 365.77 258.948C371.122 255.69 378.027 257.396 381.285 262.672L389.508 276.17L426.046 251.966C431.244 248.553 438.225 249.949 441.639 255.147C445.207 260.344 443.811 267.404 438.613 270.817V270.817Z" fill="#714C47"/>
</svg>
