<svg width="512" height="512" viewBox="0 0 512 512" fill="none" xmlns="http://www.w3.org/2000/svg">
<g clip-path="url(#clip0_702_368)">
<path d="M486.4 512H25.6C11.4679 511.985 0.0155197 500.532 0 486.4V145.067C0.0155197 130.935 11.4679 119.482 25.6 119.467H384C388.713 119.467 392.533 123.287 392.533 128C392.533 132.713 388.713 136.533 384 136.533H25.6C20.8897 136.539 17.0728 140.356 17.0667 145.067V486.4C17.0728 491.11 20.8897 494.927 25.6 494.933H486.4C491.11 494.927 494.927 491.11 494.933 486.4V162.133C494.933 157.421 498.754 153.6 503.467 153.6C508.18 153.6 512 157.421 512 162.133V486.4C511.985 500.532 500.532 511.985 486.4 512Z" fill="#714C47"/>
<path d="M256 401.067C190.02 401.067 136.533 347.58 136.533 281.6C136.533 215.62 190.02 162.133 256 162.133C321.979 162.133 375.467 215.62 375.467 281.6C375.392 347.549 321.949 400.992 256 401.067ZM256 179.2C199.446 179.2 153.6 225.046 153.6 281.6C153.6 338.154 199.446 384 256 384C312.554 384 358.4 338.154 358.4 281.6C358.335 225.073 312.527 179.264 256 179.2Z" fill="#714C47"/>
<path d="M469.334 452.267H409.6C404.887 452.267 401.067 448.446 401.067 443.733C401.067 439.02 404.887 435.2 409.6 435.2H469.334C474.046 435.2 477.867 439.02 477.867 443.733C477.867 448.446 474.046 452.267 469.334 452.267Z" fill="#714C47"/>
<path d="M358.4 452.267H42.6666C37.9538 452.267 34.1333 448.446 34.1333 443.733C34.1333 439.02 37.9538 435.2 42.6666 435.2H358.4C363.113 435.2 366.933 439.02 366.933 443.733C366.933 448.446 363.113 452.267 358.4 452.267Z" fill="#714C47"/>
<path d="M384 477.867C365.149 477.867 349.867 462.585 349.867 443.733C349.867 424.882 365.149 409.6 384 409.6C402.851 409.6 418.133 424.882 418.133 443.733C418.112 462.576 402.843 477.845 384 477.867ZM384 426.667C374.574 426.667 366.933 434.308 366.933 443.733C366.933 453.159 374.574 460.8 384 460.8C393.426 460.8 401.067 453.159 401.067 443.733C401.057 434.312 393.422 426.676 384 426.667Z" fill="#714C47"/>
<path d="M221.849 349.871C212.432 349.841 204.811 342.204 204.8 332.787V230.413C204.799 224.405 207.958 218.839 213.117 215.759C218.275 212.678 224.673 212.537 229.962 215.387L323.862 266.596C329.374 269.583 332.804 275.352 332.796 281.621C332.788 287.891 329.344 293.651 323.824 296.625L229.995 347.791C227.495 349.152 224.695 349.866 221.849 349.871V349.871ZM221.866 230.413V332.787L315.691 281.62L221.866 230.413Z" fill="#714C47"/>
<path d="M503.467 136.533C498.754 136.533 494.933 132.713 494.933 128C494.866 66.7613 445.239 17.1344 384 17.0667C379.287 17.0667 375.467 13.2462 375.467 8.53333C375.467 3.8205 379.287 0 384 0C454.659 0.0799447 511.92 57.3407 512 128C512 132.713 508.18 136.533 503.467 136.533Z" fill="#714C47"/>
<path d="M460.8 136.533C456.087 136.533 452.267 132.713 452.267 128C452.224 90.3153 421.685 59.7766 384 59.7333C379.287 59.7333 375.467 55.9128 375.467 51.2C375.467 46.4871 379.287 42.6666 384 42.6666C431.107 42.7188 469.281 80.8933 469.333 128C469.333 132.713 465.513 136.533 460.8 136.533Z" fill="#714C47"/>
<path d="M418.133 136.533C413.421 136.533 409.6 132.713 409.6 128C409.585 113.868 398.132 102.416 384 102.4C379.287 102.4 375.467 98.5795 375.467 93.8667C375.467 89.1539 379.287 85.3334 384 85.3334C407.553 85.3611 426.639 104.447 426.667 128C426.667 132.713 422.846 136.533 418.133 136.533Z" fill="#714C47"/>
</g>
<defs>
<clipPath id="clip0_702_368">
<rect width="512" height="512" fill="white"/>
</clipPath>
</defs>
</svg>
