<svg width="512" height="512" viewBox="0 0 512 512" fill="none" xmlns="http://www.w3.org/2000/svg">
<path d="M452.267 409.6H195.396C191.437 390.144 174.199 375.467 153.6 375.467C133.001 375.467 115.763 390.144 111.804 409.6H59.7333C48.4352 409.6 48.4522 426.667 59.7333 426.667H111.804C115.763 446.123 133.001 460.8 153.6 460.8C174.199 460.8 191.437 446.123 195.396 426.667H452.267C463.565 426.667 463.548 409.6 452.267 409.6ZM153.6 443.733C139.486 443.733 128 432.248 128 418.133C128 404.019 139.486 392.533 153.6 392.533C167.714 392.533 179.2 404.019 179.2 418.133C179.2 432.248 167.714 443.733 153.6 443.733Z" fill="#714C47"/>
<path d="M452.267 247.467H400.196C396.237 228.011 378.999 213.333 358.4 213.333C337.801 213.333 320.563 228.011 316.604 247.467H59.7333C48.4352 247.467 48.4522 264.533 59.7333 264.533H316.604C320.563 283.989 337.801 298.667 358.4 298.667C378.999 298.667 396.237 283.989 400.196 264.533H452.267C463.565 264.533 463.548 247.467 452.267 247.467ZM358.4 281.6C344.286 281.6 332.8 270.114 332.8 256C332.8 241.886 344.286 230.4 358.4 230.4C372.514 230.4 384 241.886 384 256C384 270.114 372.514 281.6 358.4 281.6Z" fill="#714C47"/>
<path d="M59.7333 102.4H197.137C201.097 121.856 218.334 136.534 238.933 136.534C259.533 136.534 276.77 121.856 280.73 102.4H452.267C463.565 102.4 463.548 85.3335 452.267 85.3335H280.73C276.77 65.8775 259.533 51.2002 238.933 51.2002C218.334 51.2002 201.097 65.8775 197.137 85.3335H59.7333C48.4352 85.3335 48.4522 102.4 59.7333 102.4V102.4ZM238.933 68.2669C253.047 68.2669 264.533 79.7527 264.533 93.8669C264.533 107.981 253.047 119.467 238.933 119.467C224.819 119.467 213.333 107.981 213.333 93.8669C213.333 79.7527 224.819 68.2669 238.933 68.2669Z" fill="#714C47"/>
</svg>
