<svg width="481" height="481" viewBox="0 0 481 481" fill="none" xmlns="http://www.w3.org/2000/svg">
<g clip-path="url(#clip0_702_568)">
<path d="M79.8834 38.6528C79.3154 35.2958 76.6864 32.6668 73.3294 32.0988C60.2934 29.9208 50.0794 19.7038 47.9054 6.66684C47.1684 2.31084 43.0394 -0.62416 38.6834 0.11284C35.3264 0.68084 32.6974 3.30984 32.1294 6.66684C29.9554 19.7038 19.7414 29.9218 6.70541 32.0988C2.34941 32.8358 -0.585586 36.9648 0.151414 41.3208C0.719414 44.6778 3.34841 47.3068 6.70541 47.8748C19.7414 50.0528 29.9554 60.2698 32.1294 73.3068C32.8664 77.6628 36.9954 80.5978 41.3514 79.8608C44.7084 79.2928 47.3374 76.6638 47.9054 73.3068C50.0794 60.2698 60.2934 50.0528 73.3294 47.8748C77.6854 47.1388 80.6204 43.0098 79.8834 38.6528ZM40.0174 51.4108C36.8984 46.9718 33.0324 43.1058 28.5934 39.9868C33.0324 36.8678 36.8984 33.0018 40.0174 28.5628C43.1364 33.0018 47.0024 36.8678 51.4414 39.9868C47.0014 43.1068 43.1364 46.9718 40.0174 51.4108Z" fill="#714C47"/>
<path d="M317.825 47.9789C302.351 47.9779 287.039 51.1209 272.817 57.2189C251.862 66.1459 228.172 66.1459 207.217 57.2189C149.249 32.3659 82.1096 59.2109 57.2566 117.179C51.1596 131.401 48.0156 146.713 48.0166 162.187C48.0006 209.3 61.2416 255.467 86.2246 295.411L88.5126 299.083L123.057 451.083C127.6 471.101 147.511 483.646 167.529 479.103C182.255 475.761 193.495 463.843 195.969 448.947L219.969 304.995C221.826 293.918 232.311 286.445 243.388 288.302C251.943 289.737 258.647 296.44 260.081 304.995L284.081 448.939C287.459 469.191 306.614 482.87 326.866 479.493C341.749 477.011 353.655 465.78 357.001 451.067L391.537 299.067L393.825 295.395C418.8 255.454 432.035 209.293 432.017 162.187C432.021 99.1159 380.895 47.9839 317.825 47.9789ZM380.241 286.939L377.233 291.739C376.761 292.5 376.416 293.332 376.209 294.203L341.385 447.499C338.792 458.903 327.445 466.046 316.041 463.453C307.661 461.548 301.264 454.767 299.849 446.291L275.849 302.347C272.545 282.558 253.824 269.193 234.034 272.498C218.731 275.053 206.74 287.044 204.185 302.347L180.185 446.299C178.274 457.832 167.374 465.633 155.841 463.721C147.351 462.314 140.558 455.908 138.657 447.515L103.825 294.211C103.618 293.34 103.273 292.508 102.801 291.747L99.7926 286.947C76.4016 249.539 64.0046 206.306 64.0166 162.187C64.0786 107.978 108.008 64.0489 162.217 63.9869C175.519 63.9729 188.683 66.6729 200.905 71.9229C225.89 82.5829 254.144 82.5829 279.129 71.9229C328.984 50.5609 386.717 73.6579 408.079 123.513C413.316 135.734 416.016 148.891 416.017 162.187C416.027 206.304 403.63 249.533 380.241 286.939Z" fill="#714C47"/>
<path d="M136.017 103.987L134.417 96.147C118.417 99.355 88.0166 116.827 88.0166 159.987H104.017C104.017 119.419 136.257 112.115 137.617 111.819L136.017 103.987Z" fill="#714C47"/>
<path d="M168.017 95.9868H152.017V111.987H168.017V95.9868Z" fill="#714C47"/>
<path d="M479.883 374.653C479.315 371.296 476.686 368.667 473.329 368.099C460.293 365.921 450.079 355.704 447.905 342.667C447.168 338.311 443.039 335.376 438.683 336.113C435.326 336.681 432.697 339.31 432.129 342.667C429.955 355.704 419.741 365.921 406.705 368.099C402.349 368.836 399.414 372.965 400.151 377.321C400.719 380.678 403.348 383.307 406.705 383.875C419.741 386.053 429.955 396.27 432.129 409.307C432.866 413.663 436.995 416.598 441.351 415.861C444.708 415.293 447.337 412.664 447.905 409.307C450.079 396.27 460.293 386.053 473.329 383.875C477.685 383.139 480.62 379.01 479.883 374.653ZM440.017 387.411C436.898 382.972 433.032 379.106 428.593 375.987C433.032 372.868 436.898 369.002 440.017 364.563C443.136 369.002 447.002 372.868 451.441 375.987C447.001 379.107 443.136 382.972 440.017 387.411Z" fill="#714C47"/>
</g>
<defs>
<clipPath id="clip0_702_568">
<rect width="480.034" height="480.034" fill="white"/>
</clipPath>
</defs>
</svg>
