<svg width="512" height="385" viewBox="0 0 512 385" fill="none" xmlns="http://www.w3.org/2000/svg">
<path d="M510.404 205.346L485.026 80.9984C474.794 33.8639 433.171 0.179219 384.939 0H135.595C87.3661 0.175911 45.7449 33.8583 35.5157 80.9899L2.55997 235.187C2.54722 235.392 2.54722 235.597 2.55997 235.802C-5.04801 272.756 4.6711 311.159 28.9417 340.046C53.2123 368.932 89.3662 385.125 127.078 384H465.067C478.312 384.001 490.941 378.405 499.838 368.593C508.735 358.781 513.071 345.666 511.778 332.484C509.479 312.668 495.077 296.383 475.691 291.678C503.297 272.385 516.909 238.612 510.396 205.568C510.387 205.491 510.413 205.423 510.404 205.346V205.346ZM52.2069 84.5483C60.7305 45.2777 95.41 17.2133 135.595 17.0667H384.939C425.101 17.207 459.77 45.2379 468.318 84.48L483.396 158.302C467.821 144.293 447.615 136.54 426.667 136.533H123.733C89.8313 136.427 57.3974 150.358 34.1333 175.019C33.536 175.642 33.041 176.324 32.4266 176.956L52.2069 84.5483ZM426.667 290.133H123.733C115.293 290.122 107.25 286.545 101.589 280.284C95.9282 274.023 93.1761 265.662 94.0117 257.263C96.1452 241.626 109.662 230.073 125.44 230.4H426.667C431.379 230.4 435.2 226.58 435.2 221.867C435.2 217.154 431.379 213.333 426.667 213.333H125.44C100.903 213.073 80.0737 231.26 77.0218 255.607C75.7219 268.798 80.054 281.924 88.9501 291.75C97.8462 301.576 110.479 307.187 123.733 307.2H463.42C479.201 306.875 492.706 318.459 494.788 334.106C495.652 342.521 492.879 350.905 487.168 357.146C481.503 363.368 473.482 366.92 465.067 366.933H127.078C69.298 367.892 20.9424 323.318 17.2032 265.651C15.7603 236.473 26.3356 207.977 46.4649 186.805C66.5941 165.632 94.5193 153.632 123.733 153.6H426.667C464.369 153.6 494.933 184.164 494.933 221.867C494.933 259.569 464.369 290.133 426.667 290.133Z" fill="#714C47"/>
<path d="M75.4689 98.2186C76.0551 98.3443 76.6529 98.4072 77.2524 98.4064C81.2776 98.4018 84.7522 95.5851 85.5895 91.648C90.7058 68.1043 111.502 51.283 135.595 51.2H204.8C209.513 51.2 213.333 47.3795 213.333 42.6666C213.333 37.9538 209.513 34.1333 204.8 34.1333H135.595C103.454 34.2489 75.7147 56.6906 68.8897 88.0981C68.4195 90.3127 68.8486 92.6234 70.0825 94.5215C71.3165 96.4196 73.2541 97.7496 75.4689 98.2186Z" fill="#714C47"/>
<path d="M238.934 51.2C243.647 51.2 247.467 47.3795 247.467 42.6666C247.467 37.9538 243.647 34.1333 238.934 34.1333C234.221 34.1333 230.4 37.9538 230.4 42.6666C230.4 47.3795 234.221 51.2 238.934 51.2Z" fill="#714C47"/>
</svg>
