<svg width="512" height="512" viewBox="0 0 512 512" fill="none" xmlns="http://www.w3.org/2000/svg">
<path d="M286.689 384H314C320.365 384 326.47 381.471 330.97 376.971C335.471 372.47 338 366.365 338 360C338 353.635 335.471 347.53 330.97 343.029C326.47 338.529 320.365 336 314 336H295.01C293.061 336 291.179 336.711 289.718 338C288.256 339.289 287.315 341.067 287.072 343C285.993 351.612 283.979 360.08 281.065 368.255C281.037 368.333 281.011 368.412 280.985 368.491C280.468 369.95 279.905 371.428 279.271 373.001C278.78 374.215 278.594 375.532 278.731 376.835C278.868 378.138 279.322 379.387 280.055 380.473C280.787 381.559 281.775 382.449 282.932 383.064C284.089 383.679 285.379 384 286.689 384ZM301.883 352H314C316.122 352 318.156 352.843 319.657 354.343C321.157 355.843 322 357.878 322 360C322 362.122 321.157 364.157 319.657 365.657C318.156 367.157 316.122 368 314 368H298.007C299.622 362.75 300.916 357.407 301.883 352V352Z" fill="#714C47"/>
<path d="M488 432H432.9L441.475 352H448C450.122 352 452.157 351.157 453.657 349.657C455.157 348.157 456 346.122 456 344V264C456 262.532 455.595 261.092 454.831 259.839C454.067 258.586 452.972 257.567 451.667 256.895L455.189 224H456C458.122 224 460.157 223.157 461.657 221.657C463.157 220.157 464 218.122 464 216V192C463.995 187.758 462.308 183.691 459.308 180.692C456.309 177.692 452.242 176.005 448 176H446.777L441.562 144.713C440.796 140.037 438.39 135.788 434.775 132.725C431.16 129.662 426.573 127.987 421.835 128H328.4C329.328 123.485 331.784 119.429 335.354 116.514C338.925 113.599 343.391 112.005 348 112C354.808 111.98 361.472 110.039 367.227 106.401C372.981 102.762 377.593 97.5744 380.531 91.433C380.995 90.4825 381.265 89.4496 381.327 88.394C381.389 87.3384 381.241 86.281 380.891 85.2829C380.542 84.2849 379.998 83.366 379.291 82.5794C378.585 81.7928 377.729 81.1542 376.774 80.7004C375.819 80.2466 374.783 79.9867 373.727 79.9356C372.671 79.8845 371.615 80.0434 370.62 80.403C369.626 80.7625 368.713 81.3157 367.933 82.0304C367.154 82.7451 366.524 83.6073 366.08 84.567C364.447 87.9805 361.884 90.8642 358.686 92.8866C355.488 94.909 351.784 95.9881 348 96C339.149 96.0116 330.611 99.2794 324.014 105.181C317.417 111.082 313.222 119.205 312.228 128H298.165C293.427 127.987 288.84 129.662 285.225 132.725C281.61 135.787 279.204 140.037 278.438 144.712L273.223 176H272C267.758 176.005 263.691 177.692 260.692 180.692C257.692 183.691 256.005 187.758 256 192V216C256 218.122 256.843 220.157 258.343 221.657C259.843 223.157 261.878 224 264 224H264.812L271.668 288H224V276.844C224.019 256.454 217.983 236.517 206.656 219.562C206.076 218.682 205.328 217.925 204.454 217.335C203.58 216.745 202.599 216.333 201.566 216.124C200.532 215.915 199.468 215.911 198.434 216.115C197.399 216.318 196.415 216.724 195.538 217.308C194.661 217.893 193.908 218.646 193.323 219.522C192.738 220.399 192.331 221.383 192.127 222.417C191.924 223.451 191.926 224.516 192.135 225.549C192.344 226.582 192.755 227.564 193.344 228.438C202.916 242.766 208.016 259.613 208 276.844V288H40C37.8783 288 35.8434 288.843 34.3431 290.343C32.8429 291.843 32 293.878 32 296V328C32.0108 347.812 36.346 367.382 44.7029 385.345C53.0598 403.308 65.2369 419.23 80.384 432H24C21.8783 432 19.8434 432.843 18.3431 434.343C16.8429 435.843 16 437.878 16 440V454C16.0124 465.135 20.4414 475.811 28.3153 483.685C36.1891 491.559 46.8647 495.988 58 496H454C465.135 495.988 475.811 491.559 483.685 483.685C491.559 475.811 495.988 465.135 496 454V440C496 437.878 495.157 435.843 493.657 434.343C492.157 432.843 490.122 432 488 432ZM416.812 432H303.188L301.473 416H314C322.031 416.003 329.969 414.278 337.274 410.943C344.579 407.607 351.081 402.738 356.339 396.667C361.596 390.596 365.485 383.465 367.743 375.758C370 368.051 370.573 359.948 369.422 352H425.387L416.812 432ZM285.382 416L287.097 432H255.6C261.396 427.124 266.775 421.772 271.68 416H285.382ZM294.221 147.342C294.374 146.407 294.855 145.557 295.578 144.945C296.3 144.332 297.218 143.997 298.165 144H421.835C422.782 143.997 423.7 144.332 424.423 144.945C425.146 145.558 425.626 146.408 425.779 147.343L430.556 176H289.444L294.221 147.342ZM272 192H448V208H272L271.993 192H272ZM439.1 224L435.674 256H284.331L280.9 224H439.1ZM286.045 272H440V336H364.6C360.047 326.433 352.879 318.351 343.924 312.688C334.97 307.025 324.595 304.013 314 304H304V296C304 293.878 303.157 291.843 301.657 290.343C300.157 288.843 298.122 288 296 288H287.759L286.045 272ZM48 328V304H288V312C288 314.122 288.843 316.157 290.343 317.657C291.843 319.157 293.878 320 296 320H314C324.609 320 334.783 324.214 342.284 331.716C349.786 339.217 354 349.391 354 360C354 370.609 349.786 380.783 342.284 388.284C334.783 395.786 324.609 400 314 400H267.91C266.711 400 265.528 400.27 264.447 400.789C263.366 401.309 262.416 402.064 261.667 403C252.314 414.692 240.853 424.529 227.878 432H108.14C89.8695 421.469 74.6931 406.313 64.1363 388.057C53.5795 369.802 48.0143 349.088 48 328V328ZM480 454C479.992 460.893 477.251 467.502 472.376 472.376C467.502 477.251 460.893 479.992 454 480H58C51.1067 479.992 44.498 477.251 39.6237 472.376C34.7494 467.502 32.0077 460.893 32 454V448H480V454Z" fill="#714C47"/>
<path d="M160 264C160 266.122 160.843 268.157 162.343 269.657C163.843 271.157 165.878 272 168 272C170.122 272 172.157 271.157 173.657 269.657C175.157 268.157 176 266.122 176 264C175.981 247.032 169.232 230.764 157.234 218.766C145.236 206.768 128.968 200.019 112 200H96C93.8783 200 91.8434 200.843 90.3431 202.343C88.8429 203.843 88 205.878 88 208C88 210.122 88.8429 212.157 90.3431 213.657C91.8434 215.157 93.8783 216 96 216H112C124.726 216.014 136.927 221.076 145.925 230.075C154.924 239.073 159.986 251.274 160 264V264Z" fill="#714C47"/>
<path d="M72 216C74.1217 216 76.1566 215.157 77.6569 213.657C79.1571 212.157 80 210.122 80 208C80 205.878 79.1571 203.843 77.6569 202.343C76.1566 200.843 74.1217 200 72 200C65.637 199.993 59.5367 197.462 55.0373 192.963C50.538 188.463 48.0071 182.363 48 176V168C48.0071 161.637 50.538 155.537 55.0373 151.037C59.5367 146.538 65.637 144.007 72 144H160C162.122 144 164.157 143.157 165.657 141.657C167.157 140.157 168 138.122 168 136C168 133.878 167.157 131.843 165.657 130.343C164.157 128.843 162.122 128 160 128H72C61.395 128.012 51.2278 132.23 43.7289 139.729C36.23 147.228 32.0119 157.395 32 168V176C32.0119 186.605 36.23 196.772 43.7289 204.271C51.2278 211.77 61.395 215.988 72 216V216Z" fill="#714C47"/>
<path d="M184 80C189.846 79.9928 195.494 82.1196 199.883 85.9813C204.272 89.8429 207.101 95.1739 207.838 100.973C208.575 106.773 207.171 112.642 203.887 117.479C200.604 122.316 195.668 125.788 190.006 127.244C188.988 127.506 188.032 127.966 187.192 128.597C186.352 129.228 185.644 130.019 185.11 130.924C184.575 131.829 184.224 132.83 184.077 133.87C183.929 134.911 183.988 135.97 184.25 136.988C184.512 138.006 184.972 138.962 185.603 139.802C186.234 140.642 187.025 141.35 187.93 141.884C188.835 142.419 189.836 142.77 190.876 142.917C191.917 143.065 192.976 143.006 193.994 142.744C203.433 140.321 211.663 134.536 217.138 126.475C222.613 118.414 224.958 108.631 223.731 98.9637C222.504 89.2963 217.79 80.4094 210.474 73.9716C203.159 67.5338 193.745 63.988 184 64C177.637 63.9929 171.537 61.462 167.037 56.9627C162.538 52.4633 160.007 46.363 160 40V24C160 21.8783 159.157 19.8434 157.657 18.3431C156.157 16.8429 154.122 16 152 16C149.878 16 147.843 16.8429 146.343 18.3431C144.843 19.8434 144 21.8783 144 24V40C144.012 50.605 148.23 60.7722 155.729 68.2711C163.228 75.77 173.395 79.9881 184 80V80Z" fill="#714C47"/>
<path d="M312 56H348C351.784 56.0116 355.488 57.0907 358.686 59.1131C361.885 61.1355 364.447 64.0193 366.08 67.433C366.526 68.3894 367.157 69.2481 367.937 69.9595C368.716 70.671 369.629 71.2212 370.622 71.5785C371.615 71.9357 372.669 72.093 373.723 72.0412C374.777 71.9893 375.81 71.7295 376.763 71.2765C377.717 70.8235 378.571 70.1865 379.277 69.4019C379.983 68.6174 380.526 67.701 380.877 66.7055C381.227 65.7099 381.377 64.6549 381.317 63.6012C381.258 62.5475 380.991 61.516 380.531 60.566C377.592 54.4249 372.981 49.2373 367.226 45.5994C361.472 41.9614 354.808 40.0206 348 40H312C307.758 39.995 303.691 38.3076 300.692 35.3082C297.692 32.3087 296.005 28.2419 296 24C296 21.8783 295.157 19.8434 293.657 18.3431C292.157 16.8429 290.122 16 288 16C285.878 16 283.843 16.8429 282.343 18.3431C280.843 19.8434 280 21.8783 280 24C280.01 32.484 283.384 40.6178 289.383 46.6169C295.382 52.616 303.516 55.9905 312 56Z" fill="#714C47"/>
<path d="M112 248V264C112 266.122 112.843 268.157 114.343 269.657C115.843 271.157 117.878 272 120 272C122.122 272 124.157 271.157 125.657 269.657C127.157 268.157 128 266.122 128 264V248C128 245.878 127.157 243.843 125.657 242.343C124.157 240.843 122.122 240 120 240C117.878 240 115.843 240.843 114.343 242.343C112.843 243.843 112 245.878 112 248Z" fill="#714C47"/>
<path d="M344 304H360C362.122 304 364.157 303.157 365.657 301.657C367.157 300.157 368 298.122 368 296C368 293.878 367.157 291.843 365.657 290.343C364.157 288.843 362.122 288 360 288H344C341.878 288 339.843 288.843 338.343 290.343C336.843 291.843 336 293.878 336 296C336 298.122 336.843 300.157 338.343 301.657C339.843 303.157 341.878 304 344 304Z" fill="#714C47"/>
<path d="M392 304H424C426.122 304 428.157 303.157 429.657 301.657C431.157 300.157 432 298.122 432 296C432 293.878 431.157 291.843 429.657 290.343C428.157 288.843 426.122 288 424 288H392C389.878 288 387.843 288.843 386.343 290.343C384.843 291.843 384 293.878 384 296C384 298.122 384.843 300.157 386.343 301.657C387.843 303.157 389.878 304 392 304Z" fill="#714C47"/>
<path d="M88 320H72C69.8783 320 67.8434 320.843 66.3431 322.343C64.8429 323.843 64 325.878 64 328C64 330.122 64.8429 332.157 66.3431 333.657C67.8434 335.157 69.8783 336 72 336H88C90.1217 336 92.1566 335.157 93.6569 333.657C95.1571 332.157 96 330.122 96 328C96 325.878 95.1571 323.843 93.6569 322.343C92.1566 320.843 90.1217 320 88 320Z" fill="#714C47"/>
<path d="M168 320H120C117.878 320 115.843 320.843 114.343 322.343C112.843 323.843 112 325.878 112 328C112 330.122 112.843 332.157 114.343 333.657C115.843 335.157 117.878 336 120 336H168C170.122 336 172.157 335.157 173.657 333.657C175.157 332.157 176 330.122 176 328C176 325.878 175.157 323.843 173.657 322.343C172.157 320.843 170.122 320 168 320Z" fill="#714C47"/>
</svg>
