<svg width="503" height="503" viewBox="0 0 503 503" fill="none" xmlns="http://www.w3.org/2000/svg">
<g clip-path="url(#clip0_702_523)">
<path d="M499.846 162.304C362.8 24.8951 140.311 24.6011 2.90332 161.647C2.68432 161.866 2.46532 162.085 2.24632 162.304C-0.82268 165.482 -0.734679 170.547 2.44332 173.616C5.54332 176.61 10.4583 176.61 13.5583 173.616C144.374 42.4681 356.737 42.1991 487.885 173.015C488.086 173.215 488.286 173.416 488.486 173.616C491.61 176.753 496.685 176.764 499.822 173.64C502.959 170.516 502.969 165.441 499.846 162.304Z" fill="#714C47"/>
<path d="M454.622 207.528C400.762 153.327 327.457 122.927 251.046 123.104C174.635 122.927 101.33 153.327 47.47 207.528C44.401 210.706 44.489 215.771 47.667 218.84C50.767 221.834 55.682 221.834 58.782 218.84C164.78 112.656 336.788 112.505 442.973 218.503C443.086 218.615 443.198 218.728 443.31 218.84C446.488 221.91 451.552 221.822 454.622 218.644C457.616 215.543 457.616 210.628 454.622 207.528Z" fill="#714C47"/>
<path d="M409.35 252.808C367.492 210.617 310.477 186.953 251.046 187.104C191.615 186.953 134.6 210.617 92.7421 252.808C89.6201 255.936 89.6261 261.003 92.7541 264.124C95.8821 267.245 100.949 267.24 104.07 264.112C184.999 182.939 316.409 182.742 397.581 263.671C397.728 263.818 397.875 263.965 398.022 264.112C401.144 267.24 406.21 267.245 409.338 264.124C412.466 261.002 412.471 255.936 409.35 252.808Z" fill="#714C47"/>
<path d="M364.142 298.008C334.221 267.895 293.496 251.005 251.046 251.104C208.596 251.005 167.871 267.895 137.95 298.008C134.88 301.186 134.968 306.25 138.146 309.32C141.246 312.314 146.161 312.314 149.262 309.32C205.369 253.106 296.423 253.02 352.637 309.127C352.701 309.191 352.766 309.255 352.83 309.32C356.008 312.39 361.072 312.302 364.142 309.124C367.136 306.024 367.136 301.108 364.142 298.008Z" fill="#714C47"/>
<path d="M319.12 343.385C319.056 343.319 318.991 343.255 318.925 343.191C300.938 325.168 276.508 315.059 251.045 315.103C225.582 315.059 201.152 325.168 183.165 343.191C179.979 346.252 179.878 351.316 182.939 354.502C186 357.688 191.064 357.789 194.25 354.728C194.316 354.665 194.381 354.6 194.445 354.534C225.711 323.29 276.379 323.29 307.645 354.534C310.724 357.703 315.789 357.775 318.958 354.696C322.127 351.617 322.199 346.554 319.12 343.385Z" fill="#714C47"/>
<path d="M273.685 388.511C273.677 388.503 273.67 388.496 273.662 388.488C261.014 376.385 241.078 376.385 228.43 388.488C215.927 400.978 215.917 421.24 228.407 433.743C240.897 446.246 261.159 446.256 273.662 433.766C286.165 421.275 286.175 401.014 273.685 388.511ZM251.046 427.104C242.209 427.104 235.046 419.941 235.046 411.104C235.046 402.267 242.209 395.104 251.046 395.104C259.883 395.104 267.046 402.267 267.046 411.104C267.046 419.941 259.882 427.104 251.046 427.104Z" fill="#714C47"/>
</g>
<defs>
<clipPath id="clip0_702_523">
<rect width="502.181" height="502.181" fill="white"/>
</clipPath>
</defs>
</svg>
