<svg width="512" height="512" viewBox="0 0 512 512" fill="none" xmlns="http://www.w3.org/2000/svg">
<path d="M121.8 496H390.208C448.536 496 496 448.536 496 390.2C496 353.48 477.416 319.944 446.28 300.488L381.928 260.272C332.904 229.632 300.768 176.944 295.968 119.336C295.624 115.192 292.168 112 288 112H224C219.832 112 216.376 115.192 216.032 119.336C211.224 176.944 179.096 229.632 130.072 260.272L65.72 300.488C34.584 319.952 16 353.488 16 390.2C16 448.536 63.464 496 121.8 496ZM74.2 314.056L138.552 273.84C189.744 241.84 223.992 187.728 231.224 128H280.768C288 187.728 322.248 241.84 373.44 273.84L437.792 314.056C460.128 328.016 474.728 350.552 478.752 376H33.24C37.264 350.552 51.864 328.016 74.2 314.056V314.056ZM479.912 392C478.944 440.68 439.112 480 390.208 480H121.8C72.888 480 33.064 440.68 32.088 392H479.912Z" fill="#714C47"/>
<path d="M232 96V48C232 30.352 217.648 16 200 16C182.352 16 168 30.352 168 48V56H184V48C184 39.176 191.176 32 200 32C208.824 32 216 39.176 216 48V96H232Z" fill="#714C47"/>
<path d="M344 56V48C344 30.352 329.648 16 312 16C294.352 16 280 30.352 280 48V96H296V48C296 39.176 303.176 32 312 32C320.824 32 328 39.176 328 48V56H344Z" fill="#714C47"/>
<path d="M248 16H264V96H248V16Z" fill="#714C47"/>
<path d="M208 456H304C317.232 456 328 445.232 328 432C328 418.768 317.232 408 304 408H208C194.768 408 184 418.768 184 432C184 445.232 194.768 456 208 456ZM208 424H304C308.416 424 312 427.592 312 432C312 436.408 308.416 440 304 440H208C203.584 440 200 436.408 200 432C200 427.592 203.584 424 208 424Z" fill="#714C47"/>
</svg>
