<svg width="320" height="449" viewBox="0 0 320 449" fill="none" xmlns="http://www.w3.org/2000/svg">
<path d="M157.867 3.11473C159.879 1.17171 162.573 0.0965738 165.37 0.120877C168.167 0.14518 170.842 1.26697 172.82 3.24466C174.797 5.22234 175.919 7.89768 175.943 10.6944C175.968 13.4912 174.893 16.1857 172.95 18.1974C169.771 21.4401 94.4003 98.3894 145.835 175.424C152.342 185.195 158.87 194.411 165.142 203.157C190.55 239.061 213.163 270.955 213.163 310.677C213.163 346.176 195.115 387.925 144.896 444.331C142.99 446.337 140.378 447.525 137.613 447.641C134.847 447.758 132.145 446.796 130.076 444.957C128.007 443.118 126.735 440.547 126.526 437.787C126.318 435.027 127.191 432.294 128.96 430.165C224.064 323.307 195.307 282.731 147.712 215.488C141.312 206.507 134.699 197.12 128.064 187.157C67.0936 95.7441 156.992 4.03207 157.867 3.11473V3.11473ZM320 335.381C320 292.715 298.176 252.608 276.779 213.227C266.667 194.645 256.192 175.424 247.894 155.84C235.712 126.976 244.587 100.523 262.827 67.1574C264.19 64.6764 264.513 61.7553 263.722 59.0368C262.932 56.3183 261.095 54.025 258.614 52.6614C256.133 51.2978 253.212 50.9757 250.493 51.7659C247.774 52.556 245.481 54.3937 244.118 56.8747C223.296 94.7841 212.608 127.531 228.16 164.16C236.864 184.704 247.574 204.395 257.92 223.445C296.171 293.568 329.067 354.133 250.454 429.653C249.385 430.609 248.52 431.77 247.91 433.068C247.3 434.366 246.958 435.773 246.904 437.206C246.85 438.638 247.086 440.067 247.597 441.407C248.108 442.746 248.884 443.969 249.878 445.002C250.872 446.035 252.065 446.857 253.384 447.419C254.703 447.981 256.122 448.271 257.555 448.272C258.989 448.273 260.408 447.985 261.728 447.425C263.048 446.865 264.242 446.045 265.238 445.013C281.564 431.62 294.88 414.932 304.317 396.041C313.753 377.149 319.098 356.479 320 335.381V335.381ZM29.3336 444.736C30.3057 445.745 31.467 446.552 32.7511 447.112C34.0352 447.671 35.4169 447.973 36.8175 447.999C38.2181 448.024 39.61 447.774 40.9138 447.262C42.2176 446.75 43.4077 445.986 44.4163 445.013C84.8003 406.187 99.0296 373.333 99.0296 343.147C99.0296 308.48 80.1923 277.589 60.7789 245.739C48.0233 225.834 36.7433 205.021 27.0296 183.467C14.8269 154.688 23.7443 128.192 42.0696 94.7841C43.3552 92.3092 43.6203 89.4292 42.8082 86.7611C41.9961 84.0931 40.1714 81.8493 37.725 80.5103C35.2786 79.1713 32.405 78.8437 29.72 79.5977C27.035 80.3517 24.752 82.1273 23.3603 84.5441C2.56025 122.411 -8.14907 155.157 7.40293 191.787C17.514 214.313 29.3018 236.049 42.6669 256.811C79.7443 317.739 104.32 357.931 29.7176 429.611C28.6955 430.576 27.8744 431.735 27.3015 433.019C26.7287 434.303 26.4154 435.688 26.3797 437.094C26.344 438.499 26.5866 439.898 27.0936 441.21C27.6005 442.521 28.3618 443.72 29.3336 444.736V444.736Z" fill="#714C47"/>
</svg>
