<svg id="Layer_1" enable-background="new 0 0 106 106" height="512" viewBox="0 0 106 106" width="512" xmlns="http://www.w3.org/2000/svg"><g><path d="m63.5 87.06.49-2.87c.04-.22-.02-.44-.16-.61s-.35-.27-.57-.27l-3.04-.01c-.34 0-.62.23-.71.54-3.18-1.84-4.06-6.3-2.97-9.72.34-1.05 1.68-4.34 5.03-3.74l-.04.11c-.16.41-.11.86.13 1.22.25.36.65.58 1.09.58h4.14c.44 0 .84-.22 1.09-.58s.29-.82.13-1.22l-.07-.17c2.98-.19 4.19 2.81 4.51 3.81 1.09 3.42.22 7.88-2.97 9.72-.09-.32-.37-.54-.71-.54l-3.04.01c-.22 0-.43.1-.57.27s-.2.39-.16.61l.49 2.87c.04.22.17.41.36.52.12.07.25.1.38.1.08 0 .17-.01.25-.04l2.87-1c.35-.12.55-.47.49-.83l-.07-.42c4.21-2.05 5.44-7.56 4.11-11.71-1.08-3.39-3.59-5.21-6.52-4.81l-.67-1.7c-.2-.5-.68-.83-1.22-.83-.02-1.03-.11-2.94-.55-5.03 1.01.27 2.05.55 3.08.84.07.02.14.03.21.03.33 0 .63-.21.72-.54.11-.4-.12-.81-.51-.93-1.31-.38-2.64-.73-3.91-1.06-.58-1.96-1.5-3.9-2.98-5.21-1.49-1.32-3.33-1.84-5.49-1.57l-.6-3.25c-.01-.03-.03-.06-.04-.09 3.05-3.35 4.29-8.06 4.79-11.3 4.53-5.74 6.85-17.07 3.07-24.82-1.86-3.86-6.03-8.42-15.15-8.35-7.3.05-12.26 1.48-14.76 4.25-1.14 1.27-1.45 2.5-1.53 3.21-2.75 1.13-4.58 3-5.44 5.57-2.64 7.89 4.84 19.59 5.16 20.09 0 0 0 0 .01.01.5 3.24 1.73 7.96 4.78 11.32-.01.04-.04.07-.04.11l-.55 3.18c-6.86.29-8.98 2.99-9.4 7.08-5.53 1.45-11.82 3.42-13.58 5.26-6.96 7.29-6.12 28.11-6.08 29 .02.4.35.72.75.72h14.18.02s.02 0 .02 0h38.79c.41 0 .75-.34.75-.75s-.34-.75-.75-.75h-38.06v-13.93c0-.41-.34-.75-.75-.75s-.75.34-.75.75v13.91h-12.72c-.08-3.74-.14-21.07 5.69-27.18 1.41-1.48 7-3.27 12.41-4.71 0 .1-.01.19-.01.29v16c-1.79.48-3.12 2.1-3.12 4.04 0 2.32 1.88 4.2 4.2 4.2s4.2-1.88 4.2-4.2c0-2.17-1.66-3.94-3.77-4.16v-15.88c0-.23 0-.45.01-.68 2.74-.7 5.32-1.29 7.16-1.69.07.18.16.36.29.54l9.97 27.25c.11.3.42.48.7.49.31 0 .59-.19.7-.49l10.11-27.21c.13-.17.22-.36.3-.55 1.19.26 3.55.79 6.29 1.48.53 2.21.66 4.37.68 5.45-.54 0-1.02.33-1.22.83l-.71 1.79c-3.14-.71-5.88 1.13-7.03 4.71-1.33 4.16-.1 9.67 4.11 11.71l-.07.42c-.06.36.15.71.49.83l2.87 1c.08.03.16.04.25.04.13 0 .26-.04.38-.1.19-.1.32-.29.36-.51zm3.43-1.12-.19-1.13 1.52-.01.11.63zm-36.8-4.14c0 1.49-1.21 2.7-2.7 2.7s-2.7-1.21-2.7-2.7 1.21-2.7 2.7-2.7 2.7 1.21 2.7 2.7zm4.84-23.94c-1.21.26-3.88.84-6.98 1.62.39-2.76 1.95-4.85 7.59-5.16zm-3.65-33.47v10.17.02c-2.03-3.88-5.09-10.98-3.41-16.01.77-2.29 2.4-3.87 5-4.82.31-.11.51-.43.49-.77 0-.05-.08-1.32 1.21-2.72 1.53-1.65 5.13-3.64 13.61-3.7h.17c6.52 0 11.23 2.59 13.62 7.49 3.09 6.33 1.81 15.23-1.39 20.96.01-.27.01-.44.01-.46v-11.92c0-.68-.33-1.31-.89-1.7-.54-.38-1.24-.48-1.86-.25-1.96.71-4.82 1.13-6.45 1.13-1.67 0-3.3-.49-4.7-1.4-.78-.51-1.82-.41-2.52.24-1.95 1.79-6.33 3.56-10 1.86-.62-.29-1.34-.24-1.93.14-.6.37-.96 1.02-.96 1.74zm1.5 10.17v-10.17c0-.2.1-.39.27-.5.06-.04.16-.09.28-.09.06 0 .13.01.21.05 4.29 1.99 9.39-.04 11.64-2.12.2-.19.48-.22.68-.08 1.65 1.08 3.56 1.65 5.52 1.65 1.76 0 4.85-.45 6.96-1.22.23-.08.41.01.49.07.16.11.25.28.25.48v11.93c0 .72-.17 17.52-13.17 17.52-12.96 0-13.13-16.8-13.13-17.52zm13.17 50.19-8.51-23.27c.35.15.74.29 1.18.42 1.96.59 4.59.91 7.41.91 3.02 0 6.33-.38 8.57-1.32zm9.49-25.55c-.99 1.1-4.4 2.1-9.42 2.1-5.03 0-8.45-1.01-9.43-2.12l-.25-.69 1.34-7.74c2.04 1.7 4.71 2.83 8.25 2.83s6.22-1.13 8.26-2.83l1.44 7.87c0 .01.01.01.01.02zm1.58-1.34-.65-3.52c1.69-.19 3.08.2 4.22 1.22 1.03.92 1.75 2.24 2.26 3.66-2.67-.66-4.88-1.15-5.83-1.36zm7.14 9.98h1.25l1.17 2.95h-3.6zm-2.03 18.1-1.43-.5.11-.63 1.52.01z"/><path d="m78.11 86c0-.01-.01-.02-.01-.03 0-.07-.02-.15-.04-.22 0-.01-.01-.03-.01-.04-.01-.03-.01-.07-.03-.1-.19-.32-.7-.51-1.03-.27-1.69 1.26-2.03 3.31-2.16 5.28-.03.46-.05.93-.07 1.39-.02.39-.05.83-.1 1.13 0 .02-.03.15-.06.25-.02-.02-.04-.05-.05-.05-.35-.39-.61-.86-.84-1.34-.53-1.09-.83-2.3-1.07-3.48-.19-.95-1.64-.55-1.45.4.24 1.2.57 2.38 1.07 3.51.24.55.53 1.07.89 1.55.41.54.88 1.09 1.64 1.01 1.31-.13 1.38-1.64 1.45-2.66.07-.98.07-1.98.21-2.95.04-.3.11-.6.19-.9.04.58.1 1.19.19 1.82.21 2.05.95 4.47 2.1 5.25.31.21.6.28.84.28.13 0 .24-.02.33-.04.46-.11 1.88-.45 2.11-5.53.04-.91.16-1.73.34-2.46.34 1.37.32 2.85.35 4.25.02.76-.16 1.87.46 2.45.64.59 1.6.41 2.21-.13 1.31-1.17 1.95-3.25 2.25-4.92.36-2.04.27-4.1.24-6.17-.02-1.05-.16-2.29.21-3.29.29-.78.69-1.52.96-2.32.37-1.06.69-2.15.93-3.25.38-1.77.75-4.11-.32-5.73-1.5-2.25-4.55-1.24-6.62-.3-1.18-.81-2.51-1.36-3.96-1.43-1.64-.08-3.19.53-4.41 1.61-.72.64.34 1.69 1.05 1.05 1.95-1.73 4.78-1.39 6.74.14.17.13.38.21.58.2.01 0 .03-.01.04-.01.08-.01.15-.02.23-.06.02-.01.04-.01.06-.02 1.05-.5 2.22-1.02 3.41-1.06.68-.02 1.21.12 1.59.61.29.38.44 1.12.46 1.73.03.84-.07 1.67-.22 2.49-.19.97-.45 1.92-.75 2.86-.15.45-.3.9-.47 1.35-.33.86-.81 1.63-.93 2.56-.26 1.9-.02 3.86-.04 5.77-.02 1.64-.18 3.28-.75 4.83-.3.81-.73 1.71-1.38 2.3-.02.02-.04.03-.06.04-.03-.2.01-.62.01-.74-.01-.55-.03-1.1-.04-1.64-.05-1.96-.18-3.95-1.21-5.67-.03-.04-.06-.06-.09-.1-.02-.02-.04-.04-.06-.06-.06-.06-.12-.1-.19-.13-.01-.01-.03-.01-.04-.02-.07.03-.13.01-.2.01-.03 0-.05-.01-.07-.01-.3 0-.56.18-.68.43-.66 1.27-1.04 2.88-1.13 4.79-.15 3.23-.81 4.1-.91 4.14-.37-.13-1.23-1.73-1.49-4.21-.21-1.58-.29-3.07-.21-4 .01-.02.01-.11.01-.14z"/><path d="m85.11 79.18c.88-1.89 1.53-3.88 1.73-5.97.04-.4-.37-.75-.75-.75-.44 0-.71.35-.75.75-.17 1.81-.76 3.57-1.52 5.21-.17.37-.1.81.27 1.03.32.19.85.1 1.02-.27z"/><path d="m96.59 71.52c-5.45-9.3-17.45-12.44-26.75-6.99-.36.21-.48.67-.27 1.03s.67.48 1.03.27c8.59-5.03 19.67-2.13 24.7 6.46 5.03 8.58 2.13 19.66-6.46 24.69s-19.66 2.13-24.68-6.45c-.21-.36-.67-.48-1.03-.27s-.48.67-.27 1.03c3.63 6.2 10.18 9.66 16.9 9.66 3.35 0 6.75-.86 9.84-2.67 9.3-5.47 12.44-17.46 6.99-26.76z"/></g></svg>