<svg id="_x2014_лой_x5F_1" enable-background="new 0 0 5000 5000" height="512" viewBox="0 0 5000 5000" width="512" xmlns="http://www.w3.org/2000/svg"><g fill="rgb(0,0,0)"><g><path d="m1104.967 1690.389c-8.255 0-16.511-3.149-22.81-9.448-43.537-43.536-67.514-101.421-67.514-162.991s23.977-119.455 67.514-162.991c12.598-12.598 33.021-12.598 45.619 0 12.598 12.597 12.598 33.022 0 45.619-31.351 31.352-48.617 73.035-48.617 117.372s17.266 86.021 48.617 117.372c12.598 12.597 12.598 33.021 0 45.619-6.297 6.299-14.553 9.448-22.809 9.448z"/><path d="m2190.313 3628.351c-8.201 0-16.445-.434-24.715-1.31-61.228-6.485-116.265-36.425-154.974-84.305-11.201-13.854-9.05-34.165 4.805-45.365 13.854-11.2 34.165-9.052 45.365 4.805 27.875 34.479 67.508 56.039 111.599 60.709 44.096 4.669 87.361-8.11 121.839-35.985 13.854-11.2 34.165-9.051 45.366 4.805 11.201 13.854 9.05 34.165-4.804 45.365-41.413 33.481-91.964 51.281-144.481 51.281z"/><path d="m1104.967 2279.126c-8.255 0-16.511-3.149-22.81-9.448-43.537-43.536-67.514-101.421-67.514-162.991s23.977-119.455 67.514-162.991c12.598-12.597 33.022-12.597 45.619 0 12.598 12.598 12.598 33.022 0 45.619-31.351 31.351-48.617 73.035-48.617 117.372s17.266 86.021 48.617 117.372c12.598 12.597 12.598 33.021 0 45.619-6.297 6.299-14.553 9.448-22.809 9.448z"/><path d="m1283.72 2877.294c-3.754 0-7.571-.66-11.294-2.053-57.669-21.566-103.488-64.3-129.017-120.328-25.528-56.028-27.71-118.644-6.144-176.313 6.24-16.687 24.826-25.155 41.513-18.915s25.155 24.826 18.915 41.513c-15.53 41.528-13.959 86.619 4.424 126.965 18.383 40.347 51.378 71.119 92.907 86.65 16.687 6.24 25.155 24.826 18.915 41.513-4.848 12.963-17.148 20.968-30.219 20.968z"/><path d="m1685.801 3344.605c-56.555 0-110.446-20.47-153.022-58.396-45.974-40.954-73.248-97.36-76.798-158.828-1.027-17.785 12.559-33.036 30.344-34.063 17.787-1.02 33.037 12.559 34.064 30.345 2.556 44.264 22.197 84.882 55.303 114.373 33.106 29.492 75.713 44.327 119.979 41.77 17.787-1.006 33.037 12.559 34.064 30.345 1.027 17.785-12.559 33.036-30.344 34.063-4.543.262-9.076.391-13.59.391z"/><path d="m3895.009 1690.389c-8.256 0-16.511-3.149-22.81-9.448-12.598-12.597-12.598-33.022 0-45.619 64.719-64.719 64.719-170.024 0-234.744-12.598-12.598-12.598-33.022 0-45.619s33.021-12.597 45.619 0c43.536 43.537 67.513 101.421 67.513 162.991s-23.977 119.455-67.513 162.991c-6.298 6.299-14.553 9.448-22.809 9.448z"/><path d="m2809.663 3628.351c-52.521 0-103.065-17.798-144.48-51.281-13.854-11.2-16.006-31.512-4.805-45.365 11.2-13.855 31.512-16.005 45.365-4.805 71.176 57.543 175.896 46.452 233.438-24.724 11.201-13.854 31.512-16.005 45.365-4.805 13.854 11.2 16.006 31.512 4.805 45.365-38.709 47.88-93.747 77.82-154.974 84.305-8.266.876-16.517 1.31-24.714 1.31z"/><path d="m3895.009 2279.126c-8.256 0-16.511-3.149-22.81-9.448-12.598-12.597-12.598-33.022 0-45.619 64.719-64.719 64.719-170.024 0-234.744-12.598-12.597-12.598-33.022 0-45.619 12.598-12.598 33.021-12.598 45.619 0 43.536 43.537 67.513 101.421 67.513 162.991s-23.977 119.455-67.513 162.991c-6.298 6.299-14.553 9.448-22.809 9.448z"/><path d="m3716.256 2877.294c-13.072 0-25.371-8.003-30.219-20.967-6.24-16.687 2.228-35.273 18.915-41.513 85.728-32.06 129.39-127.887 97.33-213.615-6.24-16.687 2.228-35.273 18.915-41.513 16.687-6.239 35.273 2.229 41.513 18.915 21.566 57.669 19.385 120.285-6.144 176.313-25.528 56.028-71.347 98.762-129.017 120.328-3.721 1.391-7.54 2.052-11.293 2.052z"/><path d="m3314.174 3344.605c-4.518 0-9.043-.13-13.59-.393-17.786-1.027-31.372-16.278-30.345-34.063s16.297-31.355 34.063-30.345c44.265 2.563 86.872-12.277 119.98-41.77 33.106-29.491 52.746-70.109 55.303-114.373 1.027-17.786 16.303-31.355 34.063-30.345 17.786 1.027 31.372 16.278 30.345 34.063-3.55 61.468-30.824 117.874-76.798 158.828-42.572 37.927-96.47 58.398-153.021 58.398z"/></g><path d="m2804.168 3929.309c-114.376 0-223.352-45.038-304.167-124.673-80.815 79.628-189.799 124.673-304.168 124.673-90.874 0-177.873-27.826-251.594-80.47-35.479-25.336-66.871-55.771-93.304-90.459-26.718-35.061-47.835-73.778-62.767-115.074l-16.575-46.075c-37.312 10.256-75.88 15.44-115.045 15.44-58.491 0-115.25-11.463-168.699-34.07-51.61-21.829-97.954-53.072-137.744-92.863-39.79-39.79-71.034-86.133-92.863-137.744-22.607-53.449-34.07-110.208-34.07-168.699 0-19.582 1.314-39.141 3.92-58.468-85.326-16.16-164.815-58.118-226.659-120.188-34.768-34.895-63.094-75.041-84.191-119.324-21.836-45.833-35.335-94.92-40.121-145.897-9.088-96.802 14.338-192.757 66.281-273.891-121.159-79.816-195.069-215.467-195.069-362.04 0-62.372 12.976-122.581 38.566-178.955 19.987-44.03 46.772-83.849 79.843-118.755-33.067-34.899-59.854-74.719-79.841-118.748-25.591-56.376-38.568-116.588-38.568-178.962 0-58.491 11.463-115.25 34.07-168.699 21.829-51.61 53.073-97.954 92.863-137.744 39.791-39.79 86.134-71.034 137.744-92.863 53.45-22.607 110.208-34.07 168.7-34.07 59.019 0 116.289 11.566 170.22 34.377 52.075 22.026 98.836 53.551 138.985 93.7 40.148 40.149 71.674 86.91 93.699 138.985 22.811 53.931 34.377 111.202 34.377 170.22v275.316c0 335.401 103.593 661.861 291.696 919.241 171.803 235.078 392.481 375.422 590.315 375.422s418.512-140.345 590.315-375.422c188.103-257.38 291.695-583.84 291.695-919.241v-275.316c0-59.018 11.566-116.289 34.377-170.22 22.025-52.075 53.551-98.836 93.7-138.985 40.148-40.148 86.909-71.674 138.984-93.7 53.931-22.811 111.201-34.377 170.219-34.377 58.491 0 115.25 11.463 168.7 34.07 51.609 21.83 97.953 53.073 137.744 92.863 39.79 39.79 71.033 86.134 92.862 137.744 22.607 53.449 34.07 110.208 34.07 168.699 0 62.375-12.977 122.587-38.57 178.964-19.985 44.026-46.771 83.843-79.838 118.745 33.067 34.902 59.853 74.72 79.838 118.746 25.594 56.377 38.57 116.589 38.57 178.964 0 146.57-73.913 282.224-195.069 362.041 51.938 81.132 75.37 177.096 66.281 273.891-4.792 51.042-18.318 100.188-40.203 146.07-21.144 44.331-49.531 84.509-84.374 119.418-61.814 61.933-141.192 103.784-226.394 119.922 2.605 19.325 3.92 38.888 3.92 58.468 0 58.491-11.463 115.25-34.07 168.699-21.829 51.611-53.073 97.954-92.862 137.744-39.79 39.791-86.135 71.034-137.744 92.863-53.45 22.607-110.209 34.07-168.7 34.07-39.164 0-77.725-5.184-115.037-15.438l-16.592 46.101c-14.955 41.337-36.076 80.044-62.794 115.096-26.434 34.679-57.825 65.105-93.302 90.434-73.713 52.626-160.702 80.444-251.56 80.444zm-304.186-204.148c9.089 0 18.097 3.828 24.45 11.211 70.219 81.614 172.179 128.422 279.736 128.422 154.872 0 294.309-97.798 346.97-243.358l27.062-75.194c6.021-16.733 24.45-25.434 41.198-19.456 39.717 14.181 81.455 21.371 124.054 21.371 203.391 0 368.861-165.471 368.861-368.861 0-26.334-2.784-52.607-8.277-78.102-.204-.866-.373-1.748-.507-2.644-2.568-17.212 8.973-33.392 26.091-36.524 1.288-.236 2.573-.393 3.85-.472 172.819-19.16 309.884-158.627 326.178-332.167 8.672-92.362-17.441-183.83-73.528-257.618-4.138-5.218-6.647-11.69-6.958-18.595-.552-12.303 5.924-23.858 16.73-29.764 118.591-64.804 192.261-188.924 192.261-323.924 0-103.747-44.025-203.189-120.817-273.012-7.17-6.033-11.489-15.015-11.489-24.684 0-9.542 4.208-18.423 11.209-24.457 76.967-69.835 121.098-169.392 121.098-273.267 0-203.391-165.47-368.861-368.86-368.861-205.544 0-372.766 167.222-372.766 372.766v275.316c0 179.475-28.523 356.66-84.779 526.633-26.284 79.419-58.615 156.792-96.093 229.967-36.421 71.111-77.889 138.639-123.252 200.709-89.174 122.016-193.989 223.182-303.114 292.559-55.406 35.225-111.952 62.395-168.066 80.754-57.917 18.949-115.524 28.558-171.222 28.558-55.697 0-113.305-9.608-171.222-28.558-56.114-18.359-112.66-45.529-168.066-80.754-109.125-69.377-213.939-170.542-303.114-292.559-45.363-62.07-86.831-129.599-123.251-200.709-37.478-73.175-69.809-150.547-96.094-229.967-56.255-169.973-84.779-347.158-84.779-526.633v-275.316c0-205.543-167.222-372.766-372.766-372.766-203.391 0-368.861 165.47-368.861 368.861 0 104.136 44.343 203.922 121.66 273.772 6.77 6.116 10.633 14.812 10.633 23.935s-3.863 17.819-10.632 23.936c-77.318 69.86-121.662 169.647-121.662 273.776 0 134.549 73.179 258.291 191.074 323.272 7.568 3.741 13.497 10.371 16.276 18.61 3.588 10.633 1.363 22.221-5.551 30.708-55.931 73.735-81.954 165.068-73.293 257.309 16.31 173.708 153.824 313.441 326.979 332.255.155.018.311.035.465.055l.712.088c8.997 1.109 17.112 5.954 22.358 13.348 5.246 7.393 7.139 16.651 5.216 25.511-5.572 25.665-8.397 52.128-8.397 78.652 0 203.391 165.47 368.861 368.861 368.861 42.604 0 84.345-7.191 124.064-21.374 16.751-5.982 35.181 2.724 41.201 19.46l27.043 75.177c52.626 145.55 192.073 243.375 346.976 243.375 107.171 0 208.788-46.474 278.981-127.546 1.649-2.057 3.578-3.941 5.775-5.595 5.799-4.363 12.62-6.49 19.394-6.49z"/></g></svg>