<svg id="Layer_1" height="512" viewBox="0 0 512 512" width="512" xmlns="http://www.w3.org/2000/svg"><path d="m417.258 113.357c-13.428-35.594-34.979-53.633-64.043-53.633-18.647 0-40.486 7.816-64.916 23.246-20.558 7.771-44.045 7.771-64.596 0-24.434-15.43-46.271-23.246-64.918-23.246-29.067 0-50.613 18.039-64.045 53.633-.08.215-.152.436-.215.656-14.262 50.447-9 99.598 15.224 142.135l1.196 2.086c3.999 6.941 4.614 8.006 3.381 15.471-12.487 75.758 10.958 134.85 69.728 175.645 6.495 4.457 15.776 3.5 21.29-2.033 3.128-3.152 4.838-7.344 4.813-11.766v-90.771c0-25.275 20.566-45.842 45.846-45.842 25.274 0 45.841 20.566 45.841 45.842v90.723c-.024 4.471 1.682 8.662 4.815 11.805 3.134 3.156 7.473 4.969 11.903 4.969 3.346 0 6.587-1.01 9.422-2.947 58.732-40.773 82.178-99.865 69.688-175.623-1.231-7.465-.62-8.529 3.384-15.471l1.193-2.086c24.224-42.537 29.487-91.688 15.222-142.135-.061-.222-.13-.443-.213-.658zm-29.023 134.807-1.157 2.021c-4.919 8.539-7.393 13.578-5.32 26.143 11.552 70.059-9.049 122.316-62.934 159.715-.147.105-.222.105-.262.105-.152 0-.345-.09-.592-.598v-90.771c0-34.166-27.802-61.967-61.968-61.967-34.175 0-61.975 27.801-61.975 61.967l-.119 91.156c-.128.123-.32.213-.698.141-53.922-37.432-74.52-89.689-62.971-159.748 2.071-12.564-.399-17.611-5.323-26.152l-1.152-2.012c-21.983-38.602-26.758-83.354-13.813-129.432 10.967-28.848 26.942-42.877 48.834-42.877 15.707 0 34.868 7.115 56.955 21.162.444.285.918.523 1.412.711 24.716 9.584 52.984 9.584 77.693 0 .496-.188.969-.426 1.415-.711 22.085-14.047 41.249-21.162 56.954-21.162 21.891 0 37.866 14.029 48.835 42.877 12.944 46.079 8.171 90.831-13.814 129.432zm-78.359-134.068c1.607 4.152-.457 8.828-4.61 10.436-15.882 6.154-32.578 9.23-49.263 9.23-16.694 0-33.383-3.076-49.271-9.23-4.151-1.607-6.214-6.283-4.604-10.436 1.605-4.15 6.276-6.215 10.433-4.602 28.008 10.857 58.864 10.846 86.88 0 4.143-1.613 8.826.451 10.435 4.602zm195.487 69.574c-2.272 13.863-8.868 19.805-14.167 24.57-4.458 4.018-7.684 6.922-9.041 15.201-1.356 8.275.772 12.061 3.717 17.291 3.499 6.215 7.851 13.947 5.579 27.811-2.272 13.863-8.864 19.803-14.163 24.578-2.007 1.805-3.736 3.365-5.165 5.256-1.582 2.109-4.003 3.221-6.448 3.221-1.688 0-3.387-.535-4.844-1.625-3.556-2.686-4.271-7.736-1.587-11.295 2.362-3.135 4.958-5.475 7.252-7.541 4.463-4.021 7.687-6.922 9.04-15.197 1.361-8.281-.771-12.063-3.717-17.289-3.499-6.219-7.851-13.943-5.578-27.818 2.271-13.863 8.868-19.805 14.167-24.576 4.463-4.012 7.687-6.916 9.041-15.193 1.357-8.279-.771-12.061-3.717-17.291-2.084-3.695-4.442-7.885-5.563-13.629-.856-4.369 1.994-8.607 6.367-9.457 4.381-.861 8.604 1.994 9.458 6.363.623 3.186 2.092 5.793 3.79 8.813 3.501 6.207 7.852 13.944 5.579 27.807zm-43.916 79.959c-2.272 13.865-8.864 19.807-14.163 24.578-2.007 1.805-3.738 3.367-5.165 5.26-1.584 2.1-4 3.207-6.444 3.207-1.69 0-3.396-.527-4.848-1.623-3.557-2.674-4.267-7.736-1.587-11.287 2.357-3.137 4.959-5.477 7.248-7.541 4.462-4.02 7.686-6.926 9.043-15.201s-.771-12.059-3.717-17.293c-3.497-6.213-7.854-13.945-5.582-27.809 2.273-13.873 8.868-19.807 14.168-24.576 4.463-4.02 7.687-6.926 9.045-15.203 1.357-8.277-.771-12.059-3.717-17.283-2.079-3.703-4.441-7.893-5.566-13.635-.854-4.365 1.998-8.607 6.366-9.459 4.393-.848 8.613 1.994 9.467 6.365.624 3.193 2.088 5.791 3.786 8.813 3.499 6.217 7.85 13.947 5.577 27.809-2.271 13.871-8.866 19.803-14.166 24.574-4.459 4.021-7.683 6.924-9.045 15.205-1.353 8.275.775 12.057 3.721 17.281 3.498 6.22 7.851 13.949 5.579 27.818zm-408.689 25.049c2.681 3.559 1.968 8.609-1.588 11.295-1.454 1.09-3.156 1.625-4.848 1.625-2.444 0-4.861-1.111-6.445-3.221-1.427-1.891-3.158-3.451-5.163-5.256-5.299-4.775-11.895-10.715-14.166-24.578-2.273-13.863 2.082-21.596 5.581-27.811 2.945-5.23 5.074-9.016 3.719-17.291-1.358-8.279-4.582-11.184-9.044-15.195-5.298-4.771-11.895-10.713-14.166-24.576-2.275-13.863 2.08-21.6 5.577-27.809 1.698-3.02 3.166-5.627 3.789-8.813.857-4.369 5.09-7.225 9.463-6.363 4.371.85 7.221 5.088 6.365 9.457-1.121 5.744-3.483 9.93-5.564 13.629-2.944 5.23-5.072 9.012-3.715 17.291 1.355 8.277 4.581 11.182 9.042 15.193 5.299 4.771 11.895 10.713 14.166 24.576 2.272 13.875-2.08 21.6-5.58 27.818-2.946 5.227-5.076 9.008-3.718 17.289 1.357 8.275 4.582 11.176 9.044 15.197 2.292 2.068 4.89 4.408 7.251 7.543zm30.006-4.914c2.681 3.551 1.969 8.613-1.587 11.287-1.454 1.096-3.157 1.623-4.847 1.623-2.446 0-4.862-1.107-6.447-3.207-1.426-1.893-3.157-3.455-5.163-5.26-5.299-4.771-11.893-10.713-14.166-24.578-2.271-13.869 2.083-21.598 5.579-27.818 2.947-5.225 5.076-9.006 3.719-17.281-1.358-8.281-4.582-11.184-9.043-15.205-5.299-4.771-11.895-10.703-14.167-24.574-2.273-13.861 2.082-21.592 5.577-27.809 1.7-3.021 3.168-5.619 3.792-8.813.854-4.367 5.095-7.217 9.462-6.365 4.37.852 7.221 5.094 6.366 9.459-1.122 5.742-3.483 9.932-5.563 13.635-2.946 5.225-5.075 9.006-3.719 17.283s4.582 11.184 9.041 15.203c5.3 4.77 11.896 10.703 14.168 24.576 2.272 13.863-2.078 21.596-5.578 27.809-2.946 5.234-5.077 9.018-3.719 17.293 1.357 8.275 4.582 11.182 9.045 15.201 2.291 2.064 4.888 4.404 7.25 7.541z"/></svg>