<?xml version="1.0" encoding="UTF-8" standalone="no"?>
<!-- Created with Inkscape (http://www.inkscape.org/) -->

<svg
   version="1.1"
   id="svg2208"
   xml:space="preserve"
   width="682.66669"
   height="682.66669"
   viewBox="0 0 682.66669 682.66669"
   xmlns="http://www.w3.org/2000/svg"
   xmlns:svg="http://www.w3.org/2000/svg"><defs
     id="defs2212"><clipPath
       clipPathUnits="userSpaceOnUse"
       id="clipPath2230"><path
         d="M 0,512 H 512 V 0 H 0 Z"
         id="path2228" /></clipPath></defs><g
     id="g2214"
     transform="matrix(1.3333333,0,0,-1.3333333,0,682.66667)"><g
       id="g2216"
       transform="translate(285.1401,225.3203)"><path
         d="M 0,0 V 62.76 H 49.36"
         style="fill:none;stroke:#000000;stroke-width:15;stroke-linecap:round;stroke-linejoin:round;stroke-miterlimit:10;stroke-dasharray:none;stroke-opacity:1"
         id="path2218" /></g><g
       id="g2220"
       transform="translate(395.6802,206.9805)"><path
         d="M 0,0 V 66.1"
         style="fill:none;stroke:#000000;stroke-width:15;stroke-linecap:round;stroke-linejoin:round;stroke-miterlimit:10;stroke-dasharray:none;stroke-opacity:1"
         id="path2222" /></g><g
       id="g2224"><g
         id="g2226"
         clip-path="url(#clipPath2230)"><g
           id="g2232"
           transform="translate(480.2412,303.083)"><path
             d="m 0,0 h 20.259 c 2.209,0 4,-1.791 4,-4 v -22 c 0,-2.209 -1.791,-4 -4,-4 h -162 c -2.209,0 -4,1.791 -4,4 v 22 c 0,2.209 1.791,4 4,4 h 109.183"
             style="fill:none;stroke:#000000;stroke-width:15;stroke-linecap:round;stroke-linejoin:round;stroke-miterlimit:10;stroke-dasharray:none;stroke-opacity:1"
             id="path2234" /></g><g
           id="g2236"
           transform="translate(285.1401,163.1572)"><path
             d="M 0,0 V -124.657"
             style="fill:none;stroke:#000000;stroke-width:15;stroke-linecap:round;stroke-linejoin:round;stroke-miterlimit:10;stroke-dasharray:none;stroke-opacity:1"
             id="path2238" /></g><g
           id="g2240"
           transform="translate(190.8301,432.8896)"><path
             d="m 0,0 19.81,19.811 c 1.88,1.879 2.93,4.419 2.93,7.069 v 34.73 c 0,5.52 4.48,10 10,10 h 51.57 c 5.53,0 10,-4.48 10,-10 v -266.738"
             style="fill:none;stroke:#000000;stroke-width:15;stroke-linecap:round;stroke-linejoin:round;stroke-miterlimit:10;stroke-dasharray:none;stroke-opacity:1"
             id="path2242" /></g><g
           id="g2244"
           transform="translate(190.0664,391.2207)"><path
             d="m 0,0 -38.818,38.818 c -2.168,2.168 -2.168,5.683 0,7.851 9.547,9.548 25.027,9.548 34.575,0 L 7.851,34.575 C 17.398,25.028 17.398,9.548 7.851,0 5.683,-2.168 2.168,-2.168 0,0 Z"
             style="fill:none;stroke:#000000;stroke-width:15;stroke-linecap:round;stroke-linejoin:round;stroke-miterlimit:10;stroke-dasharray:none;stroke-opacity:1"
             id="path2246" /></g><g
           id="g2248"
           transform="translate(246.5,157.1797)"><path
             d="m 0,0 v -72.6 h -80 v 56.64"
             style="fill:none;stroke:#000000;stroke-width:15;stroke-linecap:round;stroke-linejoin:round;stroke-miterlimit:10;stroke-dasharray:none;stroke-opacity:1"
             id="path2250" /></g><g
           id="g2252"
           transform="translate(284.8101,225.3301)"><path
             d="m 0,0 c 1.583,0 3.326,-0.137 5,-0.42 l 148.88,-25.21 c 16.27,-2.76 27.32,-18.32 24.57,-34.59 -2.721,-16.01 -18.008,-27.334 -34.59,-24.57 L 0.23,-60.46"
             style="fill:none;stroke:#000000;stroke-width:15;stroke-linecap:round;stroke-linejoin:round;stroke-miterlimit:10;stroke-dasharray:none;stroke-opacity:1"
             id="path2254" /></g><g
           id="g2256"
           transform="translate(76.8608,219.5674)"><path
             d="M 0,0 29.519,-54.997"
             style="fill:none;stroke:#000000;stroke-width:15;stroke-linecap:round;stroke-linejoin:round;stroke-miterlimit:10;stroke-dasharray:none;stroke-opacity:1"
             id="path2258" /></g><g
           id="g2260"
           transform="translate(124.8999,193.5098)"><path
             d="m 0,0 -73.25,136.46 c -2.7,5.03 -7.9,7.891 -13.26,7.891 -2.39,0 -4.81,-0.571 -7.05,-1.771 -7.27,-3.899 -10.02,-13.04 -6.12,-20.309 l 36.519,-68.04"
             style="fill:none;stroke:#000000;stroke-width:15;stroke-linecap:round;stroke-linejoin:round;stroke-miterlimit:10;stroke-dasharray:none;stroke-opacity:1"
             id="path2262" /></g><g
           id="g2264"
           transform="translate(290.2993,165.915)"><path
             d="m 0,0 -148.081,-29.547 c -16.181,-3.228 -32.062,7.368 -35.291,23.55 -3.228,16.181 7.369,32.061 23.55,35.29 L -11.741,58.841 C 4.44,62.069 20.321,51.472 23.55,35.291 26.778,19.109 16.181,3.229 0,0 Z"
             style="fill:none;stroke:#000000;stroke-width:15;stroke-linecap:round;stroke-linejoin:round;stroke-miterlimit:10;stroke-dasharray:none;stroke-opacity:1"
             id="path2266" /></g><g
           id="g2268"
           transform="translate(22.5,353.5762)"><path
             d="M 0,0 V 0 C -8.25,0 -15,6.75 -15,14.999 V 55 c 0,8.25 6.75,15 15,15 8.25,0 15,-6.75 15,-15 V 14.999 C 15,6.75 8.25,0 0,0 Z"
             style="fill:none;stroke:#000000;stroke-width:15;stroke-linecap:round;stroke-linejoin:round;stroke-miterlimit:10;stroke-dasharray:none;stroke-opacity:1"
             id="path2270" /></g><g
           id="g2272"
           transform="translate(352.1484,38.5)"><path
             d="m 0,0 h 55.352 v -31 h -240 V 0 h 152.416"
             style="fill:none;stroke:#000000;stroke-width:15;stroke-linecap:round;stroke-linejoin:round;stroke-miterlimit:10;stroke-dasharray:none;stroke-opacity:1"
             id="path2274" /></g><path
           d="m 221.5,38.5 h -30 v 46.076 h 30 z"
           style="fill:none;stroke:#000000;stroke-width:15;stroke-linecap:round;stroke-linejoin:round;stroke-miterlimit:10;stroke-dasharray:none;stroke-opacity:1"
           id="path2276" /><g
           id="g2278"
           transform="translate(24.25,353.5762)"><path
             d="M 0,0 7.795,-17.132"
             style="fill:none;stroke:#000000;stroke-width:15;stroke-linecap:round;stroke-linejoin:round;stroke-miterlimit:10;stroke-dasharray:none;stroke-opacity:1"
             id="path2280" /></g><g
           id="g2282"
           transform="translate(7.5,7.5)"><path
             d="M 0,0 H 497"
             style="fill:none;stroke:#000000;stroke-width:15;stroke-linecap:round;stroke-linejoin:round;stroke-miterlimit:10;stroke-dasharray:none;stroke-opacity:1"
             id="path2284" /></g></g></g></g></svg>
