<svg clip-rule="evenodd" fill-rule="evenodd" height="512" image-rendering="optimizeQuality" shape-rendering="geometricPrecision" text-rendering="geometricPrecision" viewBox="0 0 4335 4335" width="512" xmlns="http://www.w3.org/2000/svg"><g id="Layer_x0020_1"><path d="m2496 3153c-112 0-176-146-209-471s-207-320-239 0c-33 325-97 471-209 471-158 0-252-325-283-516-29-184-20-216-89-412h-803c-76 0-76-115 0-115h763c-192-624 97-1196 740-793 644-403 933 169 741 793h784c75 0 75 115 0 115h-824c-69 197-60 227-90 412-30 191-124 516-282 516zm1781 1182h-1250c-76 0-76-116 0-116h1192v-1192c0-76 116-76 116 0v1250c0 32-26 58-58 58zm-2969 0h-1250c-32 0-58-26-58-58v-1250c0-76 115-76 115 0v1192h1193c76 0 76 116 0 116zm2969-2969c-32 0-58-26-58-58v-1192h-1192c-76 0-76-116 0-116h1250c32 0 58 26 58 58v1250c0 32-26 58-58 58zm-4219 0c-32 0-58-26-58-58v-1250c0-32 26-58 58-58h1250c76 0 76 116 0 116h-1193v1192c0 32-25 58-57 58zm3394 2144h-2569c-32 0-58-26-58-58v-816c0-76 116-76 116 0v758h2453v-758c0-76 115-76 115 0v816c0 32-25 58-57 58zm0-1754c-32 0-58-25-58-57v-758h-2453v758c0 76-116 76-116 0v-816c0-32 26-58 58-58h2569c32 0 57 26 57 58v816c0 32-25 57-57 57zm-706 469h-1157c58 169 54 226 81 394 40 247 132 411 169 418-1 0 61-32 94-366 31-306 159-344 237-345 74 0 202 45 232 345 31 313 87 361 95 366 38-11 128-174 168-418 27-169 23-225 81-394zm-1198-115h1239c149-442 51-1013-478-741 118 53 241 158 241 342 0 76-116 76-116 0 0-239-269-256-301-278-183-128-432-213-564-26-105 150-113 430-21 703z" fill="rgb(0,0,0)"/></g></svg>