<?xml version="1.0" encoding="UTF-8"?>
<svg xmlns="http://www.w3.org/2000/svg" viewBox="0 0 96 96" width="512" height="512"><g id="Veeners"><path d="M89.25,33c6-6.3,8.17-13.2,5.75-18.52-1.43-3.17-4.3-5.52-8.3-6.8-8.2-2.63-20.39-.53-30.32,5.22a16.49,16.49,0,0,1-16.76,0C29.7,7.15,17.52,5.05,9.31,7.68,5.3,9,2.42,11.31,1,14.48-1.43,19.81.74,26.7,6.75,33l-.07.55A6.57,6.57,0,0,0,13.19,41c4.77,0,5.42.18,6.67-.55a3.94,3.94,0,0,0,3.95,3.85h7.64a3.93,3.93,0,0,0,2.09-.61,3.91,3.91,0,0,0,3.85,3.1H45a3.94,3.94,0,0,0,3-1.36,3.94,3.94,0,0,0,3,1.36h7.64a3.92,3.92,0,0,0,3.85-3.1,3.93,3.93,0,0,0,2.09.61h7.64a3.94,3.94,0,0,0,4-3.85,3.92,3.92,0,0,0,2,.55h4.69a6.57,6.57,0,0,0,6.51-7.41ZM9.92,9.58c7.7-2.46,19.23-.43,28.7,5.05a18.72,18.72,0,0,0,18.76,0c9.48-5.49,21-7.52,28.71-5.05,8.51,2.74,11.19,11.11,2.82,20.82l-.39-3a7.21,7.21,0,0,0-14.36.85,7.21,7.21,0,0,0-13.54,2.58A7.2,7.2,0,0,0,48,30.49a7.2,7.2,0,0,0-12.62.35,7.21,7.21,0,0,0-13.54-2.58,7.21,7.21,0,0,0-14.36-.85l-.39,3C-.26,21.87.22,12.69,9.92,9.58Zm8,29.38H13.19a4.57,4.57,0,0,1-4.53-5.15l.8-6.14a5.21,5.21,0,0,1,10.38.67V37A2,2,0,0,1,17.88,39Zm13.57,3.3H23.81A2,2,0,0,1,21.86,40L23,31a5.21,5.21,0,0,1,10.38.68v8.65A2,2,0,0,1,31.45,42.26ZM45,44.75H37.39a2,2,0,0,1-2-2.22l1.18-9.07A5.21,5.21,0,0,1,47,34.13v8.66A2,2,0,0,1,45,44.75Zm13.58,0H51a2,2,0,0,1-2-2V34.13a5.21,5.21,0,0,1,10.38-.67l1.18,9.07A2,2,0,0,1,58.61,44.75Zm13.58-2.49H64.55a2,2,0,0,1-2-2V31.64A5.21,5.21,0,0,1,73,31L74.14,40A2,2,0,0,1,72.19,42.26ZM82.81,39H78.12a2,2,0,0,1-2-2V28.34a5.21,5.21,0,0,1,10.38-.67l.8,6.14A4.57,4.57,0,0,1,82.81,39Z"/><path d="M85.68,53.45c-2.55-.65-2.88-1-3.53-3.53a1,1,0,0,0-1.94,0c-.65,2.55-1,2.88-3.53,3.53a1,1,0,0,0,0,1.94c2.55.65,2.88,1,3.53,3.53a1,1,0,0,0,1.94,0c.65-2.55,1-2.88,3.53-3.53A1,1,0,0,0,85.68,53.45Zm-4.5,2.36a4,4,0,0,0-1.39-1.39A4,4,0,0,0,81.18,53a4,4,0,0,0,1.39,1.39A4,4,0,0,0,81.18,55.81Z"/><path d="M45.61,54.23c-2.55-.65-2.88-1-3.53-3.53a1,1,0,0,0-1.94,0l0,.17A7.21,7.21,0,0,0,27.85,55l-.42,3.25-11.69,6.1a1,1,0,0,0-.5.62L8.84,88.18a1,1,0,0,0,1,1.27H22.6a1,1,0,0,0,1-.83L27,68.2l1-.6a4,4,0,0,0,2.63,1h7.64a4,4,0,0,0,4-4V59.21c.57-2.09,1-2.44,3.4-3A1,1,0,0,0,45.61,54.23ZM17.05,66l10.06-5.26L27,61.86l-7.09,3.71a1,1,0,0,0-.51.65L14.19,87.45H11.11Zm8.5.77a1,1,0,0,0-.46.68l-3.34,20h-5.5l4.94-20.32,13.06-6.81v1.07Zm12.69-.15c-8.26,0-7.83.06-8.37-.16l5.9-3.63a1,1,0,0,0,.48-.85V58.67a1,1,0,0,0-1.46-.88l-5.66,3,.7-5.44A5.21,5.21,0,0,1,39.25,53c-.48.62-1.21.89-2.64,1.26a1,1,0,0,0,0,1.94c2.55.65,2.88,1,3.53,3.53.11.42.07-1.05.07,4.92A2,2,0,0,1,38.24,66.59Zm2.87-10a3.94,3.94,0,0,0-1.39-1.39,4,4,0,0,0,1.39-1.4,4,4,0,0,0,1.39,1.4A3.94,3.94,0,0,0,41.11,56.59Z"/><path d="M10.91,54.25a1,1,0,0,0,1.94,0c.65-2.55,1-2.88,3.53-3.53a1,1,0,0,0,0-1.93c-2.55-.66-2.88-1-3.53-3.54a1,1,0,0,0-1.94,0c-.65,2.56-1,2.89-3.53,3.54a1,1,0,0,0,0,1.93C9.93,51.37,10.26,51.7,10.91,54.25Zm1-5.89a3.78,3.78,0,0,0,1.39,1.39,3.89,3.89,0,0,0-1.39,1.4,3.91,3.91,0,0,0-1.4-1.4A3.81,3.81,0,0,0,11.88,48.36Z"/></g></svg>
