<svg height="512" viewBox="0 0 48 48" width="512" xmlns="http://www.w3.org/2000/svg"><path d="m47 6h-46a1 1 0 0 0 -1 1v30a1 1 0 0 0 1 1h11v2h-1v2h26v-2h-1v-2h11a1 1 0 0 0 1-1v-30a1 1 0 0 0 -1-1zm-13 34h-20v-2h20zm12-4h-44v-3h44zm0-5h-44v-23h44z"/><path d="m15.69 21.33a5.18 5.18 0 0 1 1.89 3.94v2.25a2.82 2.82 0 0 0 5.63.26l.42-4.6a.37.37 0 0 1 .74 0l.42 4.6a2.82 2.82 0 0 0 5.63-.26v-2.25a5.18 5.18 0 0 1 1.89-3.94 6.42 6.42 0 1 0 -8.31-9.8 6.42 6.42 0 1 0 -8.31 9.8zm-.21-5.7a4.42 4.42 0 0 1 7.75-2 1 1 0 0 0 1.54 0 4.42 4.42 0 1 1 6.23 6.17 7.18 7.18 0 0 0 -2.6 5.47v2.25a.82.82 0 0 1 -1.64.08l-.4-4.6a2.37 2.37 0 0 0 -4.72 0l-.42 4.6a.82.82 0 0 1 -1.64-.08v-2.25a7.18 7.18 0 0 0 -2.58-5.47 4.43 4.43 0 0 1 -1.52-4.17z"/><path d="m28.54 14.47-1.41-1.42a4.42 4.42 0 0 1 -6.26 0l-1.41 1.42a6.42 6.42 0 0 0 9.08 0z"/></svg>