<svg id="svg4593" height="512" viewBox="0 0 16.933333 16.933334" width="512" xmlns="http://www.w3.org/2000/svg" xmlns:svg="http://www.w3.org/2000/svg"><clipPath id="clipPath5337"><path id="rect5339" d="m34.774 274.321h35.435v25.702h-35.435z"/></clipPath><clipPath id="clipPath4542"><path id="rect4544" d="m-535.214-48.848h501.574v185.586h-501.574z"/></clipPath><clipPath id="clipPath11017"><path id="rect11019" d="m36.669 153.503h29.654v28.999h-29.654z" transform="rotate(-90)" vector-effect="none"/></clipPath><clipPath id="clipPath11444"><path id="rect11446" d="m-143.933 265.779h28.84v29.104h-28.84z" transform="rotate(-90)" vector-effect="none"/></clipPath><clipPath id="clipPath11781"><rect id="rect11783" height="32.411" rx=".634" transform="rotate(-90)" width="32.941" x="-145.124" y="181.377"/></clipPath><clipPath id="clipPath11499"><path id="rect11501" d="m-551.399-9.261h16.064v16.347h-16.064z" vector-effect="none"/></clipPath><g id="layer1" transform="translate(0 -280.067)"><path id="path4163" d="m6.875 1c-3.2374497 0-5.875 2.6375701-5.875 5.875v28.5625c0 3.237468 2.6375502 5.875 5.875 5.875h.4550781v3.298828c0 4.26606 4.8288479 4.532373 6.9785159 2.007813l4.591797-5.306641h27.136718c3.237449 0 5.875-2.637532 5.875-5.875v-28.5625c0-3.2374299-2.637551-5.875-5.875-5.875zm0 2h39.162109c2.164041 0 3.875 1.7109559 3.875 3.875v28.5625c0 2.164044-1.710959 3.875-3.875 3.875h-27.59375c-.290174.000123-.565989.126271-.755859.345703l-4.908203 5.673828c-1.304205 1.442586-3.4492209 1.525482-3.4492209-.718748v-4.298828c.00102-.553024-.4469746-1.001899-1-1.001953h-1.4550761c-2.1640392-.000002-3.875-1.710958-3.875-3.875002v-28.5625c0-2.1640441 1.7109608-3.875 3.875-3.875zm13.521484 5.6582031c-2.78302 0-5.165322 1.5611839-6.304687 4.1328129-1.139366 2.571628-1.131148 6.066118.332031 10.144531 1.447237 4.033927 2.211088 6.519288 3.011719 8.164062.776012 1.660053 1.899079 2.552735 3.550781 2.552735 2.502773 0 3.341321-2.176174 3.875-4.228516.419902-1.337736-1.649784-1.875018-1.933594-.501953-.280403 1.492362-.877262 2.730469-1.941406 2.730469-1.026461.000181-1.4575-.723977-1.75-1.423828-.662634-1.361273-1.470863-3.906414-2.929687-7.972657-1.340438-3.736289-1.245922-6.716458-.384766-8.660156.860163-1.94143 2.389668-2.935194 4.466797-2.9375 1.569016.0189 1.98018.530715 2.65039 1.298828.09917.113647.211598.242885.31836.367188-.265582.0084-.55247.02116-.679688.002-1.412728-.119555-1.629018 1.972656-.162339 1.972656 2.162614.10815 4.700014-.05742 6.119371-1.085941.545102-.40475.905125-.871822 1.240234-1.25586.667975-.765543 1.086522-1.2683 2.642578-1.291015 2.074755.0038 3.613148.989731 4.472656 2.929687.861153 1.943698.949812 4.923867-.390625 8.660156-1.458824 4.066243-2.261194 6.611384-2.923828 7.972657-.405205.884419-.881547 1.423828-1.75 1.423828-1.468087 0-1.686552-1.750848-1.984375-2.908203-.435039-1.97686-1.290874-4.421875-3.484375-4.421875-1.363604-.03061-1.363604 2.030615 0 2 1.175478.07874 1.269107 1.845588 1.542969 2.916015.494073 2.159317 1.754537 4.367949 3.925781 4.414063 1.801233 0 2.854295-1.149249 3.544922-2.552735.800631-1.644774 1.564481-4.130135 3.011719-8.164062 1.463176-4.078413 1.471392-7.572903.332031-10.144531-1.13936-2.571629-3.521653-4.1328129-6.304687-4.1328129-1.748188 0-3.129593.8467777-4.140612 1.9863279-.580042.663793-1.172061 1.269531-1.91211 1.269531-.933003-.02958-1.405439-.700262-1.912109-1.269531-.741242-.8494864-1.988557-1.9597578-4.134766-1.9863279-.0046-.0000312-.0091-.0000312-.01367 0zm34.177735 7.0937499c-1.250742 0-1.154627 1.986301.103515 1.994141h2.451172c2.164044 0 3.875 1.710956 3.875 3.875v28.568359c0 2.164044-1.710967 3.875-3.875 3.875h-1.455078c-.552264-.0021-1.001698.443831-1.003906.996094v4.296875c0 2.283575-2.470181 1.984236-3.447261.72266l-4.908208-5.677738c-.190505-.21674-.465344-.340631-.753906-.339844h-27.59375c-2.164032 0-3.875-1.710956-3.875-3.875.03023-1.363231-2.030234-1.363231-2 0 0 3.237468 2.637542 5.876953 5.875 5.876953h27.136719l4.591796 5.298828c2.628383 2.869071 6.97461 1.637965 6.97461-2.007812v-3.291016h.458984c3.23746 0 5.875-2.639485 5.875-5.876953v-28.568359c0-3.23743-2.637551-5.867188-5.875-5.867188-.846315-.000015-1.716924 0-2.554687 0z" fill="#00003a" transform="matrix(.265 0 0 .265 0 280.067)" font-variant-ligatures="normal" font-variant-position="normal" font-variant-caps="normal" font-variant-numeric="normal" font-variant-alternates="normal" font-feature-settings="normal" text-indent="0" text-align="start" text-decoration-line="none" text-decoration-style="solid" text-decoration-color="#000000" text-transform="none" text-orientation="mixed" white-space="normal" shape-padding="0" isolation="auto" mix-blend-mode="normal" solid-color="#000000" solid-opacity="1" vector-effect="none"/></g></svg>