<svg id="Capa_1" enable-background="new 0 0 512.001 512.001" height="512" viewBox="0 0 512.001 512.001" width="512" xmlns="http://www.w3.org/2000/svg"><g><path d="m281.721 335.995c-14.957 2.703-30.773 1.725-45.629-3.214-3.933-1.307-8.177.82-9.484 4.751s.82 8.177 4.751 9.484c17.141 5.699 35.495 6.91 53.029 3.74 4.076-.737 6.783-4.639 6.046-8.715-.735-4.075-4.631-6.783-8.713-6.046z"/><path d="m385.608 350.756c17.482 3.159 35.836 1.975 53.029-3.74 3.931-1.307 6.058-5.553 4.751-9.484s-5.553-6.058-9.484-4.751c-14.863 4.942-30.676 5.916-45.629 3.214-4.075-.737-7.979 1.971-8.715 6.047s1.972 7.978 6.048 8.714z"/><path d="m511.973 242.809c-.11-4.941-.567-9.906-1.357-14.754-.673-4.152-4.217-7.166-8.427-7.166h-10.966c-1.776-5.223-3.476-10.425-5.058-15.505-1.232-3.955-5.434-6.163-9.391-4.932-3.955 1.231-6.163 5.436-4.932 9.391 1.128 3.625 2.318 7.311 3.547 11.02-9.698-.141-19.378-2.476-28.051-6.813-18.027-9.014-30.478-25.459-34.45-44.626 17.725 2.998 35.455-6.235 43.302-22.308 1.733 9.399 3.775 18.912 6.107 28.45.98 4.01 5.026 6.49 9.067 5.505 4.024-.984 6.489-5.043 5.504-9.067-3.934-16.093-7.014-32.097-9.152-47.568l-1.04-7.518c-.006-.042-.021-.081-.028-.123-.017-.107-.026-.213-.047-.32l-7.964-39.823c-.054-.27-.124-.533-.205-.789-.024-.268-.061-.537-.115-.804l-3.9-19.502c-1.639-8.193-8.893-14.139-17.248-14.139h-99.066l-11.208-11.208c-1.672-1.675-3.897-2.598-6.264-2.598h-19.552v-18.7c0-4.914-3.997-8.911-8.911-8.911h-25.616c-2.352 0-4.652.955-6.3 2.609l-11.196 11.196h-153.684c-4.143 0-7.5 3.358-7.5 7.5s3.358 7.5 7.5 7.5h121.682v67.833h-202.053v-67.833h45.37c4.143 0 7.5-3.358 7.5-7.5s-3.358-7.5-7.5-7.5h-51.654c-4.807 0-8.717 3.91-8.717 8.717v80.4c0 4.806 3.91 8.717 8.717 8.717h240.342l11.185 11.186c1.659 1.665 3.959 2.62 6.311 2.62h25.616c4.913 0 8.911-3.998 8.911-8.911v-18.7h19.552c2.367 0 4.592-.922 6.258-2.593l11.214-11.213h106.711l6.659 33.298-7.778 20.909c-4.45 11.966-17.167 18.907-29.567 16.156-.86-.191-1.735-.349-2.605-.52v-7.262c0-2.275-.932-4.496-2.556-6.091-1.623-1.595-3.858-2.469-6.131-2.446-15.436.276-30.284 3.765-44.135 10.369-15.122 7.211-32.299 7.262-47.124.138-15.352-7.377-31.841-10.909-49.021-10.493-27.556.665-53.538 11.861-73.161 31.527-19.624 19.665-30.766 45.671-31.374 73.228-.521 23.649 6.511 46.228 20.339 65.297 19.291 26.6 29.487 57.308 29.487 88.803v21.707c0 4.142 3.358 7.5 7.5 7.5 4.143 0 7.5-3.358 7.5-7.5v-21.707c0-34.679-11.185-68.432-32.345-97.61-11.887-16.394-17.934-35.813-17.485-56.159 1.09-49.328 40.579-88.899 89.9-90.089 14.795-.363 28.968 2.677 42.164 9.017 18.937 9.099 40.836 9.057 60.077-.119 9.923-4.732 20.447-7.602 31.365-8.564 0 2.952-.024 4.197.13 7.074.005.133.009.265.021.397 1.673 28.476 18.185 53.692 43.954 66.576 11.022 5.511 23.36 8.424 35.683 8.424h20.213c.245 2.411.396 4.836.45 7.255.455 20.353-5.589 39.779-17.479 56.179-21.164 29.191-32.351 62.957-32.351 97.646v78.523c0 11.859-9.648 21.507-21.508 21.507-20.106 0-37.708-14.281-41.85-33.957l-22.424-106.512c-2.324-11.045-12.204-19.061-23.491-19.061h-5.75c-11.286 0-21.166 8.016-23.491 19.061l-22.424 106.513c-4.142 19.676-21.744 33.957-41.851 33.957-11.86 0-21.508-9.648-21.508-21.508v-21.842c0-4.142-3.358-7.5-7.5-7.5-4.143 0-7.5 3.358-7.5 7.5v21.842c0 20.131 16.378 36.508 36.508 36.508 27.16 0 50.934-19.29 56.529-45.868l22.424-106.512c.873-4.143 4.579-7.151 8.813-7.151h5.75c4.235 0 7.941 3.007 8.813 7.15l22.424 106.513c5.595 26.579 29.368 45.868 56.528 45.868 20.131 0 36.508-16.377 36.508-36.508v-78.522c0-31.507 10.2-62.228 29.495-88.841 13.83-19.076 20.86-41.663 20.331-65.32zm-279.918-214.003h12.61v67.833h-12.61zm54.027 81.639h-17.004l-9.412-9.412v-76.62l9.412-9.412h17.004zm49.476-41.417c-2.367 0-4.592.922-6.258 2.593l-11.214 11.213h-17.004v-12.611h6.306c4.143 0 7.5-3.358 7.5-7.5s-3.358-7.5-7.5-7.5h-6.306v-12.61h17.004l11.208 11.208c1.672 1.675 3.897 2.598 6.264 2.598h19.552v12.61h-19.552zm34.552 0v-12.61h67.062c1.23 0 2.297.875 2.538 2.08l2.106 10.53z"/><path d="m186.972 56.418c4.143 0 7.5-3.358 7.5-7.5s-3.358-7.5-7.5-7.5h-41.416c-4.143 0-7.5 3.358-7.5 7.5s3.358 7.5 7.5 7.5z"/><path d="m27.611 76.528c0 4.142 3.358 7.5 7.5 7.5h151.86c4.143 0 7.5-3.358 7.5-7.5s-3.358-7.5-7.5-7.5h-151.859c-4.143 0-7.501 3.358-7.501 7.5z"/><path d="m370.59 173.365c-11.475 5.471-23.874 8.095-35.733 8.095-12.169 0-24.353-2.764-35.235-7.992-3.735-1.794-8.214-.222-10.008 3.512s-.222 8.215 3.512 10.009c12.896 6.197 27.326 9.472 41.731 9.472 14.465 0 29.054-3.292 42.188-9.555 3.739-1.783 5.325-6.26 3.542-9.998-1.783-3.74-6.261-5.327-9.997-3.543z"/></g></svg>