<svg enable-background="new 0 0 256 256" viewBox="0 0 256 256" xmlns="http://www.w3.org/2000/svg"><g id="_x32_4_clean_teeth"><g><path d="m213.825 102.016c-20.149 0-36.548-16.399-36.548-36.548 0-1.506-1.259-2.738-2.765-2.738-1.533 0-2.738 1.232-2.738 2.738 0 5.311-1.177 10.348-3.23 14.92-6.735-2.902-14.126-4.572-21.901-4.572-12.374 0-24.447 4.189-34.248 11.799-9.801-7.611-21.874-11.799-34.276-11.799-30.689 0-55.684 24.968-55.684 55.657 0 18.178 19.328 63.076 35.562 97.543 7.337 15.605 29.813 14.783 36-1.424 6.954-18.233 13.113-32.496 18.397-42.571 5.256 10.075 11.416 24.338 18.37 42.543 6.16 16.152 28.636 17.11 36 1.423 16.234-34.44 35.562-79.337 35.562-97.515 0-7.227-1.451-14.126-3.969-20.478 4.709-2.19 9.938-3.477 15.468-3.477 1.506 0 2.738-1.232 2.738-2.738v-.027c0-1.504-1.232-2.736-2.738-2.736zm-52.015 124.645c-5.229 11.142-21.463 10.732-25.926-1.04-8.104-21.299-15.221-37.314-21.107-47.663-1.04-1.834-3.696-1.834-4.763 0-5.913 10.348-13.004 26.391-21.135 47.663-4.408 11.608-20.587 12.402-25.926 1.04-22.586-47.991-35.042-81.801-35.042-95.188 0-27.678 22.531-50.181 50.209-50.181 11.854 0 23.407 4.243 32.496 11.936 1.04.876 2.519.876 3.559 0 9.089-7.693 20.614-11.936 32.469-11.936 6.844 0 13.332 1.424 19.273 3.915-6.516 10.102-17.822 16.809-30.716 16.809-1.506 0-2.738 1.259-2.738 2.765s1.232 2.738 2.738 2.738c20.177 0 36.575 16.399 36.575 36.575 0 1.506 1.232 2.738 2.765 2.738 1.506 0 2.738-1.232 2.738-2.738 0-12.648 6.433-23.79 16.207-30.361 2.108 5.53 3.367 11.471 3.367 17.74-.001 13.387-12.457 47.197-35.043 95.188z"/><path d="m233.564 47.208c0 1.506-1.232 2.738-2.738 2.738-10.513 0-19.082 8.569-19.082 19.081 0 1.506-1.232 2.738-2.738 2.738s-2.765-1.232-2.765-2.738c0-10.513-8.541-19.081-19.054-19.081-1.533 0-2.738-1.232-2.738-2.738s1.205-2.738 2.738-2.738c10.513 0 19.054-8.569 19.054-19.082 0-1.506 1.232-2.738 2.738-2.738 1.533 0 2.765 1.232 2.765 2.738 0 10.513 8.569 19.082 19.082 19.082 1.506 0 2.738 1.232 2.738 2.738z"/><path d="m170.653 40.309c0 1.506-1.232 2.738-2.738 2.738-10.513 0-19.081 8.569-19.081 19.081 0 1.506-1.232 2.738-2.738 2.738s-2.738-1.232-2.738-2.738c0-10.513-8.569-19.081-19.082-19.081-1.506 0-2.738-1.232-2.738-2.738s1.232-2.738 2.738-2.738c10.513 0 19.082-8.569 19.082-19.082 0-1.506 1.232-2.738 2.738-2.738s2.738 1.232 2.738 2.738c0 10.513 8.569 19.082 19.081 19.082 1.506 0 2.738 1.205 2.738 2.738z"/></g></g><g id="Layer_1"/></svg>