<svg id="Layer_3" enable-background="new 0 0 64 64" height="512" viewBox="0 0 64 64" width="512" xmlns="http://www.w3.org/2000/svg"><g><path d="m56.257 3.267c-1.879-1.462-4.225-2.267-6.605-2.267h-3.652c-2.438 0-4.824.563-7 1.623v-.623c0-.552-.447-1-1-1h-36c-.553 0-1 .448-1 1v60c0 .552.447 1 1 1h36c.553 0 1-.448 1-1v-25.554c1.112.524 1.997 1.472 2.428 2.655 1.707 4.693 2.572 9.607 2.572 14.604v4.659c0 2.556 2.08 4.636 4.637 4.636 1.83 0 3.493-1.081 4.237-2.753 2.074-4.669 3.126-9.625 3.126-14.732v-2.568c0-4.367 1.163-8.669 3.364-12.442 2.378-4.08 3.636-8.731 3.636-13.451 0-5.43-2.458-10.455-6.743-13.787zm-19.257 57.733h-34v-58h34zm20.636-31.504c-2.378 4.079-3.636 8.73-3.636 13.45v2.568c0 4.825-.994 9.508-2.954 13.919-.423.952-1.368 1.567-2.409 1.567-1.454 0-2.637-1.183-2.637-2.637v-4.659c0-5.23-.906-10.374-2.693-15.287-.719-1.975-2.329-3.49-4.307-4.11v-29.422c2.129-1.23 4.534-1.885 7-1.885h3.652c1.938 0 3.847.655 5.376 1.845 3.795 2.951 5.972 7.401 5.972 12.209 0 4.366-1.163 8.669-3.364 12.442z"/><path d="m6 59h28c.553 0 1-.448 1-1v-52c0-.552-.447-1-1-1h-28c-.553 0-1 .448-1 1v52c0 .552.447 1 1 1zm24-2v-3.295c0-4.997.865-9.91 2.572-14.603.11-.302.26-.585.428-.856v18.754zm-3.043-24.542 2.75-2.75c.109-.11.192-.244.241-.391l1-3-1.896-.633-.926 2.776-1.126 1.126v-2.309l2.857-4.762c.176-.293.189-.656.037-.962l-.824-1.647 1.73-2.306c.13-.173.2-.384.2-.6v-3h-2v2.667l-.929 1.239-1.176-2.353-1.789.895 2.755 5.509-1.309 2.181-1.648-1.648-.934-3.731-1.939.485.775 3.101-2.122.707.633 1.897 2.414-.805 1.761 1.761-.348.58c-.095.156-.144.334-.144.515l.005 4.905-.999 10.486c0-.074-.006-.149-.006-.224 0-4.898-1.028-9.645-3.056-14.106l-1.076-2.369c-.576-1.265-.868-2.613-.868-4.006 0-5.341 4.345-9.686 9.686-9.686h4.314v19.331c-2.957 1.195-5.302 3.516-6.546 6.413zm6.043-22.458h-4.314c-6.444 0-11.686 5.242-11.686 11.686 0 1.681.353 3.308 1.048 4.835l1.076 2.368c1.908 4.2 2.876 8.668 2.876 13.278 0 1.253.07 2.52.208 3.764l.798 7.179c.055.488.455.865.945.889.017.001.033.001.05.001.47 0 .88-.33.978-.794l2.697-12.811c.632-3.001 2.623-5.534 5.324-6.892v1.85c-1.042.779-1.861 1.838-2.307 3.065-1.787 4.913-2.693 10.056-2.693 15.287v3.295h-6.009c-1.316-3.695-1.991-7.555-1.991-11.485v-2.568c0-4.721-1.258-9.372-3.636-13.45-2.201-3.774-3.364-8.077-3.364-12.443 0-3.703 1.33-7.251 3.731-10.054h16.269zm-26-3h7.202c-2.068 2.931-3.202 6.426-3.202 10.054 0 4.721 1.258 9.372 3.636 13.45 2.201 3.773 3.364 8.076 3.364 12.442v2.568c0 3.923.631 7.779 1.87 11.485h-12.87z"/></g></svg>