<svg width="346" height="508" viewBox="0 0 346 508" fill="none" xmlns="http://www.w3.org/2000/svg">
<path d="M326.491 127.376C310.312 100.831 284.968 84.3398 260.349 84.3398C256.805 84.3398 253.684 86.6709 252.678 90.0688C234.447 151.652 208.674 164.024 173.001 164.024C137.327 164.024 111.554 151.652 93.3229 90.0688C92.3171 86.6709 89.196 84.3398 85.652 84.3398C61.0329 84.3398 35.6891 100.831 19.5104 127.376C6.8698 148.118 0.295584 173.619 0.498709 201.123C0.733084 232.771 9.70379 265.984 27.1618 299.836C56.4557 356.649 60.4264 405.504 63.3249 441.176C64.9069 460.653 66.1579 476.038 71.0466 487.435C76.9831 501.273 87.9245 508 104.494 508C122.509 508 136.41 495.891 145.807 472.01C153.235 453.135 157.246 429.097 160.783 407.889C162.907 395.16 164.913 383.136 167.358 374.041C169.914 364.533 172.124 361.515 173.001 360.632C173.878 361.515 176.088 364.533 178.643 374.041C181.089 383.136 183.094 395.16 185.218 407.889C188.756 429.097 192.766 453.135 200.194 472.01C209.591 495.891 223.492 508 241.507 508C258.077 508 269.018 501.273 274.955 487.435C279.843 476.038 281.094 460.653 282.676 441.176C285.575 405.504 289.546 356.649 318.84 299.837C336.298 265.984 345.268 232.771 345.503 201.123C345.706 173.619 339.132 148.118 326.491 127.376ZM304.619 292.503C273.857 352.162 269.737 402.861 266.729 439.88C263.297 482.124 260.559 492 241.507 492C215.47 492 207.447 443.903 201 405.256C198.536 390.482 196.208 376.527 193.02 366.139C191.194 360.19 186.345 344.389 173.001 344.389C159.656 344.389 154.807 360.19 152.981 366.139C149.794 376.527 147.465 390.482 145.002 405.256C138.554 443.903 130.531 492 104.494 492C85.4421 492 82.7048 482.124 79.2721 439.88C76.2643 402.861 72.1442 352.162 41.3825 292.503C-1.54523 209.262 21.3405 155.118 33.1735 135.703C45.1286 116.085 62.5964 103.151 79.8688 100.746C89.1921 129.895 100.777 149.525 116.083 162.226C130.716 174.369 148.801 180.024 173.001 180.024C197.2 180.024 215.286 174.369 229.919 162.226C245.224 149.525 256.809 129.895 266.133 100.746C283.405 103.151 300.873 116.085 312.828 135.703C324.661 155.118 347.547 209.262 304.619 292.503Z" fill="#714C47"/>
<path d="M116.083 78.1504C129.055 88.9143 144.75 94.5704 165.001 95.7183V119.127L158.69 112.815C155.566 109.691 150.501 109.69 147.375 112.815C144.251 115.939 144.251 121.004 147.375 124.128L167.344 144.098C170.325 147.191 175.678 147.191 178.658 144.098L198.627 124.128C201.751 121.004 201.751 115.939 198.627 112.815C195.502 109.69 190.438 109.691 187.313 112.815L181.001 119.127V95.7183C201.253 94.5704 216.948 88.9143 229.919 78.1504C246.275 64.5776 258.382 43.0928 268.021 10.5352C268.738 8.11523 268.27 5.49902 266.759 3.47705C265.249 1.45508 262.873 0.26416 260.35 0.26416C229.446 0.26416 214.686 8.69482 202.826 15.4692C193.677 20.6948 186.45 24.8228 173.001 24.8228C159.552 24.8228 152.325 20.6948 143.176 15.4692C131.317 8.69482 116.557 0.26416 85.6526 0.26416C83.1291 0.26416 80.7532 1.45508 79.2434 3.47705C77.7327 5.49902 77.2649 8.11523 77.9817 10.5352C87.6204 43.0928 99.7278 64.5776 116.083 78.1504ZM135.24 29.3623C145.105 34.9966 155.304 40.8228 173.001 40.8228C190.698 40.8228 200.898 34.9966 210.762 29.3623C220.336 23.8936 230.188 18.2666 249.267 16.6943C231.275 69.0337 206.504 79.9482 173.001 79.9482C139.498 79.9482 114.728 69.0337 96.7356 16.6943C115.815 18.2666 125.666 23.8936 135.24 29.3623Z" fill="#714C47"/>
</svg>
