<svg width="105" height="62" viewBox="0 0 105 62" fill="none" xmlns="http://www.w3.org/2000/svg">
<g clip-path="url(#clip0_247_117)">
<path d="M10.4026 15.831L4.28783 19.2538L5.65331 12.3804L0.507812 7.62243L7.46703 6.79707L10.4026 0.433472L13.3382 6.79707L20.2974 7.62243L15.1519 12.3804L16.5174 19.2538L10.4026 15.831Z" fill="#FFA425"/>
</g>
<g clip-path="url(#clip1_247_117)">
<path d="M31.2092 15.831L25.0945 19.2538L26.46 12.3804L21.3145 7.62243L28.2737 6.79707L31.2092 0.433472L34.1448 6.79707L41.104 7.62243L35.9585 12.3804L37.324 19.2538L31.2092 15.831Z" fill="#FFA425"/>
</g>
<g clip-path="url(#clip2_247_117)">
<path d="M52.0178 15.831L45.9031 19.2538L47.2685 12.3804L42.123 7.62243L49.0823 6.79707L52.0178 0.433472L54.9534 6.79707L61.9126 7.62243L56.7671 12.3804L58.1326 19.2538L52.0178 15.831Z" fill="#FFA425"/>
</g>
<g clip-path="url(#clip3_247_117)">
<path d="M72.8245 15.831L66.7097 19.2538L68.0752 12.3804L62.9297 7.62243L69.8889 6.79707L72.8245 0.433472L75.7601 6.79707L82.7193 7.62243L77.5738 12.3804L78.9393 19.2538L72.8245 15.831Z" fill="#FFA425"/>
</g>
<g clip-path="url(#clip4_247_117)">
<path d="M93.6331 15.831L87.5183 19.2538L88.8838 12.3804L83.7383 7.62243L90.6975 6.79707L93.6331 0.433472L96.5687 6.79707L103.528 7.62243L98.3824 12.3804L99.7479 19.2538L93.6331 15.831Z" fill="#FFA425"/>
</g>
<g clip-path="url(#clip5_247_117)">
<path d="M76.6163 46.8301L78.1618 46.4689C78.1943 46.4613 78.248 46.4488 78.3136 46.4273C78.74 46.3113 79.1055 46.0323 79.3329 45.6491C79.5603 45.2658 79.6322 44.8083 79.5331 44.3728C79.5309 44.3632 79.5288 44.3542 79.5266 44.3447C79.4759 44.1359 79.387 43.9387 79.2644 43.7632C79.0912 43.541 78.8769 43.355 78.6334 43.2157C78.3468 43.0503 78.0468 42.9097 77.7367 42.7957L76.0422 42.1698C75.0912 41.8121 74.1403 41.4635 73.1804 41.1235C72.558 40.8993 72.0305 40.7027 71.5723 40.5593C71.4858 40.5323 71.3903 40.5054 71.3128 40.4783C70.7588 40.3066 70.3695 40.2354 70.0401 40.233C69.8201 40.2248 69.6009 40.2653 69.3978 40.3515C69.1861 40.4438 68.9961 40.5803 68.84 40.752C68.7624 40.8413 68.6894 40.9346 68.6213 41.0316C68.5574 41.1304 68.4989 41.2326 68.4459 41.3378C68.3875 41.4505 68.3373 41.5675 68.2958 41.6877C67.9813 42.6282 67.8246 43.6153 67.8323 44.608C67.8379 45.5055 67.8618 46.6574 68.3494 47.4383C68.4669 47.6386 68.6246 47.8118 68.8123 47.9466C69.1596 48.1893 69.5108 48.2213 69.8759 48.2479C70.4217 48.2875 70.9505 48.1519 71.4775 48.0287L76.612 46.8286L76.6163 46.8301Z" fill="#FF1A1A"/>
<path d="M93.859 38.5294C93.437 37.6335 92.8697 36.8156 92.1806 36.1097C92.0915 36.0201 91.996 35.9371 91.895 35.8616C91.8017 35.7908 91.7047 35.725 91.6045 35.6643C91.5016 35.6072 91.3956 35.5557 91.2872 35.5101C91.0729 35.4249 90.8432 35.3866 90.6132 35.3974C90.3932 35.4101 90.1786 35.471 89.9841 35.5761C89.6894 35.7243 89.3705 35.9625 88.9463 36.3614C88.8877 36.4204 88.8141 36.4868 88.748 36.5494C88.398 36.8823 88.0087 37.2927 87.5454 37.7705C86.8296 38.5023 86.1248 39.2379 85.4244 39.9816L84.1711 41.2964C83.9416 41.5366 83.7326 41.7961 83.5464 42.0721C83.3877 42.3054 83.2755 42.5676 83.2159 42.8443C83.1815 43.0565 83.1865 43.2733 83.2309 43.4835C83.233 43.4931 83.235 43.5022 83.2372 43.5117C83.3362 43.9472 83.5983 44.3267 83.9683 44.5703C84.3384 44.8139 84.7874 44.9025 85.2209 44.8176C85.2896 44.8075 85.3429 44.7956 85.3753 44.7875L92.0576 43.2257C92.5842 43.1026 93.1186 42.9897 93.5918 42.7119C93.909 42.5257 94.2109 42.3412 94.4179 41.9689C94.5285 41.7644 94.5955 41.5387 94.6145 41.3064C94.717 40.3851 94.2415 39.3388 93.859 38.5294Z" fill="#FF1A1A"/>
<path d="M81.8999 41.3721C82.3841 40.7567 82.3829 39.8394 82.4262 39.0895C82.5719 36.584 82.7255 34.0781 82.8471 31.5712C82.8936 30.6217 82.9947 29.685 82.9388 28.7283C82.8928 27.939 82.8871 27.0328 82.3946 26.3851C81.525 25.2428 79.6708 25.3367 78.4057 25.5139C78.0181 25.5683 77.6299 25.6415 77.2448 25.735C76.8597 25.8285 76.4785 25.9307 76.1057 26.0515C74.8917 26.4538 73.1851 27.1921 72.8961 28.6072C72.7332 29.4071 73.1192 30.2254 73.4187 30.9555C73.7817 31.8404 74.2776 32.6376 74.7295 33.4706C75.9242 35.6698 77.1412 37.8553 78.3547 40.0431C78.7171 40.6963 79.1121 41.5234 79.8132 41.8618C79.8596 41.8823 79.9069 41.9004 79.9551 41.916C80.2694 42.0365 80.6122 42.0597 80.9397 41.9827C80.9595 41.9781 80.9789 41.9736 80.9982 41.9691C81.3006 41.8858 81.5745 41.7195 81.7894 41.4883C81.8282 41.4515 81.8651 41.4128 81.8999 41.3721Z" fill="#FF1A1A"/>
<path d="M81.3191 48.0798C81.1302 47.8107 80.8619 47.6092 80.5529 47.5039C80.2437 47.3984 79.9096 47.3948 79.5981 47.4932C79.525 47.5178 79.4537 47.5477 79.3848 47.5828C79.2783 47.6376 79.1767 47.7017 79.0811 47.7743C78.8026 47.983 78.5681 48.2542 78.3546 48.5262C78.3004 48.5956 78.2509 48.688 78.1865 48.7473L77.1117 50.2429C76.5024 51.0809 75.9017 51.9209 75.3059 52.7743C74.9172 53.3252 74.5809 53.7904 74.3153 54.202C74.265 54.2796 74.2128 54.3662 74.1649 54.4351C73.8465 54.9334 73.6663 55.2969 73.5738 55.6208C73.5042 55.8361 73.4822 56.064 73.5093 56.2887C73.5389 56.5228 73.6168 56.7479 73.7379 56.9494C73.8023 57.0505 73.8718 57.1483 73.946 57.2424C74.023 57.3328 74.1049 57.4189 74.1912 57.5004C74.2833 57.5893 74.3818 57.6712 74.4861 57.7454C75.2279 58.2675 76.0401 58.6427 76.8944 58.9326C77.6053 59.1714 78.3442 59.3142 79.0921 59.3575C79.2193 59.364 79.3469 59.3613 79.4738 59.3491C79.5913 59.3388 79.7082 59.3221 79.8241 59.2995C79.9399 59.2721 80.0541 59.2385 80.1664 59.1988C80.3848 59.1162 80.5836 58.9881 80.7502 58.8228C80.9078 58.6632 81.0291 58.4707 81.1056 58.2587C81.2298 57.9454 81.3115 57.5476 81.3653 56.957C81.37 56.873 81.3818 56.7723 81.3901 56.6801C81.4325 56.19 81.4519 55.6145 81.4831 54.9377C81.5356 53.897 81.5769 52.8608 81.6094 51.8216C81.6094 51.8216 81.6787 49.975 81.6785 49.974C81.6943 49.5485 81.6814 49.0769 81.5647 48.6532C81.5134 48.4501 81.4306 48.2565 81.3191 48.0798Z" fill="#FF1A1A"/>
<path d="M93.4521 50.9711C93.2278 50.7223 92.9099 50.4741 92.4085 50.1675C92.3362 50.1266 92.2514 50.0721 92.1731 50.0247C91.7557 49.7707 91.2528 49.5035 90.6654 49.1808C89.7631 48.6796 88.8603 48.191 87.9488 47.7065L86.3383 46.8425C86.2548 46.8179 86.1699 46.7568 86.0913 46.7184C85.7819 46.5688 85.4539 46.429 85.1134 46.3649C84.9961 46.3421 84.8771 46.3297 84.7576 46.3276C84.6805 46.3267 84.6036 46.3314 84.5272 46.3418C84.2052 46.3922 83.9071 46.5444 83.6754 46.7762C83.4437 47.0082 83.2902 47.3084 83.2368 47.6337C83.2122 47.8407 83.2197 48.0502 83.259 48.2548C83.3377 48.6883 83.529 49.1172 83.727 49.4928L84.5871 51.1233C85.0656 52.043 85.5499 52.9573 86.0464 53.8687C86.3666 54.4633 86.6332 54.972 86.8828 55.3938C86.9301 55.4731 86.9838 55.5585 87.0243 55.6319C87.3282 56.1389 87.5723 56.4579 87.8199 56.6869C87.9803 56.8435 88.1724 56.9628 88.3831 57.0363C88.6045 57.1106 88.8388 57.1369 89.071 57.1136C89.189 57.0994 89.3062 57.079 89.4221 57.0522C89.5363 57.0211 89.6487 56.9841 89.759 56.9413C89.8782 56.8958 89.9939 56.8418 90.1053 56.7794C90.7591 56.4086 91.3617 55.9522 91.8977 55.4219C92.5405 54.782 93.1087 54.0842 93.5507 53.2854C93.6121 53.1723 93.6653 53.055 93.71 52.9342C93.7516 52.8224 93.7877 52.7086 93.8179 52.5931C93.8441 52.4757 93.8642 52.3571 93.8781 52.2375C93.9 52.003 93.873 51.7663 93.7989 51.5429C93.7261 51.3289 93.6077 51.1337 93.4521 50.9711Z" fill="#FF1A1A"/>
<path fill-rule="evenodd" clip-rule="evenodd" d="M38.0028 35.1092C38.0028 33.7656 39.0849 32.668 40.3909 32.668C41.6781 32.668 42.7228 33.7656 42.7788 35.1282V54.1851C42.7788 55.5287 41.6967 56.6263 40.3909 56.6263C39.0476 56.6263 38.0028 55.5287 38.0028 54.1851V35.1092ZM35.7824 46.8802C35.7638 47.2587 35.6705 47.9589 35.1854 48.4699C34.663 49.0186 33.9541 49.1512 33.5437 49.1512C31.8367 49.1606 30.1297 49.1654 28.4228 49.1701C26.7157 49.1748 25.0086 49.1795 23.3015 49.189C23.4508 49.6621 23.7492 50.3812 24.4209 51.0436C24.8313 51.441 25.2231 51.6681 25.3909 51.7627C25.5962 51.8952 26.3051 52.2737 27.182 52.2737C28.1148 52.2737 28.9357 51.9708 29.7379 51.5545L29.8049 51.5195C30.3624 51.2272 30.9377 50.9256 31.5475 50.8165C32.1445 50.7219 32.7788 50.8354 33.2452 51.2518C33.8049 51.7438 34.0287 52.4629 33.8235 53.201C33.581 54.0336 32.8907 54.7528 32.1631 55.188C31.7527 55.4341 31.305 55.6422 30.8572 55.8126C30.2789 56.0208 29.6819 56.1721 29.0849 56.2668C28.4878 56.3614 27.8722 56.3992 27.2565 56.3803C26.9581 56.3803 26.6409 56.3803 26.3237 56.3424C25.988 56.3046 25.6522 56.2289 25.335 56.1532C24.8127 56.0397 24.3276 55.8693 23.8425 55.6422C23.3761 55.4341 22.9097 55.1691 22.4806 54.8664C22.0515 54.5635 21.6597 54.204 21.2866 53.8255C20.9321 53.447 20.5964 53.0307 20.2979 52.5765C19.2904 51.0247 18.824 49.1133 18.9173 47.2587C18.9919 45.4419 19.5889 43.6252 20.671 42.1491C20.7882 41.9642 20.9235 41.807 21.0516 41.658C21.1071 41.5936 21.1612 41.5307 21.212 41.4678C22.5483 39.8152 24.3335 39.2922 25.0699 39.0765L25.1112 39.0644C27.2193 38.4588 28.9729 38.8562 29.6819 39.0644C30.0363 39.159 32.0326 39.7835 33.581 41.4678C33.6557 41.5435 33.8608 41.7895 34.122 42.1491C35.103 43.5008 35.4413 44.7595 35.5558 45.1859L35.5586 45.1959C35.6705 45.6122 35.7824 46.18 35.7824 46.8802ZM24.8313 43.7577C23.7492 44.6472 23.4507 45.7826 23.3761 46.1421H31.5102C31.4356 45.8016 31.1184 44.6472 30.0363 43.7577C28.9357 42.8682 27.7789 42.8115 27.4245 42.8115C27.0701 42.8115 25.9133 42.8682 24.8313 43.7577ZM55.7631 38.7427C53.6363 38.7427 51.6961 39.7079 50.3155 41.2786V41.2218C50.2596 39.9538 49.2148 38.932 47.9461 38.932C46.6215 38.932 45.5582 40.0106 45.5582 41.3543V59.5407C45.5582 60.8844 46.6215 61.9631 47.9461 61.9631C49.2708 61.9631 50.3341 60.8844 50.3341 59.5407V58.8405V53.8633C51.7147 55.4152 53.6363 56.3992 55.7817 56.3992C60.054 56.3992 63.524 52.4818 63.524 47.5994C63.5054 42.7168 60.0353 38.7427 55.7631 38.7427ZM54.7184 52.4441C52.293 52.4441 50.3155 50.3056 50.3155 47.6372C50.3155 44.9499 52.2744 42.8115 54.7184 42.8115C57.1436 42.8115 59.1212 44.9499 59.1212 47.6372C59.1025 50.3056 57.1436 52.4441 54.7184 52.4441ZM15.3354 48.8673L14.5518 50.6083C14.1974 51.3653 13.8429 52.1412 13.5071 52.9171C13.3999 53.1552 13.292 53.3982 13.1826 53.6445C11.6915 57.0008 9.9218 60.9842 6.0633 61.8305C4.19768 62.2469 1.38061 61.6792 0.335863 59.9002C-0.708881 58.1024 0.839579 56.0396 2.83579 56.5127C3.15064 56.5837 3.46023 56.7399 3.77246 56.8973C4.29276 57.1598 4.82036 57.4259 5.39168 57.3076C5.9327 57.2129 6.26852 56.8155 6.6976 56.3046C7.2946 55.6043 7.55579 54.8664 7.66773 54.4311C7.6584 54.4122 7.64907 54.3884 7.63974 54.3648C7.63041 54.3412 7.62108 54.3175 7.61175 54.2986C7.12611 53.382 6.70199 52.5627 6.34769 51.8781C6.11675 51.4319 5.91547 51.043 5.74614 50.7219C5.39873 50.0557 5.13629 49.552 4.93221 49.1604C4.33627 48.0167 4.23785 47.8278 3.97381 47.3344C3.39547 46.2179 2.77981 45.1391 2.14551 44.0604C1.45523 42.8871 0.746298 41.5813 1.32464 40.1999C1.79104 39.0833 2.98503 38.5155 4.12306 38.8752C5.32383 39.2438 5.85558 40.3997 6.35288 41.4806C6.44279 41.676 6.53157 41.869 6.62298 42.0545C7.4252 43.6631 8.20875 45.2716 8.99231 46.8802C9.06129 47.0401 9.16671 47.2582 9.29482 47.5232C9.40925 47.7598 9.5418 48.0339 9.68259 48.3374C9.75621 48.4951 9.82623 48.6418 9.8896 48.7744C9.97063 48.9443 10.0406 49.091 10.093 49.2079C10.4568 48.2901 10.8252 47.377 11.1938 46.4639C11.5622 45.5508 11.9307 44.6376 12.2944 43.7199C12.3046 43.6685 12.3914 43.4728 12.5222 43.1776C12.6328 42.9281 12.7749 42.6077 12.9287 42.2437C12.9808 42.1193 13.0331 41.9903 13.0867 41.8583C13.5713 40.6645 14.1539 39.2292 15.4474 38.8373C16.3802 38.5534 17.4249 38.932 17.9659 39.7267C18.2458 40.1241 18.3577 40.5783 18.3763 41.0325C18.3913 42.0369 17.9118 43.1148 17.5001 44.0397C17.3999 44.265 17.3037 44.4811 17.2197 44.6849C17.2158 44.6927 17.1996 44.7298 17.1702 44.7963C17.0564 45.0549 16.7464 45.759 16.2122 46.9181C16.0195 47.3335 15.8345 47.7491 15.6472 48.1697C15.5445 48.4005 15.4411 48.6327 15.3354 48.8673Z" fill="black"/>
<path d="M65.3334 54.8069H65.5064C65.5917 54.8069 65.6601 54.7848 65.7113 54.7405C65.7636 54.6951 65.7898 54.638 65.7898 54.5689C65.7898 54.4879 65.7668 54.4301 65.7209 54.3955C65.6751 54.3599 65.6025 54.3421 65.5032 54.3421H65.3334V54.8069ZM66.0284 54.5623C66.0284 54.6487 66.0054 54.7254 65.9595 54.7924C65.9146 54.8582 65.8512 54.9073 65.769 54.9397L66.1501 55.5796H65.881L65.5497 55.0061H65.3334V55.5796H65.0965V54.1364H65.5144C65.6916 54.1364 65.8213 54.1715 65.9034 54.2416C65.9868 54.3119 66.0284 54.4188 66.0284 54.5623ZM64.3359 54.8572C64.3359 54.6412 64.3893 54.4387 64.4961 54.2498C64.6028 54.0608 64.7496 53.9118 64.9364 53.8027C65.1232 53.6937 65.3244 53.6392 65.54 53.6392C65.7535 53.6392 65.9536 53.6932 66.1405 53.8011C66.3272 53.9091 66.4746 54.0576 66.5823 54.2465C66.6901 54.4355 66.7441 54.639 66.7441 54.8572C66.7441 55.0699 66.6923 55.2697 66.5888 55.4565C66.4852 55.6433 66.3401 55.7928 66.1533 55.9051C65.9664 56.0174 65.7621 56.0736 65.54 56.0736C65.3191 56.0736 65.1152 56.0179 64.9284 55.9067C64.7416 55.7945 64.5959 55.6448 64.4913 55.4581C64.3877 55.2713 64.3359 55.071 64.3359 54.8572ZM64.5041 54.8572C64.5041 55.044 64.5505 55.2189 64.6434 55.3819C64.7363 55.5439 64.8627 55.6719 65.0229 55.7658C65.184 55.8587 65.3564 55.9051 65.54 55.9051C65.7258 55.9051 65.8981 55.8582 66.0571 55.7642C66.2162 55.6702 66.3421 55.5434 66.4351 55.3835C66.529 55.2227 66.5759 55.0472 66.5759 54.8572C66.5759 54.6693 66.5295 54.4949 66.4367 54.334C66.3438 54.1731 66.2178 54.0457 66.0588 53.9518C65.9008 53.8567 65.7279 53.8092 65.54 53.8092C65.3542 53.8092 65.1819 53.8562 65.0229 53.9502C64.8638 54.044 64.7373 54.1715 64.6434 54.3324C64.5505 54.4922 64.5041 54.6671 64.5041 54.8572Z" fill="black"/>
</g>
<defs>
<clipPath id="clip0_247_117">
<rect width="20.8074" height="20.8074" fill="white"/>
</clipPath>
<clipPath id="clip1_247_117">
<rect width="20.8074" height="20.8074" fill="white" transform="translate(20.8066)"/>
</clipPath>
<clipPath id="clip2_247_117">
<rect width="20.8074" height="20.8074" fill="white" transform="translate(41.6152)"/>
</clipPath>
<clipPath id="clip3_247_117">
<rect width="20.8074" height="20.8074" fill="white" transform="translate(62.4219)"/>
</clipPath>
<clipPath id="clip4_247_117">
<rect width="20.8074" height="20.8074" fill="white" transform="translate(83.2305)"/>
</clipPath>
<clipPath id="clip5_247_117">
<rect width="95" height="37" fill="white" transform="translate(0 25)"/>
</clipPath>
</defs>
</svg>
