<svg width="512" height="512" viewBox="0 0 512 512" fill="none" xmlns="http://www.w3.org/2000/svg">
<path d="M304.049 402.061C309.487 402.061 313.895 397.652 313.895 392.215C313.895 386.777 309.487 382.368 304.049 382.368C298.611 382.368 294.203 386.777 294.203 392.215C294.203 397.652 298.611 402.061 304.049 402.061Z" fill="#714C45"/>
<path d="M321.041 193.041C271.529 175.768 202.887 190.509 200.243 191.184C198.917 191.397 197.649 191.879 196.516 192.6C195.383 193.321 194.41 194.266 193.656 195.377C192.902 196.489 192.383 197.742 192.131 199.061C191.88 200.381 191.901 201.737 192.193 203.048C192.485 204.359 193.042 205.596 193.83 206.683C194.618 207.771 195.62 208.685 196.775 209.371C197.929 210.057 199.212 210.499 200.544 210.671C201.875 210.843 203.228 210.741 204.519 210.37C205.138 210.37 270.235 196.192 314.515 211.664C315.564 212.024 316.669 212.196 317.778 212.171C320.099 212.166 322.345 211.342 324.117 209.844C325.89 208.345 327.076 206.268 327.467 203.98C327.857 201.692 327.426 199.339 326.251 197.338C325.075 195.336 323.23 193.814 321.041 193.041Z" fill="#714C45"/>
<path d="M483.868 254.256C482.473 250.511 479.817 247.367 476.358 245.366C472.898 243.364 468.85 242.628 464.907 243.284C460.879 243.856 457.15 245.735 454.294 248.632C451.438 251.529 449.612 255.284 449.097 259.32C448.509 266.963 450.887 274.539 455.736 280.475L454.386 281.544C453.259 282.391 451.948 282.96 450.56 283.205C449.172 283.449 447.745 283.362 446.397 282.95C444.385 282.075 442.608 280.737 441.21 279.046C439.812 277.355 438.832 275.358 438.351 273.217C438.351 273.217 438.351 273.217 438.351 272.823C423.666 216.559 383.663 175.149 324.361 154.163C335.965 141.784 343.8 126.354 346.946 109.682C350.093 93.0089 348.421 75.7846 342.126 60.0283C335.832 44.2721 325.176 30.6369 311.407 20.7215C297.639 10.8061 281.329 5.02158 264.39 4.04608C247.451 3.07057 230.585 6.94454 215.77 15.2138C200.954 23.483 188.803 35.8048 180.742 50.7343C172.68 65.6638 169.042 82.5822 170.253 99.506C171.465 116.43 177.477 132.657 187.583 146.286C179.372 148.308 171.322 150.941 163.503 154.163L160.633 155.232C152.578 147.565 142.314 142.629 131.295 141.124C120.277 139.619 109.065 141.622 99.2493 146.848C97.674 147.698 96.3567 148.956 95.4359 150.491C94.5151 152.025 94.0249 153.78 94.0168 155.569V191.128C71.6551 208.645 54.2099 231.653 43.3795 257.913H24.7562C21.9599 257.694 19.1487 258.06 16.5016 258.987C13.8545 259.915 11.4296 261.383 9.38125 263.299C7.33289 265.215 5.70604 267.537 4.6043 270.116C3.50257 272.695 2.9501 275.476 2.9821 278.281C2.9821 281.15 2.3632 336.007 3.31968 342.027C3.52477 344.627 4.24413 347.16 5.43602 349.479C6.6279 351.799 8.26858 353.858 10.2628 355.538C12.2571 357.219 14.5652 358.486 17.0531 359.267C19.5411 360.048 22.1595 360.327 24.7562 360.088H43.2107C54.0237 386.374 71.4712 409.404 93.848 426.929V471.94C93.8629 481.451 97.6514 490.567 104.382 497.286C111.112 504.006 120.234 507.78 129.744 507.78H160.07C169.581 507.78 178.703 504.006 185.433 497.286C192.163 490.567 195.952 481.451 195.967 471.94C226.803 477.145 258.336 476.592 288.971 470.309V472.165C288.986 481.666 292.766 490.774 299.484 497.492C306.202 504.21 315.31 507.99 324.811 508.005H355.249C364.75 507.99 373.858 504.21 380.576 497.492C387.294 490.774 391.075 481.666 391.089 472.165V419.39C424.848 388.895 443.077 349.792 443.077 308.832C443.077 307.65 443.077 305.4 443.077 302.305C447.024 303.233 451.127 303.28 455.094 302.444C459.061 301.607 462.796 299.908 466.033 297.466C467.875 296.142 469.64 294.714 471.321 293.19C476.125 295.612 481.582 296.421 486.881 295.499C492.181 294.577 497.043 291.972 500.747 288.07C501.739 287.164 502.534 286.064 503.084 284.838C503.634 283.613 503.928 282.288 503.947 280.945C503.966 279.602 503.709 278.269 503.194 277.028C502.679 275.788 501.915 274.666 500.95 273.732C499.985 272.797 498.839 272.07 497.582 271.595C496.326 271.12 494.985 270.908 493.644 270.97C492.302 271.033 490.987 271.369 489.78 271.959C488.573 272.548 487.499 273.378 486.625 274.398C485.831 275.355 484.706 275.977 483.474 276.143C484.975 272.699 485.782 268.994 485.85 265.238C485.917 261.483 485.244 257.751 483.868 254.256ZM259.32 23.5746C273.051 23.5858 286.471 27.6649 297.885 35.2969C309.3 42.929 318.197 53.7718 323.454 66.4565C328.711 79.1412 330.092 93.0992 327.423 106.568C324.754 120.037 318.154 132.413 308.456 142.135C298.759 151.856 286.399 158.486 272.936 161.187C259.474 163.889 245.512 162.542 232.815 157.316C220.118 152.089 209.253 143.218 201.593 131.822C193.934 120.426 189.822 107.016 189.778 93.2854C189.807 74.8657 197.138 57.2091 210.162 44.1844C223.187 31.1597 240.844 23.8294 259.263 23.7996L259.32 23.5746ZM374.942 407.462C367.008 414.833 350.692 426.479 350.579 426.592C348.738 428.188 347.553 430.411 347.256 432.83C346.958 435.249 347.568 437.693 348.968 439.688C350.369 441.683 352.459 443.088 354.835 443.631C357.211 444.174 359.705 443.816 361.832 442.627C362.17 442.627 366.39 439.364 371.622 435.369V471.209C371.607 475.487 369.901 479.586 366.876 482.611C363.851 485.636 359.752 487.342 355.474 487.357H324.979C320.701 487.342 316.603 485.636 313.578 482.611C310.553 479.586 308.847 475.487 308.832 471.209V457.143C308.829 455.641 308.482 454.159 307.818 452.812C307.154 451.465 306.19 450.287 305.001 449.369C303.812 448.452 302.428 447.818 300.957 447.517C299.485 447.217 297.964 447.257 296.51 447.634C261.192 456.741 224.231 457.434 188.596 449.66C176.348 445.845 164.374 441.202 152.756 435.763C150.384 434.666 147.672 434.557 145.219 435.459C142.766 436.361 140.772 438.201 139.675 440.573C138.578 442.946 138.469 445.657 139.371 448.11C140.273 450.563 142.113 452.558 144.485 453.655C145.329 454.048 162.152 461.813 176.443 466.595V471.434C176.428 475.722 174.715 479.829 171.677 482.856C168.64 485.882 164.527 487.582 160.239 487.582H129.913C125.625 487.582 121.512 485.882 118.475 482.856C115.438 479.829 113.724 475.722 113.709 471.434V421.978C113.711 420.463 113.362 418.968 112.688 417.611C112.015 416.254 111.035 415.072 109.827 414.157C86.568 397.23 68.9273 373.709 59.1896 346.641C58.4986 344.77 57.2588 343.151 55.6324 341.997C54.0061 340.842 52.069 340.206 50.0748 340.171H24.7562H22.9557C22.9557 340.171 22.9557 339.664 22.9557 339.327C22.5056 334.488 22.5056 284.751 22.5056 279.856C22.5611 279.098 22.6739 278.346 22.8432 277.605C23.4422 277.552 24.0447 277.552 24.6436 277.605H50.0748C52.1297 277.612 54.1352 276.975 55.81 275.784C57.4849 274.594 58.7453 272.909 59.4146 270.966C69.1677 243.906 86.8053 220.389 110.052 203.45C111.267 202.542 112.251 201.361 112.925 200.002C113.6 198.644 113.945 197.146 113.934 195.629V161.871C120.398 159.688 127.381 159.572 133.915 161.538C140.448 163.504 146.207 167.455 150.393 172.842C151.694 174.49 153.487 175.68 155.512 176.236C157.536 176.793 159.685 176.688 161.646 175.937L170.986 172.448C181.058 168.052 191.673 165.024 202.55 163.446L204.125 163.052C218.468 174.417 235.975 181.069 254.247 182.097C272.518 183.124 290.66 178.477 306.187 168.791C367.459 186.908 408.081 227.418 420.628 283.007C422.507 291.489 423.487 300.145 423.554 308.832C423.554 345.347 406.337 380.399 374.942 407.462Z" fill="#714C45"/>
<path d="M125.356 241.09C123.315 240.209 121.11 239.768 118.886 239.796C114.601 240.029 110.48 241.52 107.038 244.081C103.596 246.643 100.985 250.162 99.5313 254.2C94.7489 265.452 98.5748 277.718 108.308 281.769C110.303 282.605 112.447 283.026 114.61 283.007C118.896 282.782 123.021 281.302 126.472 278.751C129.923 276.2 132.548 272.691 134.021 268.66C138.803 257.238 135.034 245.085 125.356 241.09Z" fill="#714C45"/>
<path d="M247.56 125.187C239.514 125.187 232.706 120.179 232.706 114.328C232.706 111.717 231.669 109.212 229.822 107.366C227.976 105.519 225.471 104.482 222.86 104.482C220.248 104.482 217.744 105.519 215.898 107.366C214.051 109.212 213.014 111.717 213.014 114.328C213.014 131.207 228.486 144.879 247.56 144.879H249.191V147.917C249.191 150.529 250.229 153.033 252.075 154.88C253.922 156.726 256.426 157.763 259.037 157.763C261.649 157.763 264.153 156.726 266 154.88C267.846 153.033 268.884 150.529 268.884 147.917V144.823C287.282 144.148 302.023 130.757 302.023 114.328V113.259C301.856 106.986 299.523 100.964 295.421 96.2157C291.319 91.4673 285.7 88.2849 279.517 87.2088L268.659 84.9582V60.5397C276.085 61.1024 282.106 65.716 282.106 71.2299C282.106 73.8412 283.143 76.3456 284.989 78.1921C286.836 80.0387 289.34 81.076 291.952 81.076C294.563 81.076 297.067 80.0387 298.914 78.1921C300.76 76.3456 301.798 73.8412 301.798 71.2299C301.798 54.8571 287.057 41.4663 268.659 40.7912V38.5969C268.659 35.9855 267.621 33.4811 265.775 31.6346C263.928 29.7881 261.424 28.7507 258.812 28.7507C256.201 28.7507 253.697 29.7881 251.85 31.6346C250.004 33.4811 248.966 35.9855 248.966 38.5969V40.7349H247.56C228.486 40.7349 213.014 54.407 213.014 71.2299V72.2989C213.299 78.4009 215.595 84.2371 219.544 88.8981C223.492 93.5591 228.872 96.7831 234.844 98.0677L249.191 100.993V125.187H247.56ZM268.884 105.044L275.466 106.395C279.63 107.407 282.331 110.108 282.331 113.203V114.328C282.331 119.954 276.31 124.512 268.884 125.074V105.044ZM238.951 78.7692C237.405 78.4121 235.993 77.6175 234.886 76.4802C233.778 75.3428 233.022 73.9108 232.706 72.3551V71.2299C232.706 65.6035 239.514 60.4272 247.56 60.4272H249.191V80.9072L238.951 78.7692Z" fill="#714C45"/>
<path d="M362.732 264.44C361.603 265.062 360.608 265.901 359.805 266.909C359.001 267.917 358.405 269.073 358.049 270.312C357.694 271.551 357.586 272.848 357.733 274.129C357.88 275.409 358.279 276.648 358.906 277.774C370.158 297.748 360.593 342.646 334.206 364.702C332.211 366.376 330.961 368.772 330.729 371.366C330.497 373.961 331.302 376.541 332.968 378.543C333.793 379.537 334.806 380.358 335.95 380.959C337.093 381.559 338.344 381.928 339.631 382.043C340.917 382.158 342.214 382.017 343.446 381.629C344.678 381.241 345.821 380.612 346.809 379.78C378.317 353.505 392.833 298.254 376.122 268.209C374.845 265.936 372.717 264.262 370.207 263.555C367.696 262.848 365.008 263.166 362.732 264.44Z" fill="#714C45"/>
</svg>
