<svg width="54" height="55" viewBox="0 0 54 55" fill="none" xmlns="http://www.w3.org/2000/svg">
<path d="M46.36 3.10016H42.7V1.88016C42.7 1.20641 42.1537 0.660156 41.48 0.660156C40.8063 0.660156 40.26 1.20641 40.26 1.88016V3.10016H13.42V1.88016C13.42 1.20641 12.8737 0.660156 12.2 0.660156C11.5263 0.660156 10.98 1.20641 10.98 1.88016V3.10016H7.32C3.28363 3.10016 0 6.38379 0 10.4202V47.0202C0 51.0565 3.28363 54.3402 7.32 54.3402H46.36C50.3964 54.3402 53.68 51.0565 53.68 47.0202V10.4202C53.68 6.38379 50.3964 3.10016 46.36 3.10016ZM2.44 10.4202C2.44 7.72945 4.62929 5.54016 7.32 5.54016H10.98V6.97366C9.56083 7.47782 8.54 8.83019 8.54 10.4202C8.54 12.4383 10.1818 14.0802 12.2 14.0802C14.2182 14.0802 15.86 12.4383 15.86 10.4202C15.86 8.83019 14.8392 7.47782 13.42 6.97366V5.54016H40.26V6.97366C38.8408 7.47782 37.82 8.83019 37.82 10.4202C37.82 12.4383 39.4618 14.0802 41.48 14.0802C43.4982 14.0802 45.14 12.4383 45.14 10.4202C45.14 8.83019 44.1192 7.47782 42.7 6.97366V5.54016H46.36C49.0507 5.54016 51.24 7.72945 51.24 10.4202V40.9202C51.24 43.6109 49.0507 45.8002 46.36 45.8002H7.32C4.62929 45.8002 2.44 43.6109 2.44 40.9202V10.4202ZM13.42 10.4202C13.42 11.093 12.8728 11.6402 12.2 11.6402C11.5272 11.6402 10.98 11.093 10.98 10.4202C10.98 10.1972 11.0447 9.99072 11.1496 9.81046C11.3609 10.1734 11.7498 10.4202 12.2 10.4202C12.6502 10.4202 13.0391 10.1734 13.2504 9.81046C13.3553 9.99072 13.42 10.1972 13.42 10.4202ZM42.7 10.4202C42.7 11.093 42.1528 11.6402 41.48 11.6402C40.8072 11.6402 40.26 11.093 40.26 10.4202C40.26 10.1972 40.3247 9.99072 40.4296 9.81046C40.6409 10.1734 41.0298 10.4202 41.48 10.4202C41.9302 10.4202 42.3191 10.1734 42.5304 9.81046C42.6353 9.99072 42.7 10.1972 42.7 10.4202ZM46.36 51.9002H7.32C4.62929 51.9002 2.44 49.7109 2.44 47.0202V46.3702C3.73595 47.5319 5.44669 48.2402 7.32 48.2402H46.36C48.2333 48.2402 49.9441 47.5319 51.24 46.3702V47.0202C51.24 49.7109 49.0507 51.9002 46.36 51.9002Z" fill="#714C45"/>
<path d="M28.6695 28.7202H25.0095C23.3278 28.7202 21.9595 27.352 21.9595 25.6702C21.9595 23.9885 23.3278 22.6202 25.0095 22.6202H32.9395C33.6133 22.6202 34.1595 22.074 34.1595 21.4002C34.1595 20.7265 33.6133 20.1802 32.9395 20.1802H28.0595V18.9602C28.0595 18.2865 27.5133 17.7402 26.8395 17.7402C26.1658 17.7402 25.6195 18.2865 25.6195 18.9602V20.1802H25.0095C21.9824 20.1802 19.5195 22.6431 19.5195 25.6702C19.5195 28.6974 21.9824 31.1602 25.0095 31.1602H28.6695C30.3513 31.1602 31.7195 32.5285 31.7195 34.2102C31.7195 35.892 30.3513 37.2602 28.6695 37.2602H20.7395C20.0658 37.2602 19.5195 37.8065 19.5195 38.4802C19.5195 39.154 20.0658 39.7002 20.7395 39.7002H25.6195V40.9202C25.6195 41.594 26.1658 42.1402 26.8395 42.1402C27.5133 42.1402 28.0595 41.594 28.0595 40.9202V39.7002H28.6695C31.6967 39.7002 34.1595 37.2374 34.1595 34.2102C34.1595 31.1831 31.6967 28.7202 28.6695 28.7202Z" fill="#714C45"/>
</svg>
